<?xml version="1.0" encoding="UTF-8"?><svg xmlns="http://www.w3.org/2000/svg" xmlns:xlink="http://www.w3.org/1999/xlink" viewBox="0 0 660.85 676.11"><defs><style>.cls-1 {
        fill: #a2a7ae;
      }

      .cls-2 {
        fill: url(#linear-gradient-15);
      }

      .cls-3 {
        fill: url(#linear-gradient-13);
      }

      .cls-4 {
        fill: url(#linear-gradient-28);
      }

      .cls-5 {
        fill: url(#linear-gradient-2);
      }

      .cls-6 {
        opacity: .58;
      }

      .cls-6, .cls-7, .cls-8, .cls-9 {
        fill: #fff;
      }

      .cls-10 {
        fill: url(#linear-gradient-25);
      }

      .cls-11 {
        fill: url(#linear-gradient-10);
      }

      .cls-12 {
        fill: url(#linear-gradient-12);
      }

      .cls-13 {
        fill: url(#linear-gradient-27);
      }

      .cls-14 {
        fill: url(#linear-gradient-16);
      }

      .cls-14, .cls-15, .cls-16, .cls-17, .cls-18, .cls-19 {
        mix-blend-mode: multiply;
      }

      .cls-14, .cls-16 {
        opacity: .4;
      }

      .cls-15, .cls-17, .cls-18 {
        opacity: .3;
      }

      .cls-15, .cls-20 {
        fill: #97a6b7;
      }

      .cls-21, .cls-9, .cls-22 {
        mix-blend-mode: soft-light;
      }

      .cls-23 {
        fill: url(#linear-gradient-26);
      }

      .cls-24 {
        fill: none;
      }

      .cls-25 {
        fill: url(#linear-gradient-4);
      }

      .cls-26 {
        fill: url(#linear-gradient-30);
      }

      .cls-27 {
        fill: url(#linear-gradient-3);
      }

      .cls-28 {
        fill: url(#linear-gradient-34);
      }

      .cls-29 {
        clip-path: url(#clippath-1);
      }

      .cls-30 {
        fill: url(#linear-gradient-5);
      }

      .cls-31 {
        fill: url(#linear-gradient-22);
      }

      .cls-32 {
        fill: url(#linear-gradient-24);
      }

      .cls-33 {
        isolation: isolate;
      }

      .cls-34 {
        fill: url(#linear-gradient-33);
      }

      .cls-35 {
        fill: url(#linear-gradient-8);
      }

      .cls-36 {
        clip-path: url(#clippath-3);
      }

      .cls-17, .cls-37 {
        fill: #d8dee8;
      }

      .cls-38 {
        fill: url(#linear-gradient-14);
      }

      .cls-39 {
        fill: url(#linear-gradient-29);
      }

      .cls-40 {
        fill: url(#linear-gradient-20);
      }

      .cls-41 {
        fill: url(#linear-gradient-17);
      }

      .cls-42 {
        fill: url(#linear-gradient-7);
      }

      .cls-43 {
        fill: url(#linear-gradient-9);
      }

      .cls-44 {
        fill: url(#linear-gradient-11);
      }

      .cls-45 {
        fill: url(#linear-gradient-19);
      }

      .cls-46 {
        fill: url(#linear-gradient-6);
      }

      .cls-8 {
        opacity: .74;
      }

      .cls-9, .cls-22, .cls-19 {
        opacity: .5;
      }

      .cls-47 {
        fill: url(#linear-gradient-21);
      }

      .cls-48 {
        clip-path: url(#clippath-2);
      }

      .cls-49 {
        fill: url(#linear-gradient-32);
      }

      .cls-50 {
        fill: #fcfdfe;
      }

      .cls-51 {
        fill: url(#linear-gradient);
      }

      .cls-52 {
        fill: url(#linear-gradient-23);
      }

      .cls-53 {
        fill: url(#linear-gradient-31);
      }

      .cls-54 {
        clip-path: url(#clippath);
      }

      .cls-55 {
        fill: url(#linear-gradient-18);
      }

      .cls-56 {
        fill: #f4f7fa;
      }</style><clipPath id="clippath"><rect class="cls-24" x="299.68" y="2.25" width="346.97" height="378.89"/></clipPath><linearGradient id="linear-gradient" x1="471.17" y1="66.35" x2="327.35" y2="438.18" gradientUnits="userSpaceOnUse"><stop offset="0" stop-color="#e38ddd"/><stop offset="1" stop-color="#9571f6"/></linearGradient><clipPath id="clippath-1"><path class="cls-51" d="M334.25,433.18c-31.32-1.53-77.69-132.17-29.31-194.06,20.19-25.82,46.67-26.63,61.39-60.66,13.13-30.37-2.15-43.15,6.66-77.58,12.39-48.41,61.56-97.16,101.3-88.88,19.94,4.15,40.72,23.34,44.74,47.93,3.22,19.7-14.65,37.52-9.46,41.99,4.26,3.67,14.94-8.34,22.9-5.06,11.73,4.83,16.25,42.37,2.11,71.99-24.22,50.7-87.77,45.93-94.31,83.61-4.17,24.02,20.21,34.18,13.47,58.67-5.94,21.54-27.52,23.51-57.43,47.82-46.84,38.09-45.26,75.07-62.05,74.25Z"/></clipPath><linearGradient id="linear-gradient-2" x1="548.9" y1="239.68" x2="421.06" y2="382.67" gradientUnits="userSpaceOnUse"><stop offset="0" stop-color="#ffc444"/><stop offset="1" stop-color="#f36f56"/></linearGradient><clipPath id="clippath-2"><path class="cls-5" d="M369.83,375.95c11.14-55.99,29.43-95.31,43.48-120.06,11.03-19.43,28.45-45.75,44.52-43.22,7.7,1.21,9.45,8.17,17.63,9.1,15.44,1.76,24.72-21.26,40.39-34.24,26.82-22.21,84.14-24.79,111.26,6.43,32.66,37.6,7.92,108.58-23.2,120.56-18.44,7.1-40.59-5.95-45.73,2.69-5.18,8.7,16.25,23.62,11.66,39.13-4.75,16.06-33.68,20.24-35.42,20.47-34.89,4.66-49.72-21.6-83.61-26.94-18.38-2.89-45.11-.06-80.98,26.08Z"/></clipPath><linearGradient id="linear-gradient-3" x1="180.24" y1="73.74" x2="402.31" y2="73.74" gradientUnits="userSpaceOnUse"><stop offset="0" stop-color="#444b8c"/><stop offset="1" stop-color="#26264f"/></linearGradient><linearGradient id="linear-gradient-4" x1="204.7" y1="226.01" x2="495.33" y2="567.59" gradientUnits="userSpaceOnUse"><stop offset="0" stop-color="#ff9085"/><stop offset="1" stop-color="#fb6fbb"/></linearGradient><linearGradient id="linear-gradient-5" x1="281" y1="307.17" x2="421.53" y2="121.74" gradientUnits="userSpaceOnUse"><stop offset="0" stop-color="#aa80f9"/><stop offset="1" stop-color="#6165d7"/></linearGradient><clipPath id="clippath-3"><path class="cls-30" d="M247.26,285.48c-14.59-3.13-18.99,2.68-30.82-1.71-14.26-5.29-24.9-19.55-26.68-33.81-2.54-20.28,13.43-35.32,24.38-45.65,25.11-23.67,55.64-29.12,64.54-30.59,12.09-2,63.7-8.88,104.63,25.17,28.4,23.62,35.33,53.46,37.26,62.35,2.81,12.95,11.56,53.36-11.3,69.21-13.55,9.39-35.31,8.27-49.14.31-10.19-5.86-8.08-10.07-18.13-15.86-20.05-11.56-34.06,3.03-57.77-6-18.95-7.22-17.2-19.17-36.96-23.41Z"/></clipPath><linearGradient id="linear-gradient-6" x1="376.21" y1="177.52" x2="424.99" y2="243.48" xlink:href="#linear-gradient-4"/><linearGradient id="linear-gradient-7" x1="236.16" y1="206.19" x2="548.93" y2="573.79" xlink:href="#linear-gradient-4"/><linearGradient id="linear-gradient-8" x1="325.68" y1="212.61" x2="375.22" y2="279.6" xlink:href="#linear-gradient-4"/><linearGradient id="linear-gradient-9" x1="295.25" y1="233.12" x2="346.61" y2="302.57" xlink:href="#linear-gradient-4"/><linearGradient id="linear-gradient-10" x1="441.88" y1="403.88" x2="483.42" y2="522.11" xlink:href="#linear-gradient-2"/><linearGradient id="linear-gradient-11" x1="673.83" y1="469.41" x2="216.89" y2="544.82" xlink:href="#linear-gradient-2"/><linearGradient id="linear-gradient-12" x1="3307.51" y1="658.36" x2="3329.84" y2="658.36" gradientTransform="translate(3697.77) rotate(-180) scale(1 -1)" gradientUnits="userSpaceOnUse"><stop offset="0" stop-color="#311944"/><stop offset="1" stop-color="#893976"/></linearGradient><linearGradient id="linear-gradient-13" x1="3267.95" y1="667.45" x2="3294.41" y2="667.45" xlink:href="#linear-gradient-12"/><linearGradient id="linear-gradient-14" x1="3330.82" y1="596.03" x2="3274.64" y2="517.19" gradientTransform="translate(3697.77) rotate(-180) scale(1 -1)" xlink:href="#linear-gradient-3"/><linearGradient id="linear-gradient-15" x1="437.87" y1="330.74" x2="441.18" y2="460.99" gradientUnits="userSpaceOnUse"><stop offset=".4" stop-color="#6165d7"/><stop offset=".56" stop-color="#8a74ea"/><stop offset="1" stop-color="#aa80f9"/></linearGradient><linearGradient id="linear-gradient-16" x1="3284.18" y1="357.57" x2="3242.36" y2="395.88" gradientTransform="translate(3697.77) rotate(-180) scale(1 -1)" xlink:href="#linear-gradient-15"/><linearGradient id="linear-gradient-17" x1="3283.83" y1="603.26" x2="3172.74" y2="502.71" gradientTransform="translate(3697.77) rotate(-180) scale(1 -1)" xlink:href="#linear-gradient-3"/><linearGradient id="linear-gradient-18" x1="3274.49" y1="613.58" x2="3163.4" y2="513.03" gradientTransform="translate(3697.77) rotate(-180) scale(1 -1)" xlink:href="#linear-gradient-3"/><linearGradient id="linear-gradient-19" x1="3241.08" y1="370.55" x2="3156.12" y2="516.48" gradientTransform="translate(3697.77) rotate(-180) scale(1 -1)" xlink:href="#linear-gradient-15"/><linearGradient id="linear-gradient-20" x1="538.44" y1="387.66" x2="456.46" y2="528.47" xlink:href="#linear-gradient-15"/><linearGradient id="linear-gradient-21" x1="3286.86" y1="425.68" x2="3275.61" y2="441.48" gradientTransform="translate(3697.77) rotate(-180) scale(1 -1)" xlink:href="#linear-gradient-2"/><linearGradient id="linear-gradient-22" x1="3278.29" y1="422.12" x2="3253.39" y2="460.43" gradientTransform="translate(3697.77) rotate(-180) scale(1 -1)" xlink:href="#linear-gradient-2"/><linearGradient id="linear-gradient-23" x1="3191" y1="420.35" x2="3141.96" y2="563.03" gradientTransform="translate(3697.77) rotate(-180) scale(1 -1)" xlink:href="#linear-gradient-15"/><linearGradient id="linear-gradient-24" x1="446.79" y1="350.7" x2="433.37" y2="334.08" xlink:href="#linear-gradient-2"/><linearGradient id="linear-gradient-25" x1="7129.54" y1="-3476.2" x2="7128.67" y2="-3406.38" gradientTransform="translate(8283.57 -818.24) rotate(145.7) scale(1 -1)" xlink:href="#linear-gradient-2"/><linearGradient id="linear-gradient-26" x1="30.33" y1="539.15" x2="125.21" y2="539.15" xlink:href="#linear-gradient-2"/><linearGradient id="linear-gradient-27" x1="30.33" y1="539.15" x2="125.21" y2="539.15" xlink:href="#linear-gradient-2"/><linearGradient id="linear-gradient-28" x1="108.75" y1="410.93" x2="47.78" y2="436.54" gradientUnits="userSpaceOnUse"><stop offset="0" stop-color="#ebeff2"/><stop offset="1" stop-color="#fff"/></linearGradient><linearGradient id="linear-gradient-29" x1="131.12" y1="624.13" x2="145.3" y2="716.08" gradientUnits="userSpaceOnUse"><stop offset="0" stop-color="#d8dee8"/><stop offset="1" stop-color="#97a6b7"/></linearGradient><linearGradient id="linear-gradient-30" x1="121.53" y1="625.1" x2="217.74" y2="582.31" gradientUnits="userSpaceOnUse"><stop offset="0" stop-color="#d8dee8"/><stop offset="1" stop-color="#97a6b7"/></linearGradient><linearGradient id="linear-gradient-31" x1="160.88" y1="624.87" x2="239.6" y2="624.87" xlink:href="#linear-gradient-30"/><linearGradient id="linear-gradient-32" x1="402.19" y1="-61.4" x2="530.95" y2="196.99" xlink:href="#linear-gradient-3"/><linearGradient id="linear-gradient-33" x1="477.91" y1="108.32" x2="602.98" y2="340.27" xlink:href="#linear-gradient-15"/><linearGradient id="linear-gradient-34" x1="443.57" y1="123.73" x2="565.06" y2="367.55" xlink:href="#linear-gradient-15"/></defs><g class="cls-33"><g id="Capa_2" data-name="Capa 2"><g id="Layer_1" data-name="Layer 1"><g><path class="cls-56" d="M380.52.06c89.61,1.58,228.24,35.65,268.15,123.21,13.94,30.58,12.99,75.53,11.11,165.44-.55,26.43-1.47,64.94-7.93,112.73-13.42,99.28-22.55,166.86-57.12,206.22-86.62,98.61-399.51,95.76-533.12-81.77C-11.29,429.05-22.5,291.29,44.15,177.44,117.52,52.09,260.56-2.06,380.52.06Z"/><g class="cls-54"><g><g><path class="cls-51" d="M334.25,433.18c-31.32-1.53-77.69-132.17-29.31-194.06,20.19-25.82,46.67-26.63,61.39-60.66,13.13-30.37-2.15-43.15,6.66-77.58,12.39-48.41,61.56-97.16,101.3-88.88,19.94,4.15,40.72,23.34,44.74,47.93,3.22,19.7-14.65,37.52-9.46,41.99,4.26,3.67,14.94-8.34,22.9-5.06,11.73,4.83,16.25,42.37,2.11,71.99-24.22,50.7-87.77,45.93-94.31,83.61-4.17,24.02,20.21,34.18,13.47,58.67-5.94,21.54-27.52,23.51-57.43,47.82-46.84,38.09-45.26,75.07-62.05,74.25Z"/><g class="cls-29"><g class="cls-22"><path class="cls-7" d="M339.28,461.36c-.65.12-1.32-.18-1.65-.79-.29-.53-.24-1.16.08-1.63.11-.94-.2-4.05-.55-7.63-1.98-20.1-7.24-73.49,12.09-155.56,24.31-103.21,77.96-212.96,159.47-326.19.51-.7,1.49-.86,2.19-.36.7.51.86,1.48.36,2.19-87.57,121.65-188.32,303.61-170.99,479.61.78,7.96.93,9.4-.52,10.19-.15.08-.31.14-.47.17Z"/><path class="cls-7" d="M389.3,187.85c-.81.15-1.61-.37-1.8-1.18-.2-.84.32-1.69,1.16-1.88,69.3-16.4,111.44-36.21,134.6-49.93,25.07-14.86,33.88-25.99,33.97-26.1.53-.68,1.51-.81,2.2-.28.68.53.81,1.51.28,2.2-.36.47-9.11,11.58-34.57,26.72-23.36,13.89-65.87,33.91-135.75,50.45-.03,0-.05.01-.08.02Z"/><path class="cls-7" d="M421.4,115.2c-.32.06-.66.02-.97-.13-17.5-8.56-27.69-32.42-30.28-70.93-1.91-28.38,1.24-54.66,1.27-54.92.1-.86.89-1.47,1.74-1.36.86.1,1.47.89,1.36,1.74-.13,1.03-12.14,103.38,27.28,122.66.78.38,1.1,1.32.72,2.1-.23.46-.65.77-1.13.85Z"/><path class="cls-7" d="M347.03,316.04c-.45.08-.93-.03-1.3-.35-23.36-20.07-32.35-51.82-35.78-74.91-3.7-24.92-1.9-45.44-1.88-45.64.08-.86.84-1.5,1.7-1.42.86.08,1.5.84,1.42,1.7-.02.2-1.79,20.41,1.87,44.97,3.35,22.55,12.1,53.5,34.71,72.93.66.56.73,1.55.17,2.21-.24.28-.57.46-.91.52Z"/></g></g></g><g><path class="cls-5" d="M369.83,375.95c11.14-55.99,29.43-95.31,43.48-120.06,11.03-19.43,28.45-45.75,44.52-43.22,7.7,1.21,9.45,8.17,17.63,9.1,15.44,1.76,24.72-21.26,40.39-34.24,26.82-22.21,84.14-24.79,111.26,6.43,32.66,37.6,7.92,108.58-23.2,120.56-18.44,7.1-40.59-5.95-45.73,2.69-5.18,8.7,16.25,23.62,11.66,39.13-4.75,16.06-33.68,20.24-35.42,20.47-34.89,4.66-49.72-21.6-83.61-26.94-18.38-2.89-45.11-.06-80.98,26.08Z"/><g class="cls-48"><g class="cls-21"><g><path class="cls-50" d="M346.5,415.2l.79.37c56.52-121.4,178.94-196.12,327.48-199.87l-.02-.87c-70.4,1.78-137.46,20.27-193.95,53.49-59.38,34.92-105.82,85.71-134.3,146.88Z"/><path class="cls-50" d="M384.05,220.39c12.04,34.59,13.38,92.79,3,129.73l.84.23c10.42-37.08,9.07-95.51-3.01-130.25l-.82.29Z"/><path class="cls-50" d="M357.87,391.5l.66.57c13.1-15.04,33.3-22.88,60.04-23.3,19.61-.31,42.21,3.3,67.17,10.73l.25-.83c-25.05-7.46-47.74-11.08-67.43-10.77-27,.43-47.41,8.37-60.68,23.6Z"/><path class="cls-50" d="M489,263.92l.63.6c26.15-27.08,32.58-66.14,33.37-94.14l-.87-.02c-.78,27.85-7.17,66.68-33.12,93.56Z"/><path class="cls-50" d="M568.54,230.77l.08.87c42.24-3.82,79.93,19.85,98.65,34.3l.53-.69c-18.81-14.53-56.73-38.33-99.26-34.48Z"/></g></g></g></g></g></g><g><path class="cls-20" d="M482.72,87.27l-412.42-22.91c-9.5-.45-18.05,9.51-18.05,17.87v510c0,11.59,12.33,13.92,21.83,12.99l408.64-40.08c7.46-.73,13.49-7.29,13.49-14.65V101.24c0-7.36-6.03-13.61-13.49-13.96Z"/><path class="cls-37" d="M489.5,83.22L76.26,63.7c-9.5-.45-17.23,6.01-17.23,14.44v513.99c0,8.42,7.74,14.49,17.23,13.55l413.24-40.85c7.46-.74,13.49-7.35,13.49-14.77V97.3c0-7.42-6.03-13.72-13.49-14.07Z"/><path class="cls-8" d="M76.26,598.71c-5.12.5-9.3-2.79-9.3-7.33V78.48c0-4.54,4.18-8.04,9.3-7.81l413.24,18.75c4.04.18,7.31,3.6,7.31,7.61v453.62c0,4.01-3.28,7.6-7.31,7.99l-413.24,40.07Z"/><polygon class="cls-7" points="462.87 546.47 109.42 579.18 109.42 105.99 462.87 118.77 462.87 546.47"/><path class="cls-15" d="M321.5,121.09l-141.26,1.7,3.17-30.59c.24-3.97,3.23-7.24,7.17-7.82l23.92-3.53c2.82-.42,5.24-2.2,6.47-4.77l2.59-5.41,62.57,3.71,35.36,46.72Z"/><path class="cls-27" d="M396.93,101.24c-.67-3.46-3.56-5.89-7.2-6.05l-22.57-.97c-10.24-.44-17.75-8.43-17.38-18.56l.87-23.46c.16-4.34-3.07-7.82-7.5-8.07l-7.42-.43c-5.65-.32-9.42-5.11-8.63-10.65,1.39-9.67-5.52-18.02-15.52-18.68-10.08-.66-19.49,6.74-20.99,16.53-.22,1.46-.74,2.89-1.57,4.18-2.33,3.59-6.41,5.56-10.41,5.34l-7.65-.44c-4.64-.27-9.04,2.86-10.21,7.25l-6.36,23.81c-2.75,10.3-13.13,17.74-24.15,17.27l-24.76-1.07c-4.06-.17-8.03,2.1-9.9,5.65l-14.92,28.43c-1.22,2.33.28,4.84,2.95,4.93l214.72,6.85c2.35.07,4.34-2.18,3.91-4.41l-5.32-27.47ZM308.55,34.69c-2.96-.18-5.01-2.65-4.58-5.51.43-2.87,3.18-5.05,6.14-4.86,2.95.18,4.99,2.65,4.56,5.51-.43,2.86-3.17,5.04-6.12,4.86Z"/><path class="cls-20" d="M398.2,101.88c-.67-3.46-3.56-5.89-7.2-6.05l-22.57-.97c-10.24-.44-17.75-8.43-17.38-18.56l.87-23.46c.16-4.34-3.07-7.82-7.5-8.07l-7.42-.43c-5.65-.32-9.42-5.11-8.63-10.65,1.39-9.67-5.52-18.02-15.52-18.68-10.08-.66-19.49,6.74-20.99,16.53-.22,1.46-.74,2.89-1.57,4.18-2.33,3.59-6.41,5.56-10.41,5.34l-7.65-.44c-4.64-.27-9.04,2.86-10.21,7.25l-6.36,23.81c-2.75,10.3-13.13,17.74-24.15,17.27l-24.76-1.07c-4.06-.17-8.03,2.1-9.9,5.65l-14.92,28.43c-1.22,2.33.28,4.84,2.95,4.93l214.72,6.85c2.35.07,4.34-2.18,3.91-4.41l-5.32-27.47ZM309.82,35.32c-2.96-.18-5.01-2.65-4.58-5.51.43-2.87,3.18-5.05,6.14-4.86,2.95.18,4.99,2.65,4.56,5.51-.43,2.86-3.17,5.04-6.12,4.86Z"/><g><path class="cls-25" d="M423.56,494.88l-19.99-92.76c-3.5-20.55,3.41-41.88,18.49-57.27h0c8.28-8.45,13.47-19.27,14.63-30.72,1.81-17.86,1.59-46.93-10.36-82.48-16.05-47.73-65.84-78.29-119.29-72.33-27.23,3.04-59.5,10.39-94.07,25.88-20.2,9.05-34.18,27-36.4,47.76-1.04,9.67-2.96,20.38-6.45,29.93-4.41,12.04-6.33,20.3-7.12,25.66-.72,4.86,1.37,9.68,5.46,12.79h0c4.21,3.2,5.25,8.71,2.49,13.12l-30.95,49.47v1.58c0,4.88,4.2,8.77,9.59,8.9l18.66.43-.7,17.25c-.14,3.33,2.27,6.2,5.8,6.92l4.22.86-3.85,2.97c-3.14,2.43-3.97,6.49-1.94,9.55l5.44,8.21c2.46,3.71,2.1,8.53-.89,12.19h0c-4.97,6.07-5.98,13.96-2.63,20.46l1.52,2.95c7.01,13.61,23.58,20.37,39.95,16.38,18.39-4.48,41.67-11.12,57.49-19.1,4.47-2.26,9.61.51,9.61,5.13v47.02l141.31-10.75Z"/><g><path class="cls-30" d="M247.26,285.48c-14.59-3.13-18.99,2.68-30.82-1.71-14.26-5.29-24.9-19.55-26.68-33.81-2.54-20.28,13.43-35.32,24.38-45.65,25.11-23.67,55.64-29.12,64.54-30.59,12.09-2,63.7-8.88,104.63,25.17,28.4,23.62,35.33,53.46,37.26,62.35,2.81,12.95,11.56,53.36-11.3,69.21-13.55,9.39-35.31,8.27-49.14.31-10.19-5.86-8.08-10.07-18.13-15.86-20.05-11.56-34.06,3.03-57.77-6-18.95-7.22-17.2-19.17-36.96-23.41Z"/><g class="cls-36"><g><path class="cls-9" d="M363.44,252.62v-15.72c-2.05,1.92-4.58,2.82-7.09,2.5-2.72-.35-5.12-2.12-6.43-4.74-1.37-2.73-1.48-5.48-.32-7.52,1.1-1.93,3.23-3.1,6.02-3.3,3.21-.23,5.32.93,6.52,1.95.21.18.47.16.63.08.09-.04.3-.17.3-.45v-13.65l16.73.13c.82,0,1.55.42,1.97,1.1.4.65.43,1.44.1,2.12-.76,1.52-1.74,3.84-2.1,6.24-.22,1.48.25,2.86,1.35,3.98,1.71,1.74,4.73,2.67,7.5,2.32,1.82-.23,3.52-1.32,4.81-3.06,1.19-1.62,1.84-3.59,1.62-4.9-.16-.94-.97-2.34-2.34-4.05h0c-.54-.67-.64-1.57-.27-2.33.38-.78,1.16-1.27,2.05-1.27h.02l16.06.13v13.07c0,.35.19.66.51.83.33.18.72.16,1.03-.05,1.47-.99,3.73-2.08,6.15-1.7,4.73.75,6.05,3.15,6.83,7.33.37,2.01-1.21,4.56-3.86,6.2-3.1,1.93-6.49,1.92-9.08-.01-.38-.28-.8-.24-1.08-.1-.32.16-.5.45-.5.8v13.89l-16,.06h0c-.88,0-1.65-.45-2.06-1.2-.4-.73-.37-1.59.08-2.3,1.97-3.08,2.36-6.07,1.1-8.4-1.08-2-3.26-3.26-5.68-3.29-.04,0-.08,0-.12,0-3.49,0-6.33,1.7-7.84,3.31-1.11,1.18-1.7,2.47-1.62,3.54.09,1.2.77,2.91,1.98,4.94.42.71.43,1.55.02,2.26-.42.74-1.19,1.19-2.07,1.19l-14.9.06ZM364.32,234.65v17.09l14.01-.05c.55,0,1.04-.28,1.31-.74.25-.44.25-.94-.01-1.38-1.29-2.18-2-3.98-2.1-5.33-.1-1.31.58-2.84,1.86-4.21,2.14-2.28,5.38-3.59,8.61-3.59,2.75.03,5.22,1.47,6.45,3.75,1.42,2.63,1.02,5.93-1.14,9.29-.28.43-.3.95-.05,1.4.26.47.74.74,1.29.74h0l15.13-.06v-13.01c0-.68.37-1.28.99-1.59.64-.32,1.41-.25,2,.18,2.29,1.71,5.31,1.7,8.09-.03,2.31-1.43,3.76-3.66,3.46-5.29-.82-4.41-2.3-6.02-6.1-6.62-2.14-.33-4.18.66-5.52,1.56-.58.39-1.32.42-1.93.1-.61-.33-.97-.92-.97-1.6v-12.2l-15.19-.12h-.01c-.56,0-1.03.29-1.26.77-.23.46-.16.99.17,1.4h0c1.49,1.85,2.34,3.35,2.53,4.45.26,1.54-.45,3.77-1.78,5.57-1.43,1.93-3.34,3.14-5.4,3.41-3.04.4-6.35-.64-8.24-2.57-1.3-1.33-1.85-2.96-1.59-4.73.37-2.51,1.39-4.92,2.18-6.51.2-.41.18-.87-.06-1.27-.26-.42-.72-.68-1.23-.68l-15.85-.12v12.76c0,.54-.31,1.02-.81,1.25-.52.24-1.13.16-1.57-.21-1.08-.91-2.98-1.95-5.89-1.74-2.48.18-4.37,1.19-5.31,2.86-1.02,1.79-.89,4.23.34,6.69,1.18,2.35,3.33,3.94,5.76,4.26,2.58.34,5.09-.74,7.09-3.01l.77-.88Z"/><path class="cls-9" d="M388.29,307.01c-.12,0-.23,0-.34-.02-2.79-.27-6.34-1.49-7.97-3.62-.77-1.01-1.06-2.14-.85-3.35.28-1.62.98-3.35,2.09-5.15.23-.38.24-.83.03-1.21-.23-.4-.64-.63-1.13-.62l-16.19.25v-15.54c0-.53.3-1,.78-1.25.49-.25,1.07-.2,1.51.12,1.4,1.04,3.39,1.57,5.79,1.54,3.09-.04,6.07-2.33,6.77-5.22.6-2.44-.61-4.67-3.31-6.11-6.96-3.71-11.22.88-11.26.93l-.77.85v-16.88l14.89-.06c.55,0,1.04-.28,1.31-.74.25-.44.25-.94-.01-1.38-1.29-2.18-2-3.98-2.1-5.33-.1-1.31.58-2.84,1.86-4.21,2.14-2.28,5.38-3.59,8.61-3.59,2.75.03,5.22,1.47,6.45,3.75,1.42,2.63,1.02,5.93-1.14,9.29h0c-.28.43-.3.95-.05,1.4.26.47.74.74,1.29.74h0l16.01-.06v12.29c0,.32.16.6.45.76.32.18.71.17,1.04-.02,1.72-1.03,3.74-1.24,6.02-.64,6.16,1.63,5.84,5.73,4.78,10.91-.4,1.97-1.72,3.51-3.61,4.23-2.29.87-5.02.42-7.12-1.16-.29-.22-.67-.25-1.01-.08-.34.17-.55.49-.55.86v13.87l-15.03.24c-.49,0-.94.28-1.16.71-.2.39-.18.81.06,1.16,2.4,3.48,1.69,6.29.67,8.03-1.54,2.63-4.72,4.3-6.81,4.3ZM380.14,292.17c.79,0,1.49.4,1.87,1.07.38.66.36,1.45-.04,2.1-1.05,1.7-1.71,3.33-1.97,4.84-.17.96.07,1.85.68,2.66,1.46,1.91,4.83,3.04,7.35,3.28,1.6.14,4.77-1.24,6.3-3.86.89-1.52,1.51-3.98-.63-7.08-.43-.62-.47-1.39-.12-2.06.37-.72,1.11-1.18,1.93-1.19l14.17-.22v-13c0-.7.4-1.33,1.04-1.64.63-.32,1.37-.25,1.93.16,1.86,1.4,4.26,1.8,6.27,1.04,1.63-.62,2.71-1.89,3.06-3.58,1.18-5.76.86-8.56-4.14-9.89-2.04-.54-3.84-.36-5.34.54-.6.36-1.33.37-1.92.03-.56-.32-.89-.89-.89-1.53v-11.4l-15.12.06h0c-.88,0-1.65-.45-2.06-1.2-.4-.73-.37-1.59.08-2.3,1.97-3.08,2.36-6.07,1.1-8.4-1.08-2-3.26-3.26-5.68-3.29-.04,0-.08,0-.12,0-3.49,0-6.33,1.7-7.84,3.31-1.11,1.18-1.7,2.47-1.62,3.54.09,1.2.77,2.91,1.98,4.94.42.71.43,1.55.02,2.26-.42.74-1.19,1.19-2.07,1.19l-14.02.05v13.89c1.63-1.25,5.76-3.54,11.56-.44,3.08,1.64,4.45,4.23,3.75,7.09-.8,3.27-4.14,5.86-7.62,5.9-2.58.04-4.74-.55-6.32-1.71-.17-.13-.39-.14-.59-.04-.19.09-.3.27-.3.46v14.64l15.3-.24h.04Z"/><path class="cls-9" d="M317.05,294.04v-15.77c0-.66.36-1.26.97-1.59.62-.34,1.38-.32,1.97.06,1.54.99,3.88,2.05,6.27,1.45,1.98-.49,3.71-2.03,5.16-4.58.74-1.31.75-2.78.03-4.14-1.08-2.04-3.57-3.45-6.5-3.69-2.8-.23-4.82.43-6.02,1.03-.6.3-1.29.26-1.86-.09-.54-.33-.86-.9-.86-1.52v-13.73l17.12-.06h.01c.87,0,1.65.43,2.09,1.15.41.67.44,1.49.07,2.19-.86,1.65-1.39,3.46-1.55,5.38-.17,1.9.36,3.49,1.57,4.73,1.61,1.65,4.35,2.53,7.32,2.34,2.19-.14,4.57-1.9,5.65-4.18,1.14-2.42.77-5.12-1.03-7.61-.5-.69-.57-1.56-.18-2.32.41-.8,1.23-1.31,2.16-1.31l14.9-.06v14.77c1.63-1.25,5.76-3.54,11.56-.44,3.08,1.64,4.45,4.23,3.75,7.09-.8,3.27-4.14,5.86-7.62,5.9-2.58.04-4.74-.55-6.32-1.71-.17-.13-.39-.14-.59-.04-.19.09-.3.27-.3.46v15.53l-15.94.25h-.04c-.79,0-1.52-.41-1.91-1.08-.37-.65-.36-1.43.03-2.07.8-1.32,1.75-3.34,1.75-5.5,0-4.41-3.53-7.32-6.8-7.48-1.99-.09-4.99,1.28-7.09,3.29-1.3,1.24-2.04,2.52-2.04,3.52,0,1.74,1.26,4.47,2.31,6.46.34.64.32,1.4-.05,2.02-.4.67-1.11,1.08-1.91,1.1l-16.07.25ZM318.95,277.32c-.17,0-.35.04-.52.13-.32.17-.51.48-.51.82v14.87l15.17-.24c.49,0,.93-.26,1.17-.66.22-.37.23-.79.03-1.16-1.1-2.07-2.41-4.95-2.41-6.87,0-1.26.82-2.73,2.32-4.16,2.3-2.19,5.5-3.64,7.74-3.53,4.21.2,7.64,3.95,7.64,8.35,0,1.9-.63,3.91-1.88,5.96-.23.37-.23.8-.02,1.18.23.4.66.64,1.14.64,0,0,.02,0,.02,0l15.08-.24v-14.66c0-.53.3-1,.78-1.25.49-.25,1.07-.2,1.51.12h0c1.4,1.04,3.39,1.57,5.79,1.54,3.09-.04,6.07-2.33,6.77-5.22.6-2.44-.61-4.67-3.31-6.11-6.96-3.71-11.22.88-11.26.93l-.77.85v-16l-14.02.05c-.59,0-1.12.32-1.38.83-.23.46-.19.99.11,1.4,2,2.76,2.4,5.78,1.12,8.5-1.23,2.6-3.85,4.53-6.39,4.69-3.23.19-6.22-.77-8.01-2.6-1.38-1.41-2.01-3.29-1.82-5.42.18-2.04.73-3.96,1.65-5.71.22-.43.21-.91-.04-1.33-.28-.45-.78-.73-1.33-.73h0l-16.25.06v12.85c0,.31.16.6.45.77.3.19.68.21,1,.05,1.86-.92,4.1-1.31,6.48-1.12,3.23.26,5.99,1.85,7.21,4.15.87,1.64.85,3.41-.04,4.99-1.57,2.77-3.5,4.45-5.71,4.99-2.69.67-5.27-.48-6.96-1.57-.17-.11-.36-.16-.55-.16Z"/><path class="cls-9" d="M455.05,213.41l-15.19-.12c-.85,0-1.61-.48-2-1.22-.38-.74-.32-1.58.16-2.25,1.02-1.45,1.74-2.83,2.12-4.1.37-1.22.03-2.67-.94-4.09-1.47-2.14-4.1-3.74-6.39-3.9-1.98-.14-4.2.73-5.93,2.34-1.27,1.18-2.03,2.55-2.03,3.67,0,1.26.59,3.57,1.66,6.51.25.68.15,1.41-.27,2-.42.59-1.11.94-1.84.94h-.02l-14.71-.12v-14.33c0-.68.38-1.29,1-1.6.64-.32,1.4-.25,1.98.18,1.86,1.4,4.05,1.88,6,1.31,1.68-.49,2.94-1.67,3.56-3.33.98-2.62.96-5.01-.05-6.71-.82-1.39-2.3-2.27-4.28-2.55h0c-4.82-.69-7.39,2.66-7.42,2.69l-.79,1.06v-17l15.12-.24c.77,0,1.5.36,1.94.99.42.61.51,1.37.24,2.05-.77,1.92-1.68,4.75-1.68,7.29,0,1.93,1.16,3.13,2.13,3.78,2.03,1.38,5.1,1.68,7.47.74,1.74-.69,3.24-2.41,3.9-4.49.73-2.27.38-4.68-.98-6.79-.46-.71-.49-1.56-.09-2.27.4-.71,1.11-1.11,1.96-1.11l14.38.28v.43c0,3.5.03,8,.06,11.16,0,.34.19.62.5.76.25.12.64.14.96-.13,1.68-1.41,5.06-3.16,8.91.99,3.41,3.67,3.02,9.1.7,12.01-2.1,2.64-5.4,3.03-8.85,1.05-.29-.17-.63-.17-.91,0-.26.15-.41.41-.41.71v13.41ZM432.39,196.83c.16,0,.32,0,.48.02,2.58.18,5.41,1.91,7.05,4.28,1.13,1.64,1.51,3.36,1.06,4.84-.41,1.37-1.17,2.84-2.25,4.36-.28.4-.32.9-.09,1.34.24.46.69.74,1.22.74l14.3.11v-12.52c0-.61.32-1.16.85-1.47.56-.32,1.22-.32,1.79,0,3.08,1.77,5.89,1.47,7.72-.83,2.1-2.64,2.34-7.64-.65-10.87-2.56-2.75-5.15-3.06-7.7-.92-.53.45-1.26.55-1.9.26-.62-.28-1.01-.88-1.01-1.56-.03-3.03-.06-7.3-.06-10.74l-13.52-.27c-.5-.03-.94.24-1.18.66-.24.43-.22.94.06,1.37,1.5,2.33,1.88,5.01,1.07,7.53-.74,2.32-2.44,4.25-4.42,5.04-2.67,1.06-5.99.73-8.29-.83-1.62-1.1-2.51-2.7-2.51-4.51,0-2.68.95-5.62,1.74-7.62.16-.41.11-.85-.15-1.22-.27-.39-.73-.6-1.2-.61l-14.26.22v13.7c1.18-1.08,3.69-2.74,7.45-2.2h0c2.25.32,3.95,1.35,4.92,2.97,1.15,1.94,1.19,4.59.12,7.47-.71,1.9-2.22,3.31-4.14,3.87-2.22.65-4.69.12-6.78-1.46-.37-.28-.79-.23-1.06-.1-.32.16-.51.46-.51.81v13.46l13.83.11h.01c.46,0,.86-.21,1.12-.57.25-.35.3-.78.16-1.19-.78-2.14-1.71-5.06-1.71-6.81,0-1.35.86-2.96,2.31-4.31,1.76-1.64,4.01-2.59,6.11-2.59Z"/><path class="cls-9" d="M363.94,212.66l-14.65-.11c-.94,0-1.76-.53-2.15-1.37-.36-.77-.25-1.62.3-2.27.93-1.11,1.43-2.3,1.5-3.55.22-4.28-3.22-8.28-7.53-8.74-2.36-.26-4.93.75-6.69,2.61-1.36,1.44-1.99,3.19-1.73,4.8.27,1.64.92,3.4,1.93,5.25.38.69.36,1.5-.04,2.17-.42.71-1.18,1.13-2.03,1.13h-.02l-16.99-.13v-14.41c0-.31-.16-.59-.43-.77-.3-.2-.67-.24-.99-.11-3.28,1.33-9.06,2.92-10.9-1.31-1.48-3.4-1.43-7.3.14-9.94.95-1.6,2.39-2.57,4.04-2.72,2.51-.22,4.98.92,6.61,1.91h0c.33.2.72.21,1.06.02.3-.17.48-.46.48-.78v-13.91l17,.23c.78.01,1.51.39,1.95,1.01.41.59.52,1.3.3,1.97-.53,1.57-1.25,3.92-1.63,6.22-.28,1.66.47,3.46,2.05,4.95,1.74,1.64,4.09,2.47,5.84,2.06,3.76-.87,8.01-3.39,7.58-7.65-.15-1.52-.82-3.01-1.99-4.45-.54-.66-.65-1.55-.28-2.31.39-.81,1.21-1.27,2.14-1.28l15.12.3v14.55c0,.26.18.39.26.44.18.11.4.12.58.02,2.59-1.37,7.6-3.24,12.05-.37,1.46.94,2.16,2.58,1.98,4.62-.29,3.31-2.81,6.77-5.87,8.06-1.89.79-4.82,1.18-8.1-1.52-.21-.17-.45-.15-.61-.07-.09.04-.29.17-.29.44v15.02ZM340.68,195.7c.28,0,.55.01.83.04,4.84.52,8.57,4.86,8.31,9.66-.08,1.45-.65,2.82-1.7,4.07-.32.38-.39.87-.17,1.33.19.41.64.85,1.36.85l13.76.11v-14.13c0-.53.31-1.01.8-1.24.51-.24,1.11-.17,1.54.19,2.94,2.41,5.54,2.08,7.2,1.38,2.78-1.17,5.07-4.31,5.33-7.32.15-1.7-.41-3.05-1.58-3.8-4.07-2.63-8.74-.87-11.16.41-.46.24-1,.23-1.44-.04-.43-.26-.69-.71-.69-1.19v-13.69l-14.26-.28s-.02,0-.03,0c-.57,0-1.06.3-1.3.79-.22.46-.16.97.17,1.37,1.28,1.58,2.02,3.23,2.19,4.92.48,4.83-4.15,7.65-8.26,8.6-2.05.47-4.66-.42-6.64-2.28-1.8-1.69-2.64-3.78-2.32-5.74.39-2.35,1.12-4.75,1.66-6.36.13-.4.07-.83-.18-1.18-.28-.4-.74-.63-1.24-.64l-16.1-.22v13.01c0,.65-.35,1.23-.92,1.55-.61.34-1.35.33-1.95-.03h0c-1.52-.93-3.81-1.98-6.08-1.78-1.75.16-2.8,1.33-3.36,2.29-1.43,2.4-1.46,5.99-.09,9.14,1.54,3.54,6.78,2.05,9.77.85.6-.24,1.28-.17,1.82.19.51.35.82.91.82,1.5v13.53l16.11.13c.54-.02,1.02-.26,1.29-.7.24-.4.25-.88.02-1.3-1.06-1.93-1.74-3.79-2.03-5.53-.31-1.88.4-3.9,1.95-5.55,1.75-1.85,4.21-2.93,6.6-2.93Z"/><path class="cls-46" d="M364.99,186.87c2.4-1.27,7.31-3.16,11.61-.39,5.59,3.61-2.8,17.57-11.47,10.45-.64-.53-1.62-.09-1.62.71v14.58l16.29.13c1.37.01,2.27,1.39,1.68,2.58-.83,1.67-1.78,3.98-2.14,6.37-.69,4.62,4.79,7.38,9.34,6.8,4.54-.59,7.25-5.83,6.8-8.46-.21-1.22-1.31-2.85-2.43-4.25-.95-1.18-.09-2.89,1.45-2.88l15.63.12v-13.89c0-1.14,1.34-1.77,2.27-1.07,3.91,2.95,8.77,1.73,10.24-2.22,1.78-4.76.45-9.12-4.68-9.85-5.14-.74-7.83,2.87-7.83,2.87v-15.24l-15.69.25c-1.5.02-2.43-1.6-1.61-2.8,1.05-1.53,2.12-3.57,2.43-5.81.68-4.8-3.4-9.29-7.71-9.39-4.32-.11-9.57,3.51-8.43,9.48.41,2.17.91,3.73,1.37,4.83.5,1.19-.41,2.45-1.73,2.43l-15.25-.3v14.12c0,.73.82,1.2,1.48.85Z"/><path class="cls-9" d="M293.64,228.23c-2.6,0-4.96-.84-6.64-2.41-1.71-1.59-2.58-3.76-2.47-6.13.09-1.94.54-3.81,1.34-5.55.18-.4.15-.85-.1-1.23-.28-.44-.78-.71-1.34-.72l-14.68-.11v-12.83c0-.83.41-1.57,1.12-2.05.77-.51,1.74-.59,2.6-.23,3.16,1.34,7.63,1.42,9.67-.76,1.48-1.58,1.39-4.12-.25-7.35-1.44-2.83-3.08-4.59-4.88-5.23-1.34-.48-2.78-.34-4.28.42h0c-.87.44-1.92.4-2.75-.11-.77-.47-1.23-1.27-1.23-2.13v-12.53l15.68.22c1.03.01,1.94.57,2.39,1.46.41.82.34,1.74-.2,2.48-1.51,2.09-2.36,4.08-2.45,5.76-.08,1.46.51,2.86,1.69,4.06,1.8,1.83,4.81,2.97,7.48,2.88,1.9-.08,3.68-.94,5.03-2.43,1.36-1.5,2.08-3.45,1.97-5.34-.08-1.32-.65-2.75-1.71-4.26-.55-.78-.62-1.74-.18-2.55.44-.83,1.31-1.31,2.32-1.33l14.97.21v13.89c0,.65-.35,1.23-.92,1.55-.61.34-1.35.33-1.95-.03-1.52-.93-3.81-1.98-6.08-1.78-1.75.16-2.8,1.33-3.36,2.29-1.43,2.4-1.46,5.99-.09,9.14,1.54,3.54,6.78,2.05,9.77.85.6-.24,1.28-.17,1.82.19.51.35.82.91.82,1.5v14.41l-16.45-.13h-.01c-.59,0-1.1.3-1.35.79-.23.46-.19.96.12,1.38,1.78,2.42,2.84,4.18,3.16,5.23.45,1.46.09,3.39-.9,4.92-.88,1.36-2.67,3.07-6.17,3.49-.5.06-1,.09-1.49.09ZM270.64,211.21l13.81.11c.85,0,1.63.43,2.07,1.12.41.64.46,1.39.16,2.07-.75,1.64-1.17,3.4-1.26,5.23-.1,2.1.67,4.03,2.19,5.44,1.8,1.68,4.51,2.44,7.42,2.09,3.16-.38,4.75-1.9,5.54-3.1,1.04-1.61,1.08-3.25.8-4.18-.29-.94-1.34-2.66-3.03-4.97-.51-.69-.58-1.55-.19-2.3.4-.79,1.24-1.25,2.16-1.27l15.56.12v-13.53c0-.31-.16-.59-.43-.77-.3-.2-.67-.24-.99-.11-3.28,1.33-9.06,2.92-10.9-1.31-1.48-3.4-1.43-7.3.14-9.94.95-1.6,2.39-2.57,4.04-2.72,2.51-.22,4.98.92,6.61,1.91.33.2.72.21,1.06.02.3-.17.48-.46.48-.78v-13.03l-14.1-.19c-.67-.04-1.24.31-1.53.86-.28.52-.23,1.13.13,1.64,1.16,1.64,1.79,3.23,1.87,4.72.12,2.12-.68,4.3-2.19,5.98-1.51,1.67-3.52,2.63-5.65,2.72-2.91.11-6.17-1.14-8.14-3.14-1.36-1.38-2.03-3.01-1.94-4.72.1-1.88.98-3.97,2.61-6.23.34-.47.39-1.05.12-1.57-.3-.59-.91-.96-1.61-.97l-14.78-.21v11.63c0,.56.29,1.07.81,1.38.57.35,1.3.38,1.9.08,1.72-.88,3.39-1.03,4.97-.47,2.02.72,3.82,2.63,5.37,5.66,2.3,4.53,1.33,7.04.11,8.35-2.38,2.55-7.27,2.4-10.65.97-.59-.25-1.25-.19-1.77.15-.46.31-.73.78-.73,1.31v11.96Z"/><path class="cls-42" d="M319.74,277.11c2.92,1.87,8.1,3.67,12.05-3.27,2.05-3.61-1.17-8.03-6.82-8.48-2.8-.23-4.87.39-6.25,1.07-.95.47-2.08-.2-2.08-1.21v-13.29l-15.56.06c-1.55,0-2.52-1.58-1.74-2.84,5.36-8.75-3.3-12.47-5.47-12.32-2.4.17-9.87,1.41-9.87,6.61,0,2.36.74,4.35,1.56,5.82.71,1.28-.25,2.81-1.79,2.82l-13.65.05v12.88c0,1.46-1.56,2.48-3.02,1.97-2.08-.73-5.03-1.44-8.14-1.17-5.89.5-7.36,8.19-3.92,12.08,2.53,2.87,7.22.72,10.76-.95,1.47-.69,3.19.31,3.19,1.84v15.59l17.06-.27c1.43-.02,2.3,1.43,1.55,2.58-.93,1.43-1.94,3.28-2.4,5.13-.97,3.86,4.34,6.49,8.66,6.62,4.31.13,7.42-2.86,7.66-7.59.09-1.79-.53-3.21-1.35-4.28-.84-1.11.02-2.67,1.48-2.7l15.82-.25v-15.32c0-1.1,1.3-1.77,2.25-1.16Z"/><path class="cls-35" d="M318.51,226.04c1.62-.97,4.14-1.77,7.59-.88,6.58,1.7,6.23,7.39,4.94,10.18-1.09,2.35-7.53,5.1-12.08,1.96-.96-.66-2.31-.04-2.31,1.09v13.53l16.68-.06c1.46,0,2.43,1.45,1.77,2.7-.71,1.36-1.4,3.22-1.6,5.54-.47,5.36,4.45,7.85,9.36,7.55,4.24-.26,9.53-6.18,4.94-12.49-.89-1.23.05-2.92,1.62-2.93l14.46-.06v-16.36c-4.47,5.09-11.02,3.76-13.57-1.34-2.56-5.11-.46-9.77,5.33-10.19,2.98-.22,4.97.8,6.21,1.84.65.54,1.65.12,1.65-.7v-13.2l-14.2-.11c-1.56-.01-2.49-1.75-1.52-2.91.85-1.01,1.52-2.28,1.6-3.82.23-4.44-3.26-8.7-7.92-9.2-4.68-.5-9.6,3.67-8.9,7.92.33,2.01,1.18,3.93,1.98,5.39.66,1.22-.26,2.66-1.7,2.65l-16.55-.13v12.86c0,1.08,1.25,1.74,2.22,1.17Z"/><path class="cls-43" d="M273.47,225.65c1.1-.54,2.45-1.02,3.96-1.25,8.44-1.27,7.3,8.5,2.95,12.41-2.22,1.99-4.83,1.33-6.87.19-1.5-.83-3.39.14-3.39,1.77v13.36l13.65-.05c1.54,0,2.5-1.54,1.79-2.82-.81-1.47-1.56-3.47-1.56-5.82,0-5.2,7.47-6.45,9.87-6.61,2.18-.15,10.84,3.56,5.47,12.32-.78,1.27.19,2.85,1.74,2.84l15.56-.06v-13.53c0-1.13,1.35-1.76,2.31-1.09,4.55,3.14,10.99.39,12.08-1.96,1.29-2.79,1.64-8.48-4.94-10.18-3.45-.89-5.97-.09-7.59.88-.96.57-2.22-.09-2.22-1.17v-12.86l-16.01-.12c-1.58-.01-2.5,1.65-1.6,2.87,1.29,1.75,2.72,3.88,3.1,5.1.72,2.34-.72,7.12-6.7,7.85-6.01.73-10.34-3.05-10.1-7.99.11-2.22.69-4.05,1.3-5.39.55-1.21-.43-2.56-1.83-2.57l-14.24-.11v12.15c0,1.57,1.78,2.57,3.27,1.85Z"/><path class="cls-9" d="M246.36,309.8c-2.95,0-7.83-.82-10.13-3.19-.96-.99-1.42-2.16-1.35-3.49.1-2.02.74-4,1.89-5.88.25-.4.26-.85.04-1.24-.24-.43-.7-.68-1.24-.68,0,0-.02,0-.03,0l-16.25.26v-16.36c0-.74.37-1.42,1.02-1.85.71-.47,1.6-.56,2.38-.23,2.53,1.05,7.05,2.52,8.84.69,1.68-1.72,2.41-5.35,1.66-8.25-.49-1.89-1.54-3.17-2.96-3.59-2.39-.72-5.34.35-7.39,1.38-.79.39-1.73.35-2.47-.1-.67-.41-1.07-1.11-1.07-1.87v-14.02l16.6-.06c.6,0,1.14-.29,1.44-.76.26-.4.29-.88.09-1.3-1.33-2.83-2.56-6.81-.89-9.64,1.12-1.9,3.36-2.97,6.68-3.2,6.07-.43,8.6,1.55,9.66,3.28,1.51,2.47,1.08,6.15-1.16,9.85-.27.45-.28.96-.03,1.41.28.5.82.8,1.44.8h0l17.44-.07v13.32c0,.81-.39,1.55-1.08,2.03-.73.52-1.67.65-2.52.35-1.92-.67-4.86-1.42-7.95-1.15-3.01.26-4.3,2.4-4.81,3.66-1.03,2.58-.55,5.74,1.18,7.69,2.36,2.67,6.92.52,10.24-1.06.86-.41,1.85-.35,2.64.16.73.46,1.17,1.24,1.17,2.08v16.02l-17.08.27c-.57,0-1.06.31-1.3.78-.21.42-.16.88.13,1.26,2.97,3.93,2.6,6.82,1.76,8.55-1.35,2.78-4.47,4.09-6.25,4.13-.11,0-.22,0-.34,0ZM235.56,294.44c.86,0,1.6.42,2.01,1.12.38.67.36,1.47-.05,2.14-1.08,1.75-1.67,3.59-1.76,5.46-.05,1.07.32,2.02,1.11,2.83,2.2,2.25,7.07,2.97,9.82,2.92,1.52-.03,4.31-1.21,5.48-3.64,1.05-2.17.47-4.81-1.67-7.64-.49-.64-.57-1.46-.22-2.18.38-.78,1.17-1.26,2.07-1.28l16.21-.25v-15.15c0-.54-.28-1.03-.76-1.34-.54-.34-1.21-.38-1.8-.11h0c-3.38,1.6-8.48,4.01-11.28.84-1.94-2.19-2.49-5.73-1.33-8.6.98-2.46,3.01-3.99,5.55-4.21,3.26-.28,6.32.5,8.32,1.2.58.2,1.23.11,1.72-.24.45-.32.71-.8.71-1.32v-12.43l-16.56.06h-.01c-.94,0-1.76-.46-2.2-1.24-.41-.72-.39-1.58.04-2.3,2.06-3.41,2.49-6.75,1.16-8.94-1.33-2.18-4.39-3.17-8.84-2.87-3.01.21-5.02,1.14-5.98,2.77-1.47,2.5-.3,6.17.93,8.82.33.7.28,1.48-.14,2.15-.46.73-1.28,1.17-2.18,1.17l-15.72.06v13.14c0,.46.24.86.65,1.12.48.3,1.1.32,1.61.06,2.19-1.1,5.36-2.24,8.04-1.44,1.73.52,2.99,2.02,3.56,4.22.83,3.22.03,7.13-1.88,9.09-2.04,2.1-6.46.89-9.8-.49-.51-.21-1.1-.16-1.56.15-.4.27-.63.68-.63,1.12v15.46l15.36-.24h.04Z"/><path class="cls-9" d="M253.11,252.63c-.94,0-1.76-.46-2.2-1.24-.41-.72-.39-1.58.04-2.3,2.06-3.41,2.49-6.75,1.16-8.94-1.33-2.18-4.39-3.17-8.84-2.87-3.01.21-5.02,1.14-5.98,2.77-1.47,2.5-.3,6.17.93,8.82h0c.33.7.28,1.48-.14,2.15-.46.73-1.28,1.17-2.18,1.17l-16.6.06v-13.87c0-.5-.28-.93-.75-1.18-.44-.23-1.13-.32-1.75.12-3.27,2.3-8.03,3.82-11.3,2.03-1.55-.85-3.35-2.82-3.16-7.41.12-2.9,1.06-4.96,2.79-6.11,2.83-1.89,7.1-.92,10.18.21.52.19,1.1.12,1.54-.18.37-.26.59-.65.59-1.08v-13.98l17.57.14c.93,0,1.74.48,2.17,1.25.39.72.37,1.56-.06,2.26-1.06,1.71-1.6,3.38-1.6,4.96,0,1.71.98,3.55,2.68,5.05,2.19,1.92,5.14,2.91,7.71,2.58,2.97-.38,5.52-1.76,6.81-3.69.79-1.17,1.03-2.45.7-3.69-.36-1.34-1.37-3.02-2.92-4.84-.58-.68-.71-1.59-.34-2.38.4-.85,1.26-1.33,2.24-1.36l18.25.14v12.59c0,.55.28,1.05.78,1.36.56.35,1.26.39,1.86.1,1.34-.65,2.71-1.08,4.09-1.29,4.09-.61,5.67,1.34,6.24,2.56,1.41,2.99.04,7.94-2.93,10.61-1.96,1.76-4.51,1.85-7.38.25-.6-.34-1.34-.33-1.92.01-.52.3-.81.8-.81,1.37v13.8l-17.44.07h-.01ZM244.8,236.35c4.93,0,7.1,1.77,8.06,3.34,1.51,2.47,1.08,6.15-1.16,9.85-.27.45-.28.96-.03,1.41.28.5.82.8,1.44.8h0l16.56-.06v-12.92c0-.88.47-1.67,1.25-2.13.85-.5,1.93-.51,2.8-.03,2.54,1.42,4.68,1.38,6.36-.13,2.66-2.39,3.96-6.95,2.72-9.58-.83-1.75-2.66-2.47-5.32-2.07-1.29.19-2.58.6-3.84,1.21-.88.42-1.89.37-2.71-.14-.75-.47-1.19-1.25-1.19-2.1v-11.72l-17.38-.13c-.62.03-1.19.32-1.44.85-.23.48-.15,1.02.21,1.44,1.66,1.95,2.7,3.7,3.1,5.19.4,1.49.11,3.02-.82,4.4-1.43,2.13-4.21,3.66-7.43,4.07-2.81.36-6.03-.71-8.4-2.79-1.89-1.67-2.98-3.75-2.98-5.71,0-1.75.58-3.57,1.73-5.42.27-.43.28-.93.04-1.37-.27-.49-.8-.79-1.41-.8l-16.68-.13v13.1c0,.72-.35,1.37-.96,1.8-.68.47-1.56.58-2.35.29-2.37-.87-6.73-2.08-9.39-.31-1.48.99-2.29,2.81-2.4,5.42-.14,3.32.77,5.54,2.7,6.6,2.92,1.6,7.43.09,10.37-1.98.79-.55,1.81-.62,2.66-.18.77.4,1.23,1.13,1.23,1.96v12.98l15.72-.06c.6,0,1.14-.29,1.44-.76.26-.4.29-.88.09-1.3-1.33-2.83-2.56-6.81-.89-9.64,1.12-1.9,3.36-2.97,6.68-3.2.56-.04,1.09-.06,1.59-.06Z"/><path class="cls-9" d="M388.67,346.95c-.16,0-.33,0-.49-.02-3.8-.35-6.75-1.63-8.09-3.49-.81-1.12-1.05-2.41-.73-3.83.71-3.08,2.18-6.13,2.87-7.45l-18.31.5v-15.71c0-.55.32-1.03.82-1.27.53-.25,1.14-.17,1.58.21,1.53,1.3,3.38,1.96,5.1,1.81,1.7-.14,3.25-1.03,4.59-2.64,2.01-2.4,2.69-4.87,1.86-6.78-.76-1.76-2.75-2.84-5.44-2.98-3.09-.16-5.04.94-6.13,1.89-.44.39-1.06.48-1.59.24-.5-.22-.81-.7-.81-1.24v-13.77l16.18-.26h.04c.79,0,1.49.4,1.87,1.07.38.66.36,1.45-.04,2.1-1.05,1.7-1.71,3.33-1.97,4.84-.17.96.07,1.85.68,2.66,1.46,1.91,4.83,3.04,7.35,3.28,1.6.14,4.77-1.24,6.3-3.86.89-1.52,1.51-3.98-.63-7.08-.43-.62-.47-1.39-.12-2.06.37-.72,1.11-1.18,1.93-1.19l15.05-.24v13.14c0,.6-.3,1.17-.81,1.51-.52.36-1.18.43-1.76.21-1.74-.68-4.98-1.79-7.39-1.79-.05,0-.1,0-.14,0-.89.02-1.64.44-2.24,1.26-1.54,2.09-1.7,6.17-.96,8.75.29,1.02,1.18,1.85,2.5,2.35,2.38.9,5.52.53,7.82-.94h0c.58-.37,1.31-.39,1.9-.07.58.32.93.9.93,1.56v14.15l-15.65.43c-.51.01-.83.34-.97.64-.07.16-.2.58.12.97,2.3,2.75,2.77,5.95,1.27,8.8-1.34,2.55-4.02,4.29-6.51,4.29ZM383.75,331.24l-.38.68s-2.26,4.02-3.15,7.89c-.27,1.17-.07,2.22.58,3.12,1.2,1.65,3.92,2.79,7.46,3.13,2.24.21,4.89-1.42,6.14-3.8.78-1.48,1.65-4.46-1.17-7.82-.45-.54-.54-1.25-.25-1.9.31-.69.98-1.13,1.74-1.16l14.79-.4v-13.29c0-.33-.18-.63-.47-.79-.32-.18-.69-.16-1,.04h0c-2.52,1.6-5.98,2.01-8.6,1.02-1.58-.6-2.66-1.64-3.03-2.93-.82-2.84-.63-7.18,1.09-9.52.76-1.03,1.78-1.59,2.93-1.61.05,0,.11,0,.16,0,2.42,0,5.52,1,7.71,1.85.31.12.67.08.94-.11.27-.18.42-.47.42-.79v-12.25l-14.15.22c-.49,0-.94.28-1.16.71-.2.39-.18.81.06,1.16,2.4,3.48,1.69,6.29.67,8.03-1.63,2.77-5.06,4.5-7.15,4.29-2.79-.27-6.34-1.49-7.97-3.62-.77-1.01-1.06-2.14-.85-3.35.28-1.62.98-3.35,2.09-5.15.23-.38.24-.83.03-1.21-.23-.4-.64-.63-1.13-.62l-15.31.24v12.91c0,.28.2.4.29.44.17.08.43.09.64-.1,1.21-1.06,3.37-2.28,6.75-2.11,3.04.16,5.3,1.44,6.2,3.51.97,2.23.24,5.04-1.99,7.7-1.5,1.79-3.25,2.78-5.19,2.95-1.95.17-4.04-.57-5.75-2.02-.21-.18-.47-.16-.64-.08-.09.04-.31.18-.31.47v14.81l18.94-.52Z"/><path class="cls-9" d="M317.05,333.83v-14.94c0-.32-.17-.6-.46-.77-.33-.19-.75-.17-1.09.03-4.24,2.63-7.93,2.73-10.39.28-2.25-2.23-3.06-5.26-2.17-8.11.85-2.72,3.07-4.7,5.79-5.19,2.92-.52,5.26.44,6.71,1.34.34.21.76.22,1.11.02.32-.18.5-.47.5-.81v-12.53l16.05-.25c.49,0,.93-.26,1.17-.66.22-.37.23-.79.03-1.16-1.1-2.07-2.41-4.95-2.41-6.87,0-1.26.82-2.73,2.32-4.16,2.3-2.19,5.5-3.64,7.74-3.53,4.21.2,7.64,3.95,7.64,8.35,0,1.9-.63,3.91-1.88,5.96-.23.37-.23.8-.02,1.18.23.4.66.64,1.14.64,0,0,.02,0,.02,0l15.96-.25v13.79c0,.28.2.4.29.44.17.08.43.09.64-.1,1.21-1.06,3.37-2.28,6.75-2.11,3.04.16,5.3,1.44,6.2,3.51.97,2.23.24,5.04-1.99,7.7-1.5,1.79-3.25,2.78-5.19,2.95-1.95.17-4.04-.57-5.75-2.02h0c-.21-.18-.47-.16-.64-.08-.09.04-.31.18-.31.47v15.69l-16.08.44c-.79,0-1.47-.39-1.79-1.08-.31-.69-.17-1.48.36-2.06,3.59-3.87,2.48-7.83,1.84-9.35-.99-2.35-2.91-4.03-4.66-4.07-3.39-.08-7.85,1.52-10.04,3.65-.96.93-1.44,1.9-1.44,2.87,0,1.84.94,4.51,2.64,7.51.32.56.31,1.23,0,1.8-.35.62-.99,1-1.72,1.02l-16.88.46ZM316.08,317.11c.32,0,.65.08.94.24.57.32.91.89.91,1.54v14.03l15.97-.43c.41-.01.78-.23.97-.57.17-.3.17-.64,0-.93-1.26-2.22-2.76-5.4-2.76-7.95,0-1.22.57-2.39,1.71-3.5,2.61-2.55,7.46-3.97,10.67-3.91,2.09.05,4.33,1.95,5.45,4.61,1.47,3.5.73,7.35-2.01,10.29-.3.32-.37.73-.21,1.09.17.37.53.61.96.56l15.23-.41v-14.83c0-.55.32-1.03.82-1.27.53-.25,1.14-.17,1.58.21h0c1.53,1.3,3.38,1.96,5.1,1.81,1.7-.14,3.25-1.03,4.59-2.64,2.01-2.4,2.69-4.87,1.86-6.78-.76-1.76-2.75-2.84-5.44-2.98-3.09-.16-5.04.94-6.13,1.89-.44.39-1.06.48-1.59.24-.5-.22-.81-.7-.81-1.24v-12.89l-15.06.24h-.04c-.79,0-1.52-.41-1.91-1.08-.37-.65-.36-1.43.03-2.07.8-1.32,1.75-3.34,1.75-5.5,0-4.41-3.53-7.32-6.8-7.48-1.99-.09-4.99,1.28-7.09,3.29-1.3,1.24-2.04,2.52-2.04,3.52,0,1.74,1.26,4.47,2.31,6.46.34.64.32,1.4-.05,2.02-.4.67-1.11,1.08-1.91,1.1l-15.19.24v11.67c0,.66-.35,1.25-.95,1.58-.63.35-1.4.33-2-.04-1.91-1.18-3.96-1.59-6.09-1.22-2.4.42-4.35,2.18-5.11,4.58-.79,2.53-.06,5.22,1.95,7.22,2.75,2.73,6.58,1.28,9.31-.41.32-.2.68-.3,1.04-.3Z"/><path class="cls-9" d="M268.56,335.14v-13.79c0-.87.46-1.68,1.24-2.15.84-.52,1.87-.56,2.74-.12,2.2,1.12,5.3,2.06,7.56.13,2.46-2.1,3.75-5.36,3.14-7.93-.47-2-2-3.37-4.41-3.97-2.29-.57-4.4-.32-6.26.74-.86.49-1.92.49-2.76,0-.78-.45-1.24-1.24-1.24-2.11v-12.02l17.49-.28h.04c.83,0,1.59.43,1.98,1.13.37.67.34,1.47-.08,2.13-1.18,1.82-1.97,3.5-2.34,4.99-.25,1-.04,1.96.64,2.85,1.34,1.78,4.55,3.13,7.61,3.22,4.1.13,6.99-2.76,7.21-7.17.07-1.45-.35-2.79-1.26-4-.48-.63-.55-1.43-.2-2.14.37-.76,1.15-1.25,2.03-1.26l16.26-.25v12.55c0,.66-.35,1.25-.95,1.58-.63.35-1.4.33-2-.04-1.91-1.18-3.96-1.59-6.09-1.22-2.4.42-4.35,2.18-5.11,4.58-.79,2.53-.06,5.22,1.95,7.22,2.75,2.73,6.58,1.28,9.31-.41h0c.61-.38,1.37-.4,1.98-.06.57.32.91.89.91,1.54v14.91l-16.94.46c-.77.02-1.47-.38-1.81-1.04-.32-.64-.24-1.4.21-1.99,3.22-4.13,2.32-7.33,1.5-8.86-1.12-2.09-3.39-3.54-5.3-3.42-4.8.35-7.94,1.38-9.34,3.04-.67.8-.94,1.72-.84,2.83.27,2.78,1.4,5.36,2.3,7.04.3.56.28,1.23-.04,1.79-.36.62-1.01,1-1.75,1.02l-17.37.47ZM271.28,319.66c-.35,0-.7.1-1.02.29-.52.32-.82.83-.82,1.4v12.88l16.46-.45c.43-.01.8-.23,1.01-.58.17-.3.18-.64.02-.93-.94-1.75-2.11-4.45-2.4-7.37-.13-1.34.22-2.51,1.04-3.49,1.58-1.88,4.84-2.97,9.95-3.35,2.27-.17,4.85,1.47,6.14,3.88.92,1.72,1.95,5.29-1.58,9.82-.25.32-.29.71-.12,1.05.18.36.53.58,1,.56l16.09-.44v-14.06c0-.32-.17-.6-.46-.77-.33-.19-.75-.17-1.09.03h0c-4.24,2.63-7.93,2.73-10.39.28-2.25-2.23-3.06-5.26-2.17-8.11.85-2.72,3.07-4.7,5.79-5.19,2.92-.52,5.26.44,6.71,1.34.34.21.76.22,1.11.02.32-.18.5-.47.5-.81v-11.65l-15.37.24c-.55,0-1.03.3-1.25.77-.2.41-.16.86.12,1.23,1.04,1.37,1.52,2.91,1.44,4.57-.25,4.93-3.51,8.18-8.12,8.01-2.75-.08-6.52-1.24-8.29-3.57-.83-1.1-1.1-2.34-.79-3.6.4-1.59,1.22-3.36,2.46-5.26.25-.39.27-.83.05-1.22-.24-.43-.68-.68-1.21-.68,0,0-.02,0-.03,0l-16.63.26v11.16c0,.56.29,1.05.8,1.35.58.33,1.3.33,1.89,0,2.06-1.18,4.39-1.46,6.91-.83,2.71.67,4.51,2.31,5.06,4.62.69,2.92-.69,6.45-3.42,8.8-2.08,1.78-5.03,1.77-8.53-.01-.27-.14-.57-.21-.86-.21Z"/><path class="cls-9" d="M432.41,345.67c-2.15,0-4.83-.49-6.66-2.02-1.33-1.1-2-2.58-2-4.39,0-2.31.74-4.43,2.19-6.29.25-.32.29-.71.12-1.04-.17-.33-.51-.54-.89-.51l-15.65.43v-14.17c0-.33-.18-.63-.47-.79-.32-.18-.69-.16-1,.04-2.52,1.6-5.98,2.01-8.6,1.02-1.58-.6-2.66-1.64-3.03-2.93-.82-2.84-.63-7.18,1.09-9.52.76-1.03,1.78-1.59,2.93-1.61.05,0,.11,0,.16,0,2.42,0,5.52,1,7.71,1.85.31.12.67.08.94-.11.27-.18.42-.47.42-.79v-13.13l15.98-.25c.42,0,.81-.22,1.04-.56.22-.33.27-.72.13-1.08-1.14-2.95-2.74-8.39-.67-11.65,1-1.57,2.71-2.45,5.1-2.63,4.71-.34,8.29,1.16,9.86,4.1,1.49,2.79.83,6.32-1.79,9.67h0c-.3.38-.35.85-.14,1.27.2.41.6.65,1.07.65,0,0,.01,0,.02,0l13.8-.22v11.91c0,.66-.37,1.26-.98,1.57-.58.3-1.27.25-1.78-.12-1.06-.77-2.43-1.01-4.08-.72-2.51.44-4.63,2.21-5.55,4.62-.88,2.32-.52,4.74.99,6.65,2.29,2.9,7.22.88,9.96-.58.55-.29,1.19-.28,1.72.04.52.31.82.85.82,1.46v13.67l-15.3.41c-.4.01-.74.23-.91.58-.16.33-.12.71.1.99,2.53,3.28,2.19,6.26,1.45,8.18-1.25,3.27-4.38,5.53-6.07,5.84-.57.1-1.28.17-2.06.17ZM425.2,330.55c.71,0,1.33.38,1.65.99.32.64.24,1.4-.21,1.98-1.33,1.7-2,3.63-2,5.74,0,1.53.57,2.78,1.68,3.71,2.25,1.87,6.1,2.01,8,1.66,1.52-.28,4.31-2.43,5.4-5.29.94-2.46.48-4.99-1.33-7.33-.42-.55-.5-1.28-.2-1.91.31-.65.95-1.07,1.68-1.09l14.44-.39v-12.82c0-.29-.14-.55-.4-.7-.26-.16-.58-.16-.85-.02-2.98,1.59-8.38,3.75-11.07.35-1.68-2.13-2.1-4.93-1.12-7.51,1.03-2.7,3.41-4.68,6.22-5.17,1.89-.33,3.49-.04,4.75.87.25.18.57.2.87.05.24-.12.5-.39.5-.79v-11.01l-12.9.2h-.03c-.8,0-1.51-.43-1.86-1.14-.36-.72-.27-1.56.24-2.2,2.4-3.07,3.03-6.25,1.71-8.72-1.39-2.62-4.68-3.94-9.02-3.63-2.09.15-3.58.9-4.42,2.22-1.86,2.93-.33,8.06.75,10.86.24.63.16,1.32-.22,1.89-.39.58-1.05.94-1.76.95l-15.12.24v12.26c0,.6-.3,1.17-.81,1.51-.52.36-1.18.43-1.76.21-1.74-.68-4.98-1.79-7.39-1.79-.05,0-.1,0-.14,0-.89.02-1.64.44-2.24,1.26-1.54,2.09-1.7,6.17-.96,8.75.29,1.02,1.18,1.85,2.5,2.35,2.38.9,5.52.53,7.82-.94.58-.37,1.31-.39,1.9-.07.58.32.93.9.93,1.56v13.27l14.74-.4h.05Z"/><path class="cls-9" d="M435.4,266.42c-.05,0-.1,0-.16,0-.42-.03-1-.03-1.67-.02-2.51.02-6.29.05-8.2-1.84-.78-.78-1.18-1.8-1.18-3.06,0-2.92,1.01-5.47,1.86-7.09.23-.43.21-.94-.04-1.35-.26-.42-.71-.68-1.22-.68h0l-15.11.06v-13.89c0-.68.37-1.28.99-1.59.64-.32,1.41-.25,2,.18,2.29,1.71,5.31,1.7,8.09-.03,2.31-1.43,3.76-3.66,3.46-5.29-.82-4.41-2.3-6.02-6.1-6.62-2.14-.33-4.18.66-5.52,1.56-.58.39-1.32.42-1.93.1-.61-.33-.97-.92-.97-1.6v-13.08l14.71.11h.01c.46,0,.86-.21,1.12-.57.25-.35.3-.78.16-1.19-.78-2.14-1.71-5.06-1.71-6.81,0-1.35.86-2.96,2.31-4.31,1.9-1.77,4.36-2.73,6.59-2.57,2.58.18,5.41,1.91,7.05,4.28,1.13,1.64,1.51,3.36,1.06,4.84-.41,1.37-1.17,2.84-2.25,4.36-.28.4-.32.9-.09,1.34.24.46.69.74,1.22.74l15.18.12v10.41c0,.33.18.61.47.76.29.15.62.13.88-.06,1.43-1.02,3.26-1.46,5.44-1.29,3.75.29,6.77,4.91,7.15,8.87.3,3.14-1.05,5.42-3.59,6.11-4.21,1.15-7.84.38-10.15-.47h0c-.27-.1-.57-.06-.8.1-.23.16-.36.41-.36.69v15.46l-13.41.06c-.53,0-.99.27-1.25.72-.24.43-.24.93.01,1.35,1.62,2.7,1.66,5.68.13,8.17-1.09,1.76-2.81,2.99-4.16,2.99ZM434.28,265.51c.39,0,.74,0,1.03.03.9.04,2.47-.9,3.5-2.57.8-1.29,1.84-3.95-.13-7.25-.41-.69-.42-1.53-.02-2.23.41-.73,1.16-1.17,2.01-1.17l12.53-.05v-14.58c0-.56.28-1.09.74-1.41.47-.33,1.07-.4,1.61-.21h0c2.19.8,5.63,1.53,9.62.44,3.02-.82,3.07-3.9,2.94-5.18-.34-3.61-3.03-7.82-6.34-8.07-1.96-.15-3.6.23-4.86,1.12-.52.37-1.21.42-1.79.12-.59-.3-.95-.89-.95-1.55v-9.54l-14.31-.11c-.85,0-1.61-.48-2-1.22-.38-.74-.32-1.58.16-2.25,1.02-1.45,1.74-2.83,2.12-4.1.37-1.22.03-2.67-.94-4.09-1.47-2.14-4.1-3.74-6.39-3.9-1.98-.14-4.2.73-5.93,2.34-1.27,1.18-2.03,2.55-2.03,3.67,0,1.26.59,3.57,1.66,6.51.25.68.15,1.41-.27,2-.42.59-1.11.94-1.84.94h-.02l-13.83-.11v12.19c0,.35.19.66.51.83.33.18.72.16,1.03-.05,1.47-.99,3.73-2.08,6.15-1.7,4.73.75,6.05,3.15,6.83,7.33.37,2.01-1.21,4.56-3.86,6.2-3.1,1.93-6.49,1.92-9.08-.01-.38-.28-.8-.24-1.08-.1-.32.16-.5.45-.5.8v13.01l14.22-.06h0c.82,0,1.56.41,1.98,1.1.41.68.44,1.51.07,2.22-.8,1.53-1.76,3.94-1.76,6.68,0,1.02.3,1.82.92,2.43,1.64,1.63,5.21,1.6,7.57,1.58.25,0,.49,0,.71,0Z"/><path class="cls-9" d="M409.68,292.58v-13.88c0-.7.4-1.33,1.04-1.64.63-.32,1.37-.25,1.93.16,1.86,1.4,4.26,1.8,6.27,1.04,1.63-.62,2.71-1.89,3.06-3.58,1.18-5.76.86-8.56-4.14-9.89-2.04-.54-3.84-.36-5.34.54-.6.36-1.33.37-1.92.03-.56-.32-.89-.89-.89-1.53v-12.29l15.11-.06h0c.82,0,1.56.41,1.98,1.1.41.68.44,1.51.07,2.22-.8,1.53-1.76,3.94-1.76,6.68,0,1.02.3,1.82.92,2.43,1.64,1.63,5.21,1.59,7.57,1.58.69,0,1.28-.01,1.74.02.9.04,2.47-.9,3.5-2.57.8-1.29,1.84-3.95-.13-7.25h0c-.41-.69-.42-1.53-.02-2.23.41-.73,1.16-1.17,2.01-1.17l13.41-.06v10.97c0,.34.19.63.5.76.25.11.64.13.96-.17,3.57-3.32,7.29-3.36,10.49-.12,3.66,3.71,3.09,10.56.15,13.96-1.26,1.47-4.83,4.42-10.69.16-.28-.2-.63-.23-.94-.07-.29.15-.47.43-.47.76v13.37l-13.79.22h-.03c-.8,0-1.51-.43-1.86-1.14-.36-.72-.27-1.56.24-2.2,2.4-3.07,3.03-6.25,1.71-8.72-1.39-2.62-4.68-3.94-9.02-3.63-2.09.15-3.58.9-4.42,2.22-1.86,2.93-.33,8.06.75,10.86.24.63.16,1.32-.22,1.89-.39.58-1.05.94-1.76.95l-16,.25ZM411.56,277.74c-.15,0-.3.04-.45.11-.34.17-.55.49-.55.86v12.99l15.1-.24c.42,0,.81-.22,1.04-.56.22-.33.27-.72.13-1.08-1.14-2.95-2.74-8.39-.67-11.65,1-1.57,2.71-2.45,5.1-2.63,4.71-.34,8.29,1.16,9.86,4.1,1.49,2.79.83,6.32-1.79,9.67-.3.38-.35.85-.14,1.27.2.41.6.65,1.07.65,0,0,.01,0,.02,0l12.92-.2v-12.51c0-.65.36-1.24.95-1.54.6-.3,1.31-.25,1.85.15,3.71,2.7,7.18,2.69,9.51-.02,2.69-3.12,3.23-9.38-.11-12.77-3.6-3.66-7.02-1.94-9.26.14-.52.49-1.26.61-1.91.33-.64-.28-1.03-.88-1.03-1.57v-10.09l-12.53.05c-.53,0-.99.27-1.25.72-.24.43-.24.93.01,1.35h0c1.62,2.7,1.66,5.68.13,8.17-1.13,1.83-2.95,3.11-4.32,2.99-.42-.03-1-.03-1.67-.02-2.51.02-6.29.05-8.2-1.84-.78-.78-1.18-1.8-1.18-3.06,0-2.92,1.01-5.47,1.86-7.09.23-.43.21-.94-.04-1.35-.26-.42-.71-.68-1.22-.68h0l-14.23.06v11.41c0,.32.16.6.45.76.32.18.71.17,1.04-.02,1.72-1.03,3.74-1.24,6.02-.64,6.16,1.63,5.84,5.73,4.78,10.91-.4,1.97-1.72,3.51-3.61,4.23-2.29.87-5.02.42-7.12-1.16-.17-.13-.36-.19-.56-.19Z"/><path class="cls-9" d="M167.72,336.84v-13.48c0-.58-.27-1.11-.75-1.48-.58-.45-1.37-.6-2.13-.41-4.81,1.24-8.06,1.04-9.95-.61-2.35-2.07-2.21-6.05-1.77-9.67.23-1.87,1.06-3.21,2.47-4,3.65-2.03,10.08.34,12.12,1.18v-12.85l17.69-.28c.92,0,1.74.45,2.14,1.21.37.72.3,1.55-.19,2.22-1.27,1.75-2.01,3.5-2.2,5.21-.13,1.22.19,2.3.96,3.18,1.48,1.69,4.67,2.77,8.54,2.88,2.53.09,5.26-1.12,6.97-3.04,1.11-1.24,1.62-2.59,1.44-3.8-.19-1.27-1.02-2.87-2.42-4.61-.51-.63-.61-1.45-.26-2.18.38-.81,1.2-1.32,2.15-1.34l17.61-.28v12.61c0,.8-.44,1.53-1.16,1.95-.79.46-1.77.46-2.55.01-1.77-1.02-3.96-1.54-6.63-1.51-2.38.01-4.03,1.06-4.91,3.1-1.49,3.44-.3,8.51,1.2,10.12,1.59,1.71,7.04,1.79,10.61.16h0c.78-.36,1.67-.3,2.39.17.66.42,1.05,1.12,1.05,1.87v12.27l-19.1.51c-.75,0-1.43-.33-1.8-.93-.35-.57-.37-1.26-.04-1.87,1.88-3.53,2.1-7.05.57-9.43-1.08-1.69-2.94-2.59-5.11-2.45-3.7.23-6.53,1.3-7.97,3.04-.86,1.03-1.21,2.26-1.04,3.66.27,2.22,1.07,4.3,1.69,5.65.26.57.22,1.2-.12,1.74-.38.61-1.05.99-1.8,1.01l-17.71.48ZM165.5,320.51c.73,0,1.45.23,2.02.67.7.54,1.09,1.33,1.09,2.18v12.57l16.81-.45c.45-.01.86-.23,1.08-.59.1-.17.25-.51.07-.91-.65-1.41-1.48-3.58-1.76-5.91-.2-1.65.21-3.11,1.23-4.33,1.6-1.92,4.65-3.11,8.6-3.35,2.49-.16,4.64.89,5.91,2.85,1.7,2.65,1.5,6.51-.54,10.32-.18.33-.17.69.02.99.21.33.59.55,1.03.51l18.24-.49v-11.41c0-.45-.23-.86-.64-1.13-.46-.3-1.04-.33-1.55-.11h0c-3.57,1.63-9.63,1.78-11.62-.36-1.69-1.82-3.01-7.27-1.36-11.07,1.02-2.36,3-3.61,5.72-3.63,2.76-.02,5.17.53,7.07,1.63.51.29,1.15.29,1.67,0,.46-.27.73-.7.73-1.19v-11.71l-16.72.26c-.61,0-1.13.33-1.36.83-.2.43-.15.89.15,1.26,1.51,1.89,2.39,3.58,2.6,5.03.21,1.47-.37,3.08-1.66,4.52-1.9,2.14-4.83,3.4-7.66,3.34-1.97-.06-6.82-.48-9.18-3.18-.94-1.08-1.34-2.38-1.18-3.86.2-1.86,1-3.75,2.36-5.63.29-.4.34-.88.12-1.3-.24-.46-.74-.74-1.31-.74,0,0-.02,0-.03,0l-16.82.26v13.34l-.62-.29c-.08-.04-8.06-3.65-11.95-1.48-1.17.65-1.83,1.74-2.03,3.34-.59,4.75-.13,7.5,1.47,8.9,1.65,1.45,4.64,1.58,9.14.42.29-.07.58-.11.87-.11Z"/><path class="cls-9" d="M246.49,351.41h-.06c-4.13-.06-8.24-.42-10.31-2.63-.9-.96-1.32-2.2-1.25-3.68.15-3.22,1.8-6.45,3.15-8.59.2-.32.22-.69.04-1-.2-.35-.57-.58-1.04-.54l-17.74.48v-12.29c0-.45-.23-.86-.64-1.13-.46-.3-1.04-.33-1.55-.11-3.57,1.63-9.63,1.78-11.62-.36-1.69-1.82-3.01-7.27-1.36-11.07,1.02-2.36,3-3.61,5.72-3.63,2.76-.02,5.17.53,7.07,1.63.51.29,1.15.29,1.67,0,.46-.27.73-.7.73-1.19v-12.6l16.24-.26c.9-.02,1.64.41,2.05,1.12.38.67.36,1.47-.05,2.14-1.08,1.75-1.67,3.59-1.76,5.46-.05,1.07.32,2.02,1.11,2.83,2.2,2.26,7.08,2.98,9.82,2.92,1.52-.03,4.31-1.21,5.48-3.64,1.05-2.17.47-4.81-1.67-7.64-.49-.64-.57-1.46-.22-2.18.38-.78,1.17-1.26,2.07-1.28l17.09-.27v12.04c0,.56.29,1.05.8,1.35.58.33,1.3.33,1.89,0,2.06-1.18,4.39-1.46,6.91-.83,2.71.67,4.51,2.31,5.06,4.62.69,2.92-.69,6.45-3.42,8.8-2.08,1.78-5.03,1.77-8.53-.01-.6-.3-1.3-.27-1.88.08-.52.32-.82.83-.82,1.4v13.76l-16.49.45c-.46.01-.87.26-1.06.65-.17.34-.14.7.08,1.01,2.04,2.83,2.25,6.46.56,9.71-1.4,2.69-3.82,4.49-6.04,4.49ZM237.05,334.09c.74,0,1.42.38,1.77.99.34.6.32,1.31-.06,1.91-1.3,2.06-2.87,5.14-3.02,8.17-.06,1.25.27,2.24,1.02,3.03,1.85,1.97,5.93,2.29,9.68,2.35.02,0,.03,0,.05,0,1.89,0,4-1.61,5.25-4.01,1.53-2.94,1.35-6.23-.49-8.78-.41-.57-.47-1.28-.16-1.91.34-.68,1.04-1.11,1.82-1.14l15.63-.43v-12.91c0-.87.46-1.68,1.24-2.15.84-.52,1.87-.56,2.74-.12,2.2,1.12,5.3,2.05,7.56.13,2.46-2.1,3.75-5.36,3.14-7.93-.47-2-2-3.37-4.41-3.97-2.29-.57-4.4-.32-6.26.74-.86.49-1.92.49-2.76,0-.78-.45-1.24-1.24-1.24-2.11v-11.14l-16.2.26c-.57,0-1.06.31-1.3.78-.21.42-.16.88.13,1.26,2.97,3.93,2.6,6.82,1.76,8.55-1.35,2.78-4.47,4.09-6.25,4.13-2.91.05-8.08-.73-10.47-3.18-.96-.99-1.42-2.16-1.35-3.49.1-2.02.74-4,1.89-5.88.25-.4.26-.85.04-1.24-.24-.43-.7-.68-1.24-.68,0,0-.02,0-.03,0l-15.37.24v11.73c0,.8-.44,1.53-1.16,1.95-.79.46-1.77.46-2.55.01-1.77-1.02-3.99-1.57-6.63-1.51-2.38.01-4.03,1.06-4.91,3.1-1.49,3.44-.3,8.51,1.2,10.12,1.59,1.71,7.04,1.79,10.61.16.78-.36,1.67-.3,2.39.17.66.42,1.05,1.12,1.05,1.87v11.39l16.84-.45s.04,0,.06,0Z"/><path class="cls-9" d="M194.77,268.44c-3.27,0-6.34-1.11-8.26-3.06-1.3-1.31-1.91-2.89-1.71-4.43.22-1.73,1.14-3.85,2.73-6.3.29-.45.31-.97.06-1.43-.29-.53-.87-.85-1.53-.85h0l-18.34.07v-10.66c0-.93.46-1.78,1.26-2.34.88-.61,2-.76,3.01-.39,2.3.84,5.07.46,7.4-1.03,1.84-1.17,3.06-2.81,3.19-4.27.24-2.74-.81-5.85-2.56-7.55-.72-.7-1.9-1.49-3.46-1.33-1.34.15-2.84.55-4.47,1.18-1.03.4-2.18.28-3.09-.34-.82-.56-1.29-1.42-1.29-2.36v-12.94l18.3.14c.93,0,1.75.46,2.2,1.22.4.68.42,1.5.04,2.2-1.02,1.88-1.64,3.95-1.83,6.13-.16,1.87.25,3.36,1.23,4.43,1.4,1.53,4,2.32,7.74,2.33h.02c2.12,0,4.05-.88,5.44-2.47,1.29-1.48,1.94-3.44,1.7-5.1-.19-1.3-1.06-3.02-2.52-4.97-.52-.69-.6-1.56-.22-2.32.42-.83,1.29-1.34,2.27-1.33l16.18.13v13.98c0,.72-.35,1.37-.96,1.8-.68.47-1.56.58-2.35.29-2.37-.87-6.73-2.08-9.39-.31-1.48.99-2.29,2.81-2.4,5.42-.14,3.32.77,5.54,2.7,6.6,2.92,1.6,7.43.09,10.37-1.98.79-.55,1.81-.62,2.66-.18.77.4,1.23,1.13,1.23,1.96v13.86l-16.33.06c-.69,0-1.3.36-1.58.94-.23.47-.18.98.15,1.4,1.99,2.55,2.45,5.47,1.3,8.2-1.22,2.92-4.13,5.12-7.23,5.49-.57.07-1.14.1-1.71.1ZM186.07,251.49c.98,0,1.86.5,2.3,1.31.4.74.37,1.61-.1,2.33h0c-1.5,2.31-2.4,4.36-2.6,5.93-.16,1.26.36,2.58,1.46,3.69,2.04,2.06,5.67,3.13,9.24,2.7,2.8-.33,5.42-2.32,6.52-4.95,1.02-2.43.6-5.03-1.19-7.32-.53-.68-.62-1.55-.24-2.32.43-.88,1.33-1.43,2.36-1.43l15.45-.06v-12.99c0-.5-.28-.93-.75-1.18-.44-.23-1.13-.32-1.75.12-3.27,2.3-8.03,3.82-11.3,2.03-1.55-.85-3.35-2.82-3.16-7.41.12-2.9,1.06-4.96,2.79-6.11,2.83-1.89,7.1-.92,10.18.21.52.19,1.1.12,1.54-.18.37-.26.59-.65.59-1.08v-13.1l-15.31-.12c-.63.03-1.21.32-1.48.84-.23.46-.18.97.13,1.39,1.57,2.1,2.47,3.9,2.68,5.37.28,1.91-.45,4.14-1.9,5.81-1.55,1.79-3.72,2.77-6.1,2.77h-.03c-3.99-.01-6.82-.89-8.39-2.62-1.16-1.26-1.65-2.98-1.46-5.11.2-2.31.85-4.49,1.93-6.48.23-.43.22-.91-.02-1.33-.29-.49-.83-.78-1.45-.79l-17.42-.14v12.05c0,.64.33,1.24.91,1.63.67.46,1.52.55,2.28.25,1.7-.67,3.28-1.08,4.69-1.24,1.51-.17,2.95.38,4.17,1.57,1.95,1.91,3.08,5.23,2.82,8.26-.15,1.73-1.53,3.62-3.6,4.93-2.57,1.63-5.62,2.05-8.18,1.11-.74-.27-1.56-.16-2.21.29-.56.39-.89.99-.89,1.62v9.78l17.45-.06h.01Z"/><path class="cls-9" d="M195.44,227.75h-.03c-3.99-.01-6.82-.89-8.39-2.62-1.16-1.26-1.65-2.98-1.46-5.11.2-2.31.85-4.49,1.93-6.48h0c.23-.43.22-.91-.02-1.33-.29-.49-.83-.78-1.45-.79l-18.3-.14v-13.23c0-.94.47-1.8,1.3-2.34.93-.61,2.1-.72,3.14-.28,4.07,1.72,6.97,1.98,8.63.77,1.43-1.05,2.01-3.27,1.7-6.61-.22-2.38-1.05-4.09-2.48-5.09-2.29-1.6-5.72-1.14-8.21-.48-1.01.27-2.11.06-2.93-.57-.73-.56-1.16-1.39-1.16-2.27v-14.01l17.13.34c1.06.02,2.01.59,2.49,1.47.41.77.39,1.66-.07,2.38-1.07,1.68-1.52,3.5-1.35,5.4.52,5.65,3.11,8.04,8.71,7.88,2.9-.07,5.52-1.37,7.19-3.59,1.07-1.42,1.55-3.02,1.25-4.17-.29-1.12-1.26-2.9-2.81-5.13-.53-.77-.59-1.7-.16-2.51.47-.87,1.42-1.39,2.47-1.38l15.7.31v15.06c0,.39.18.76.5,1.03.37.31.87.44,1.36.35,2.73-.5,8.03-1.06,12.83.8,2.93,1.14,4.41,3.55,3.88,6.31-.61,3.16-3.92,6.28-9.02,6.26-2.92-.03-5.36-.6-7.24-1.67-.5-.28-1.12-.28-1.61,0-.44.26-.69.67-.69,1.15v14.24l-16.19-.13c-.63.03-1.21.32-1.48.84-.23.46-.18.97.13,1.39,1.57,2.1,2.47,3.9,2.68,5.37.28,1.91-.45,4.14-1.9,5.81-1.55,1.79-3.72,2.77-6.1,2.77ZM168.61,210.42l17.42.14c.93,0,1.75.46,2.2,1.22.4.68.42,1.5.04,2.2h0c-1.02,1.88-1.64,3.95-1.83,6.13-.16,1.87.25,3.36,1.23,4.43,1.4,1.53,4,2.32,7.74,2.33h.02c2.12,0,4.05-.88,5.44-2.47,1.29-1.48,1.94-3.44,1.7-5.1-.19-1.3-1.06-3.02-2.52-4.97-.52-.69-.6-1.56-.22-2.32.42-.83,1.29-1.34,2.27-1.33l15.3.12v-13.35c0-.78.42-1.5,1.13-1.91.77-.45,1.72-.45,2.49,0,1.75,1,4.05,1.53,6.82,1.56,4.66.05,7.61-2.75,8.15-5.54.45-2.35-.79-4.34-3.34-5.32-4.6-1.78-9.71-1.24-12.35-.75-.75.14-1.51-.06-2.08-.54-.52-.43-.82-1.06-.82-1.71v-14.19l-14.83-.29c-.71-.04-1.37.34-1.68.92-.28.51-.24,1.09.11,1.59,1.63,2.35,2.61,4.17,2.93,5.41.37,1.43-.15,3.27-1.4,4.92-1.83,2.43-4.7,3.86-7.87,3.94-6.09.12-9.05-2.54-9.61-8.68-.19-2.1.31-4.1,1.48-5.95.29-.46.31-1,.04-1.49-.33-.61-.99-.99-1.73-1.01l-16.24-.32v13.11c0,.6.3,1.18.81,1.57.6.46,1.41.62,2.17.42,2.66-.71,6.37-1.18,8.94.61,1.65,1.15,2.61,3.08,2.85,5.73.33,3.67-.36,6.16-2.06,7.4-1.92,1.41-5.12,1.18-9.49-.66-.77-.33-1.64-.25-2.32.2-.58.38-.91.97-.91,1.61v12.36Z"/><path class="cls-9" d="M194.89,310.82c-.08,0-.17,0-.25,0-1.97-.06-6.82-.48-9.18-3.18-.94-1.08-1.34-2.38-1.18-3.86.2-1.86,1-3.75,2.36-5.63h0c.29-.4.34-.88.12-1.3-.24-.46-.74-.74-1.31-.74,0,0-.02,0-.03,0l-17.7.28v-15.53c0-.95.47-1.81,1.3-2.37.93-.63,2.11-.76,3.17-.33,6.13,2.46,8.67,2.28,9.71,1.69.47-.26.75-.67.85-1.25.6-3.51.07-8.84-1.82-11.33-.61-.81-1.33-1.26-2.14-1.35-.99-.12-2.34,1.13-3.64,2.32-.98.89-1.98,1.82-2.93,2.24-1.04.46-2.23.37-3.17-.24-.85-.55-1.33-1.41-1.33-2.37v-16.3l18.33-.07h.01c.98,0,1.86.5,2.3,1.31.4.74.37,1.61-.1,2.33-1.5,2.31-2.4,4.36-2.6,5.93-.16,1.26.36,2.58,1.46,3.69,2.04,2.06,5.67,3.12,9.24,2.7,2.8-.33,5.42-2.32,6.52-4.95,1.02-2.43.6-5.03-1.19-7.32-.53-.68-.62-1.55-.24-2.32.43-.88,1.33-1.43,2.36-1.43l16.33-.06v14.02c0,.46.24.86.65,1.12.48.3,1.1.32,1.61.06,2.19-1.1,5.36-2.24,8.04-1.44,1.73.52,2.99,2.02,3.56,4.22.83,3.22.03,7.13-1.88,9.09-2.04,2.1-6.46.89-9.8-.49-.51-.21-1.1-.16-1.56.15-.4.27-.63.68-.63,1.12v16.34l-17.6.28c-.61,0-1.13.33-1.36.83-.2.43-.15.89.15,1.26,1.51,1.89,2.39,3.58,2.6,5.03.21,1.47-.37,3.08-1.66,4.52-1.85,2.07-4.66,3.34-7.41,3.34ZM185.45,295.23c.9,0,1.7.46,2.09,1.21.37.72.3,1.55-.19,2.22h0c-1.27,1.75-2.01,3.5-2.2,5.21-.13,1.22.19,2.3.96,3.18,1.48,1.69,4.67,2.77,8.54,2.88,2.53.09,5.26-1.12,6.97-3.04,1.11-1.24,1.62-2.59,1.44-3.8-.19-1.27-1.02-2.87-2.42-4.61-.51-.63-.61-1.45-.26-2.18.38-.81,1.2-1.32,2.15-1.34l16.73-.26v-15.48c0-.74.37-1.42,1.02-1.85.71-.47,1.6-.56,2.38-.23,2.53,1.05,7.05,2.52,8.84.69,1.68-1.72,2.41-5.35,1.66-8.25-.49-1.89-1.54-3.17-2.96-3.59-2.39-.72-5.34.35-7.39,1.38-.79.39-1.73.35-2.47-.1-.67-.41-1.07-1.11-1.07-1.87v-13.14l-15.45.06c-.69,0-1.3.36-1.58.94-.23.47-.18.98.15,1.4,1.99,2.55,2.45,5.47,1.3,8.2-1.22,2.92-4.13,5.12-7.23,5.49-3.9.46-7.71-.67-9.97-2.96-1.3-1.31-1.91-2.89-1.71-4.43.22-1.73,1.14-3.85,2.73-6.3.29-.45.31-.97.06-1.43-.29-.53-.87-.85-1.53-.85h0l-17.45.06v15.43c0,.65.34,1.25.93,1.63.69.45,1.57.51,2.34.17.82-.36,1.77-1.24,2.69-2.09,1.44-1.32,2.94-2.69,4.32-2.54,1.06.11,1.98.68,2.75,1.69,2.03,2.68,2.61,8.32,1.99,12.01-.14.85-.58,1.48-1.29,1.87-1.77.99-5.29.44-10.47-1.64-.78-.31-1.66-.22-2.35.24-.58.39-.91.99-.91,1.64v14.64l16.81-.27h.04Z"/><path class="cls-9" d="M244.9,227.98c-2.52,0-5.23-1.05-7.3-2.86-1.89-1.67-2.98-3.75-2.98-5.71,0-1.75.58-3.57,1.73-5.42.27-.43.28-.93.04-1.37-.27-.49-.8-.79-1.41-.8l-17.56-.14v-14.23c0-.78.42-1.5,1.13-1.91.77-.45,1.72-.45,2.49,0,1.75,1,4.05,1.53,6.82,1.56,4.66.05,7.61-2.75,8.15-5.54.45-2.35-.79-4.34-3.34-5.32-4.6-1.78-9.71-1.24-12.35-.75h0c-.75.14-1.51-.06-2.08-.54-.52-.43-.82-1.06-.82-1.71v-15.08l18.13.36s.03,0,.04,0c.69,0,1.31-.35,1.61-.91.27-.52.23-1.09-.12-1.58-1.53-2.15-2.61-4.38-3.18-6.62-.66-2.55-.07-5.1,1.65-7.18,1.95-2.34,4.99-3.68,7.97-3.47,6.39.44,10.31,4.1,10.75,10.03.2,2.73-.46,5.37-1.96,7.84-.29.47-.3,1.03-.03,1.52.31.57.94.93,1.63.94l16.74.24v12.51c0,.56.29,1.07.81,1.38.57.35,1.3.38,1.9.08,1.72-.88,3.39-1.03,4.97-.47,2.02.72,3.82,2.63,5.37,5.66,2.3,4.53,1.33,7.04.11,8.35-2.38,2.55-7.27,2.4-10.65.97-.59-.25-1.25-.19-1.77.15-.46.31-.73.78-.73,1.31v12.84l-18.26-.14c-.62.03-1.19.32-1.44.85-.23.48-.15,1.02.21,1.44,1.66,1.95,2.7,3.7,3.1,5.19.4,1.49.11,3.02-.82,4.4-1.43,2.13-4.21,3.66-7.43,4.07-.36.05-.73.07-1.11.07ZM218.29,210.81l16.69.13c.93,0,1.74.48,2.17,1.25.39.72.37,1.56-.06,2.26-1.06,1.71-1.6,3.38-1.6,4.96,0,1.71.98,3.55,2.68,5.05,2.19,1.92,5.14,2.91,7.71,2.58,2.97-.38,5.52-1.76,6.81-3.69.79-1.17,1.03-2.45.7-3.69-.36-1.34-1.37-3.02-2.92-4.84-.58-.68-.71-1.59-.34-2.38.4-.85,1.26-1.33,2.24-1.36l17.37.13v-11.95c0-.83.41-1.57,1.12-2.05.77-.51,1.74-.59,2.6-.23,3.16,1.34,7.63,1.42,9.67-.76,1.48-1.58,1.39-4.12-.25-7.35-1.44-2.83-3.08-4.59-4.88-5.23-1.34-.48-2.78-.34-4.28.42-.87.44-1.92.4-2.75-.11-.77-.47-1.23-1.27-1.23-2.13v-11.65l-15.87-.22c-1-.01-1.92-.55-2.38-1.39-.42-.77-.41-1.67.05-2.41,1.41-2.3,2.03-4.76,1.84-7.31-.56-7.46-6.46-8.97-9.94-9.21-2.65-.19-5.48,1.05-7.23,3.15-1.54,1.85-2.06,4.12-1.48,6.4.55,2.13,1.58,4.26,3.05,6.33.54.76.61,1.69.18,2.5-.45.86-1.36,1.38-2.38,1.38h-.06l-17.23-.34v14.18c0,.39.18.76.5,1.03.37.31.87.44,1.36.35h0c2.73-.5,8.03-1.06,12.83.8,2.93,1.14,4.41,3.55,3.88,6.31-.61,3.16-3.92,6.28-9.02,6.26-2.92-.03-5.36-.6-7.24-1.67-.5-.28-1.12-.28-1.61,0-.44.26-.69.67-.69,1.15v13.36Z"/></g></g></g></g><g><g><polygon class="cls-37" points="287.62 532.75 135.12 545.55 135.12 537.94 287.62 525.46 287.62 532.75"/><polygon class="cls-37" points="287.62 545.85 135.12 559.22 135.12 551.62 287.62 538.56 287.62 545.85"/></g><g><polygon class="cls-37" points="441.59 519.82 302.49 531.5 302.49 524.24 441.59 512.85 441.59 519.82"/><polygon class="cls-37" points="441.59 532.34 302.49 544.54 302.49 537.29 441.59 525.38 441.59 532.34"/></g></g><path class="cls-9" d="M361.46,114.94c-19.15-11.35-33.85-3.3-45.79-16.11-12.78-13.71-4.16-31.76-17.38-40.27-8.46-5.45-16.02-.64-25.86-2.12-3.6-.54-7.45-1.92-11.45-4.6l-5.3,19.86c-2.75,10.3-13.13,17.74-24.15,17.27l-24.76-1.07c-4.06-.17-8.03,2.1-9.9,5.65l-14.92,28.43c-1.22,2.33.28,4.84,2.95,4.93l195.13,6.22c-4.91-7.5-11.02-13.72-18.57-18.2Z"/></g><g><g><path class="cls-20" d="M461.99,672.48c-4.76.08-8.68-3.71-8.77-8.47-.07-3.82-.97-93.77,56.87-116.83,14-5.58,26.64-5.41,37.55.51,22.48,12.2,28.99,44.78,31.13,55.49.12.6.26,1.32.35,1.73,1.28,3.65-.03,7.84-3.42,10.05-3.98,2.61-9.32,1.49-11.93-2.49-1.04-1.59-1.3-2.86-1.91-5.92-4.69-23.47-12.24-38.17-22.45-43.71-6.29-3.41-13.8-3.3-22.95.35-46.78,18.65-46.03,99.71-46.02,100.52.08,4.47-3.26,8.2-7.61,8.71-.28.03-.57.05-.86.06ZM578.21,603.04s0,0,0,0c0,0,0,0,0,0ZM578.21,603.03s0,0,0,0c0,0,0,0,0,0Z"/><path class="cls-20" d="M333.01,626.02c-4.74-.47-8.2-4.69-7.73-9.42.38-3.8,9.9-93.25,70.02-109.46,14.55-3.92,27.08-2.29,37.24,4.86,20.92,14.72,23.61,47.84,24.5,58.72.05.61.11,1.34.15,1.76.85,3.78-.94,7.78-4.56,9.59-4.26,2.13-9.43.4-11.56-3.85-.85-1.7-.96-2.99-1.21-6.1-1.94-23.85-7.74-39.33-17.24-46.02-5.85-4.12-13.32-4.87-22.84-2.31-48.62,13.11-57.27,93.71-57.35,94.51-.44,4.45-4.19,7.77-8.57,7.77-.28,0-.57-.01-.86-.04ZM456.49,570.52s0,0,0,0c0,0,0,0,0,0ZM456.48,570.51s0,0,0-.01c0,0,0,0,0,.01Z"/><path class="cls-20" d="M329.07,554.24c18.7-37.87,61.09-30.17,96.72-67.03,24.47-25.32,14.72-39.54,38.3-60.33,5.23-4.61,10.81-8.4,16.6-11.52,5.19-2.8,11.08-4.01,16.96-3.69l126.33,11.27c5.36.29,9.06,11.11,4.79,14.36-3.68,2.8-2.05,1.77-5.43,5.2-25.07,25.46-12.87,40.81-38.58,71.48-37.43,44.66-83.36,43.98-104.42,81.33l-2.39,2.39c-3.02,2.32-7.71.85-9.16.7l-131.67-29.51c-6.99-.74-11.21-8.2-8.12-14.51.02-.05.05-.09.07-.14Z"/><path class="cls-11" d="M320.45,553.29c18.7-37.87,61.09-30.17,96.72-67.03,24.47-25.32,14.72-39.54,38.31-60.33,5.23-4.61,10.81-8.4,16.6-11.52,5.19-2.8,11.08-4.01,16.96-3.69l133.17,11.17c2.44.13,2.05-1.14,3.32.55.05.06,1.71,3.08,1.74,3.16.82,2.21.32,4.91-1.93,6.62-3.68,2.8-7.24,5.91-10.61,9.34-25.07,25.46-12.87,40.81-38.58,71.48-37.43,44.66-86.1,39.34-104.26,83.77v.02c-.56,1.35-1.94,2.18-3.4,2.02l-139.99-30.91c-3.34-.35-6.04-2.24-7.62-4.8-.04-.06-2.11-3.68-2.11-3.75-.22-2.59.04-2.73,1.62-5.96.02-.05.05-.09.07-.14Z"/><path class="cls-44" d="M318.96,550.7c18.7-37.87,61.09-30.17,96.72-67.03,24.47-25.32,14.72-39.54,38.31-60.33,5.23-4.61,10.81-8.4,16.6-11.52,5.19-2.8,11.08-4.01,16.96-3.69l133.17,11.17c5.36.29,7.4,7.08,3.13,10.33-3.68,2.8-7.24,5.91-10.61,9.34-25.07,25.46-12.87,40.81-38.58,71.48-37.43,44.66-86.1,39.34-104.26,83.77v.02c-.56,1.35-1.94,2.18-3.4,2.02l-139.99-30.91c-6.99-.74-11.21-8.2-8.12-14.51.02-.05.05-.09.07-.14Z"/></g><g><path class="cls-12" d="M388.65,650.16s2.87,6.7.96,8.62c-1.92,1.92-16.28,6.7-20.11,7.66-3.83.96,0-4.79,4.79-7.66,3.48-2.09,14.36-8.62,14.36-8.62Z"/><path class="cls-3" d="M429.83,658.78s0,5.75-.96,7.66l-.96,1.92s-19.15,6.7-22.98,7.66c-3.83.96.4-6.15,1.92-7.66,1.92-1.92,14.36-8.62,14.36-8.62l8.62-.96Z"/><path class="cls-38" d="M434.61,474.92c-5.98.73-57.42,7.76-77.57,48.84-10.9,22.23-7.74,44.43-5.75,58.42,5.06,35.52,23.2,59.9,32.56,70.86,1.92-.32,3.83-.64,5.75-.96,2.13-4.67,4.83-11.52,6.7-20.11,1.56-7.19,2.63-16.01,1.92-30.64-1.35-27.56-6.62-26.51-4.79-36.39,3.07-16.58,17.9-19.46,53.63-57.46,8.91-9.47,14.38-16.09,12.45-22.03-2.98-9.17-21.56-10.36-24.9-10.53Z"/><path class="cls-2" d="M493.03,334.15c-3.69-2.45-27.16-6.97-43.85,2.96-28.23,16.8-39.74,48.31-59.57,80.35-8.57,13.86-9.32,19-7.66,22.98,5.12,12.27,33.76,15.04,53.63,8.62,51.89-16.76,72.08-105.22,57.46-114.92Z"/><path class="cls-14" d="M425.52,440.92c2.38-4.62,5.15-13.74.96-18.2-5.56-5.92-19.91.05-22.03.96-9.04,3.9-12.84,9.73-14.36,8.62-1.67-1.22.63-9.95,6.7-16.28,6.84-7.14,12.43-4.94,18.19-11.49,5.43-6.18,2.4-10.33,6.7-18.19,5.64-10.3,14.99-10.74,25.86-18.2,5.99-4.11,13.35-11.01,19.61-23.24,14.8-8.79,22.4-13.06,25.88-10.76,14.62,9.69-5.57,98.16-57.46,114.92-6.81,2.2-14.64,3.32-22.21,3.35,4.56-2.27,9.26-5.86,12.15-11.49Z"/><path class="cls-20" d="M397.27,661.18c1.18,0,2.2-.87,2.37-2.07l29.35-211.91c.43-3.12-.38-6.21-2.29-8.71-1.91-2.5-4.68-4.1-7.8-4.51l-5.61-.73c-2.48-.32-4.97.44-6.85,2.09-1.88,1.65-2.95,4.03-2.95,6.53v4.33c0,1.32,1.07,2.39,2.39,2.39s2.39-1.07,2.39-2.39v-4.33c0-1.14.47-2.18,1.33-2.93.85-.75,1.95-1.08,3.07-.94l5.61.73c1.84.24,3.48,1.19,4.61,2.67,1.13,1.48,1.61,3.31,1.35,5.15l-29.35,211.91c-.18,1.31.73,2.52,2.04,2.7.11.02.22.02.33.02Z"/><path class="cls-41" d="M545.7,480.66c6.03,15.83,3.73,26.4,1.92,31.6-8.76,25.18-44.66,36.4-50.75,38.31-12.36,3.86-22,4.27-32.56,13.41-2.82,2.44-8.43,7.86-12.45,16.28-5.76,12.06-4.9,23.2-4.79,28.73.24,12.52-2.73,30.62-17.24,54.58-2.23-.32-4.47-.64-6.7-.96-6.18-16.25-18.26-54.75-7.66-99.59,2.87-12.13,9.12-37.31,29.69-61.29,7.03-8.2,13.94-14.16,19.15-18.19,27.13-.96,54.27-1.92,81.4-2.87Z"/><g class="cls-18"><path class="cls-55" d="M424.08,571.64c3.59-5.67,7.35-3.15,15.32-10.53,14.02-12.99,8.05-26.05,18.2-34.47,12.32-10.23,27.92,3.37,46.92-4.79,11.81-5.07,24.4-28.08,30.1-40.79,3.69-.13,7.39-.26,11.08-.39,6.03,15.83,3.73,26.4,1.92,31.6-8.76,25.18-44.66,36.4-50.75,38.31-12.36,3.86-22,4.27-32.56,13.41-2.82,2.44-8.43,7.86-12.45,16.28-5.76,12.06-4.9,23.2-4.79,28.73.24,12.52-2.73,30.62-17.24,54.58-2.23-.32-4.47-.64-6.7-.96-1.12-2.94-2.42-6.61-3.76-10.9,9.89-10.93,12.72-20.42,13.33-27.41,1.98-22.48-17.09-39.31-8.62-52.67Z"/></g><path class="cls-45" d="M487.63,325.44c18.12.41,36.19,19.89,47.39,29.27,18.73,15.67,26.46,48.66,26.3,63.2-.23,21.29-3.94,24.95-3.89,36.16.06,13.92,7.94,18.27,4.58,27.71-2.29,6.45-9.7,5.73-16.22,6.95-14.2,2.66-30.93,2.62-45.95,3.97-9.86.88-20.4,1.56-29.6,5.37-7.4,3.06-16.62,6.68-23.34,4.57-4.7-1.48-8.37-6.14-8.95-7.77-3.65-10.22-3.57-9.84.13-20.59,5.03-14.62,12.12-33.66,6.29-51.51-1.71-5.24-10.08-19.81-14.1-25.62-2.85-4.12-7.31-12.02-7.71-15.7-1.79-16.36,7.78-30.27,18.94-39.24,15.3-12.28,26.79-17.22,46.12-16.78Z"/><g class="cls-16"><path class="cls-40" d="M557.43,454.07c-.05-11.21,3.67-14.87,3.89-36.16.15-14.54-7.58-47.54-26.3-63.2-9.61-8.04-24.25-23.49-39.64-28,1.75,5.61,3.65,11.13,5.81,16.38,11.77,28.68,12.5,70.59-16.18,85.3-11.2,5.86-26.25,4.39-38.45,9.3-.11,13.1-4.83,26.01-8.48,36.59-3.7,10.74-3.78,10.37-.13,20.59.58,1.63,4.25,6.29,8.95,7.77,6.72,2.11,15.94-1.51,23.34-4.57,9.2-3.81,19.74-4.49,29.6-5.37,15.01-1.35,31.75-1.3,45.95-3.97,6.52-1.22,13.93-.5,16.22-6.95,3.36-9.44-4.52-13.79-4.58-27.71Z"/></g><path class="cls-47" d="M423.12,430.87l-1.49-1.87c-1.45-1.81-3.84-2.59-6.08-1.98-2.7.74-6.13,1.81-7.75,2.89-2.87,1.92,5.75,10.53,6.7,10.53,1.92,0,10.53-5.75,8.62-9.58Z"/><path class="cls-31" d="M445.15,433.74h-10.53c-2.87,0-11.49-5.75-15.32-4.79-3.83.96-6.7,6.7-6.7,9.58s2.87,2.87,7.66-.96c3.74-2.99,9.58,0,11.49.96,1.92.96,10.53,2.87,10.53,2.87l2.87-7.66Z"/><path class="cls-52" d="M484.94,327.92c9.43-10.49,66.02,10.72,80.06,32.4,2.22,3.43,22.41,33.35,23.4,48.89,1.27,19.91-18.74,48.85-30,56.64-38.36,26.54-64.28,11.36-100.01.94-13.5-3.94-24.1-7.14-28.67-18.83-2.02-5.16-.28-7.86,3.28-12.09,8.26-9.83,23.95-5.92,36.11-5.59,14.93.41,26.99,8.66,43.94-1.45,4.71-2.81,11.14-18.36,10.64-29.31-.92-19.94-48.6-60.66-38.75-71.61Z"/><g><path class="cls-32" d="M441.65,341.94c.22,2.96,1.76,3.1,2.09,5.68.21,1.71-.2,3.72-6.89,12.86-3.48,4.76-4.26,5.42-4.04,5.68.86,1.02,13.75-8.33,24.69-19.72,0,0,6.71-6.99,5.69-8.22-.83-1-5.65,3.72-10.47,2.24-4.36-1.34-4.97-6.61-7.47-6.29-2.12.28-3.85,4.36-3.6,7.77Z"/><g><g><path class="cls-1" d="M427.35,336.06c-3.81-.86-7.85-5.22-7.15-9.47.41-2.52,2.48-4.95,4.9-5.65,2.68-.78,3.95,1.11,6.62.12,2.16-.8,1.94-2.25,4.49-3.59.67-.35,3.49-1.82,6.12-.86,3.68,1.35,4.05,6.71,4.71,9.4.33,1.33-.27,2.31-.47,3.64-.27,1.85-.67,4.76-1.28,9.58-.88-.65-2.04-1.4-3.46-2.09-.55-.27-2.71-1.29-5.07-1.73-4.83-.9-6.1,1.38-9.41.63Z"/><path class="cls-10" d="M447.46,333.98s.32,3.68-2.06,7.31c-.89,1.36-1.96,3.14-3.92,3.83-3.83,1.35-8.06-2.43-9.33-3.56-4.86-4.34-7.12-11.27-5.37-12.87.81-.74,1.92.18,4.19-.89,1.81-.86,2.94-2.32,2.99-2.39.97-1.28.81-1.94,1.65-2.54,1.27-.9,3.05-.4,3.44-.3,2.61.73,4.51,4.01,5,8.21.28-1.75,1.27-3.07,2.5-3.36.2-.05.77-.1,1.28.1,1.84.7,1.86,3.3-.37,6.45Z"/></g><path class="cls-1" d="M430.9,340.41s3.04,3.39,3.94,1.45c.9-1.94,1.8-3.89,4.49-3.59,2.69.3,4.12-11.05,4.12-11.05l1.87.14s-1.8,3.89-.6,5.38,2.28,8.57,2.83,11.22c.67,3.23-2.22,10.89-10.92,6.27-3.05-1.62-5.73-9.83-5.73-9.83Z"/></g></g></g></g><g><g><g><path class="cls-23" d="M30.33,431.3v197.23c0,10.2,21.24,18.47,47.44,18.47s47.44-8.27,47.44-18.47v-197.23H30.33Z"/><g class="cls-19"><path class="cls-13" d="M91.88,541.59c-8.42-31.34-36.71-33.54-42.73-60.11-2.51-11.09-1.34-27.3,14.66-50.17H30.33v197.23c0,10.2,21.24,18.47,47.44,18.47,10.09,0,19.44-1.23,27.13-3.32-9.19-10.11-15.57-21.39-18.08-34.02-5.59-28.13,12.47-40.54,5.07-68.08Z"/></g><path class="cls-6" d="M125.21,591.23c-16.57,5.79-37.76,8.08-63.58,2.29v-144.24h63.58v141.96Z"/></g><rect class="cls-4" x="26.83" y="410.95" width="101.86" height="26" rx="5.14" ry="5.14"/><g><rect class="cls-37" x="114.11" y="415.76" width="6.66" height="16.37" rx="2.77" ry="2.77"/><rect class="cls-37" x="102.51" y="415.76" width="6.66" height="16.37" rx="2.77" ry="2.77"/><rect class="cls-37" x="90.9" y="415.76" width="6.66" height="16.37" rx="2.77" ry="2.77"/><rect class="cls-37" x="79.29" y="415.76" width="6.66" height="16.37" rx="2.77" ry="2.77"/><rect class="cls-37" x="67.69" y="415.76" width="6.66" height="16.37" rx="2.77" ry="2.77"/><rect class="cls-37" x="56.08" y="415.76" width="6.66" height="16.37" rx="2.77" ry="2.77"/><rect class="cls-37" x="44.48" y="415.76" width="6.66" height="16.37" rx="2.77" ry="2.77"/><rect class="cls-37" x="32.87" y="415.76" width="6.66" height="16.37" rx="2.77" ry="2.77"/></g></g><g><g><path class="cls-39" d="M150.49,626.56c-5.52-.72-11.57-1.12-17.93-1.12s-12.41.4-17.93,1.12h-28.68v13.48c0,8.06,20.87,14.6,46.61,14.6s46.61-6.54,46.61-14.6v-13.48h-28.68Z"/><ellipse class="cls-7" cx="132.56" cy="626.56" rx="46.61" ry="14.6"/><path class="cls-17" d="M132.56,637.17c-12.06,0-23.34-1.45-31.76-4.09-8.86-2.78-10.86-5.71-10.86-6.52s1.99-3.74,10.86-6.52c8.43-2.64,19.71-4.09,31.76-4.09s23.34,1.45,31.76,4.09c8.86,2.78,10.86,5.71,10.86,6.52s-1.99,3.74-10.86,6.52c-8.43,2.64-19.71,4.09-31.76,4.09Z"/><path class="cls-17" d="M132.56,637.17c-12.06,0-23.34-1.56-31.76-4.39-8.86-2.98-10.86-6.13-10.86-7s1.99-4.02,10.86-7c8.43-2.83,19.71-4.39,31.76-4.39s23.34,1.56,31.76,4.39c8.86,2.98,10.86,6.13,10.86,7s-1.99,4.02-10.86,7c-8.43,2.83-19.71,4.39-31.76,4.39Z"/><path class="cls-37" d="M106.85,631.44c-1.13,0-2.14-.68-2.35-1.65-.24-1.09.62-2.14,1.92-2.34l48.54-7.46c1.3-.2,2.55.52,2.78,1.62.24,1.09-.62,2.14-1.92,2.34l-48.54,7.46c-.15.02-.29.03-.43.03Z"/></g><g><path class="cls-26" d="M150.49,611.14c-5.52-.72-11.57-1.12-17.93-1.12s-12.41.4-17.93,1.12h-28.68v13.48c0,8.06,20.87,14.6,46.61,14.6s46.61-6.54,46.61-14.6v-13.48h-28.68Z"/><ellipse class="cls-7" cx="132.56" cy="611.14" rx="46.61" ry="14.6"/><path class="cls-17" d="M132.56,621.75c-12.06,0-23.34-1.45-31.76-4.09-8.86-2.78-10.86-5.71-10.86-6.52s1.99-3.74,10.86-6.52c8.43-2.64,19.71-4.09,31.76-4.09s23.34,1.45,31.76,4.09c8.86,2.78,10.86,5.71,10.86,6.52s-1.99,3.74-10.86,6.52c-8.43,2.64-19.71,4.09-31.76,4.09Z"/><path class="cls-17" d="M132.56,621.75c-12.06,0-23.34-1.56-31.76-4.39-8.86-2.98-10.86-6.13-10.86-7s1.99-4.02,10.86-7c8.43-2.83,19.71-4.39,31.76-4.39s23.34,1.56,31.76,4.39c8.86,2.98,10.86,6.13,10.86,7s-1.99,4.02-10.86,7c-8.43,2.83-19.71,4.39-31.76,4.39Z"/><path class="cls-37" d="M106.85,616.03c-1.13,0-2.14-.68-2.35-1.65-.24-1.09.62-2.14,1.92-2.34l48.54-7.46c1.3-.2,2.55.52,2.78,1.62.24,1.09-.62,2.14-1.92,2.34l-48.54,7.46c-.15.02-.29.03-.43.03Z"/></g><g><path class="cls-53" d="M239.16,624.61c3.43,19.87-13.66,36.69-33.86,38.59-20.56,1.94-40.36-13.1-43.9-33.61-3.54-20.51,11.44-41.88,32.11-43.17,20.31-1.26,42.22,18.32,45.65,38.19Z"/><path class="cls-7" d="M240.28,619.65c3.43,19.87-9.91,37.5-30.11,39.4-20.56,1.94-40.36-13.1-43.9-33.61-3.54-20.51,10.62-38.2,31.29-39.49,20.31-1.26,39.29,13.84,42.72,33.7Z"/><path class="cls-17" d="M206.59,655.97c-8.6,0-17.14-3.16-24.05-8.9-6.96-5.78-11.6-13.66-13.07-22.19-1.54-8.95.54-17.59,5.86-24.33,5.35-6.77,13.32-10.81,22.43-11.38.72-.04,1.45-.07,2.18-.07,17.82,0,34.14,13.65,37.14,31.09,1.51,8.75-.48,17.26-5.61,23.97-5.11,6.68-12.79,10.82-21.6,11.65-1.08.1-2.18.15-3.28.15Z"/><path class="cls-37" d="M198.61,592.03c-1.86.12-3.12,1.71-2.8,3.54l9.2,53.35c.32,1.84,2.08,3.19,3.93,3.02,1.85-.17,3.09-1.79,2.78-3.62l-9.17-53.19c-.32-1.83-2.08-3.22-3.93-3.1Z"/><path class="cls-17" d="M211.72,648.32l-9.17-53.19c-.32-1.83-2.08-3.22-3.93-3.1-.64.04-1.2.26-1.66.6.11-.02.22-.03.33-.04,1.86-.12,3.62,1.27,3.93,3.1l9.17,53.19c.21,1.23-.28,2.36-1.18,3.02,1.7-.29,2.81-1.84,2.51-3.58Z"/></g></g></g><g><path class="cls-49" d="M605.22,170.9c0-44.65-41.19-79.51-90.24-77.91-27.94.91-52.24,13.5-67.42,32.09,0,0,0-.01,0-.02-.09.12-.18.24-.28.35-.26.33-.52.66-.77.99-.47.6-.93,1.2-1.38,1.82-.27.36-.53.73-.79,1.09-.43.61-.85,1.23-1.27,1.85-.24.36-.48.71-.71,1.07-.46.72-.91,1.45-1.34,2.18-.16.27-.32.53-.48.79-.58.99-1.13,2-1.66,3.01-.14.27-.27.55-.41.82-.38.76-.76,1.53-1.12,2.3-.18.38-.34.76-.51,1.15-.3.69-.6,1.38-.88,2.07-.16.4-.32.81-.48,1.22-.27.71-.53,1.43-.79,2.16-.13.38-.27.75-.39,1.13-.3.91-.58,1.83-.84,2.75-.05.19-.12.38-.17.58-.31,1.11-.58,2.24-.84,3.37-.07.33-.14.67-.21,1-.17.81-.33,1.63-.47,2.45-.07.42-.13.84-.2,1.26-.12.76-.22,1.52-.31,2.29-.05.43-.1.86-.15,1.29-.08.81-.15,1.62-.2,2.43-.03.38-.06.76-.08,1.14-.06,1.19-.1,2.38-.1,3.59,0,28.65,17.35,53.93,43.37,67.46,2.39,1.24,4.86,2.39,7.39,3.43,1.27.52,2.56,1.02,3.86,1.48,9.16,3.29,19.13,5.24,29.61,5.55h0c1.44.04,2.88.05,4.31.03.48,0,.96-.03,1.44-.05.95-.03,1.89-.06,2.83-.11.57-.03,1.14-.09,1.71-.13.84-.06,1.68-.13,2.51-.21.61-.06,1.21-.14,1.82-.21.79-.1,1.57-.19,2.35-.31.62-.09,1.24-.19,1.86-.3.76-.13,1.51-.26,2.26-.4.63-.12,1.25-.25,1.87-.38.73-.16,1.46-.32,2.19-.49.62-.15,1.24-.3,1.86-.46.72-.19,1.43-.38,2.14-.58.61-.17,1.22-.35,1.83-.53.22-.07.45-.13.68-.2,0,0,0-.01-.01-.02,33.94-10.63,58.59-39.45,58.59-73.87Z"/><path class="cls-34" d="M598.48,170.91c0,44.54-40.98,79.44-89.79,78.02-46.99-1.37-83.82-36.15-83.82-77.73s36.83-76.48,83.82-78.01c48.81-1.59,89.79,33.18,89.79,77.72Z"/><path class="cls-7" d="M507.07,204.98c-4.36,0-7.68,1.09-9.96,3.27-2.28,2.18-3.42,5.4-3.42,9.65s1.17,7.28,3.5,9.54c2.33,2.25,5.62,3.38,9.88,3.38s7.4-1.15,9.73-3.46c2.33-2.31,3.5-5.46,3.5-9.46s-1.15-7.35-3.46-9.58c-2.31-2.23-5.56-3.34-9.77-3.34Z"/><path class="cls-7" d="M536.45,123.57c-6.16-5.02-14.45-7.52-24.89-7.52s-19.54,1.97-28.67,5.9c-1.94.84-3.45,2.44-4.18,4.43-.73,1.99-.61,4.18.34,6.08l1.52,3.05c1.8,3.62,6.1,5.22,9.83,3.67,7.13-2.96,13.63-4.43,19.49-4.43,4.36,0,7.75.86,10.19,2.58,2.43,1.72,3.65,4.23,3.65,7.52,0,2.94-.85,5.6-2.55,7.98-1.7,2.38-5.21,5.47-10.53,9.27-5.52,4.05-9.32,7.88-11.4,11.48-2.08,3.6-3.12,8-3.12,12.87,0,3.11,2.52,5.8,5.62,5.8h9.96c2.52,0,4.56-2.22,4.56-4.74,0-3.04.65-5.59,1.94-7.46s4.37-4.66,9.23-8.25c7.09-5.07,11.91-9.65,14.44-13.7,2.53-4.05,3.8-8.88,3.8-14.45,0-8.36-3.08-15.06-9.23-20.08Z"/><g class="cls-18"><path class="cls-28" d="M529.92,229.54c-10.59-23.32.12-44.87-14.18-59.82-14.36-15.02-32.79-.98-52.32-13-7.47-4.6-15.72-13.39-21.82-31.54-10.52,12.91-16.73,28.84-16.73,46.01,0,41.58,36.83,76.36,83.82,77.73,11.02.32,21.65-1.21,31.51-4.31-4.87-5.08-8.09-10.24-10.28-15.07Z"/></g></g></g></g></g></g></svg>