<?xml version="1.0" encoding="UTF-8"?><svg id="Capa_2" data-name="Capa 2" xmlns="http://www.w3.org/2000/svg" viewBox="0 0 292.65 272.84"><defs><style>.cls-1 {
        fill: #9bd6da;
      }

      .cls-2 {
        fill: #61b0b7;
      }

      .cls-3 {
        fill: none;
      }

      .cls-4 {
        fill: #df1c49;
      }

      .cls-5 {
        fill: #288488;
      }

      .cls-6 {
        fill: #1f7e81;
      }

      .cls-7 {
        fill: #941a31;
      }</style></defs><g id="Layer_1" data-name="Layer 1"><g><g><path class="cls-5" d="M220.34,218.47c-6.1-19.58-53.7-9.71-53.7-25.58,0-2.66.09-5.67.23-8.82,6.86-6.38,11.21-16.02,14.97-26.26,3.13,3.08,5.07,1.35,5.78.9.94-.6,1.44-10.68,4.13-13.95,2.68-3.28,6.71-13.21,4-15.23-.99-.74-2.68-.42-4.42.28.49-2.72.79-5.56.79-8.59,0-27.82-19.13-44.27-44.24-44.27s-44.24,16.45-44.24,44.27c0,3.14.28,6.08.75,8.89-1.98-.89-4-1.41-5.12-.57-2.71,2.02,1.32,11.95,4,15.23,2.68,3.28,3.18,13.36,4.13,13.95.71.45,2.69,2.21,5.87-1,3.59,9.84,7.7,19.16,14.46,25.55.38.36.77.7,1.16,1.03.14,3.07.22,6,.22,8.6,0,15.87-47.6,6-53.7,25.58-6.1,19.58-4.88,54.36-4.88,54.36h154.7s1.22-34.78-4.88-54.36ZM148.43,130.84c-22.02,0-33.75,2.46-38.02-3.22-7.87-10.47,5.07-44.58,38.02-44.58s45.71,34.35,38.02,44.58c-4.28,5.68-16,3.22-38.02,3.22Z"/><path class="cls-7" d="M148.43,83.04c33.4,0,45.71,34.35,38.02,44.58-4.28,5.68-16,3.22-38.02,3.22-.19,0-.37,0-.56,0v142h77.35s1.22-34.78-4.88-54.36c-6.1-19.58-53.7-9.71-53.7-25.58,0-2.66.09-5.67.23-8.82,6.86-6.38,11.21-16.02,14.97-26.26,3.13,3.08,5.07,1.35,5.78.9.94-.6,1.44-10.68,4.13-13.95,2.68-3.28,6.71-13.21,4-15.23-.99-.74-2.68-.42-4.42.28.49-2.72.79-5.56.79-8.59,0-27.82-19.13-44.27-44.24-44.27v6.1c.19,0,.37,0,.56,0Z"/><g><path class="cls-2" d="M147.52,93.82v26.67c0,3.28-2.66,5.95-5.95,5.95h-24.7c-3.59,0-6.17-3.1-6.01-6.48.17-3.58,2.21-5.8,4.77-6.65-5.15-4.21.44-13.21,6.65-11.25-3.07-9.38,8.35-12.28,10.74-9.04.85-3.75,3.58-5.11,5.97-5.46,4.85-.69,8.52,2.43,8.52,6.26Z"/><path class="cls-4" d="M148.22,93.82v26.67c0,3.28,2.66,5.95,5.95,5.95h24.7c3.59,0,6.17-3.1,6.01-6.48-.17-3.58-2.21-5.8-4.77-6.65,5.15-4.21-.44-13.21-6.65-11.25,3.08-9.38-8.35-12.28-10.74-9.04-.85-3.75-3.58-5.11-5.97-5.46-4.85-.69-8.52,2.43-8.52,6.26Z"/></g></g><g><polygon class="cls-1" points="184.27 84.1 179.89 82.77 197.19 25.75 246.88 25.75 246.88 30.32 200.58 30.32 184.27 84.1"/><polygon class="cls-1" points="199.18 112.02 195.64 109.14 203.95 98.94 253.03 98.94 253.03 103.51 206.13 103.51 199.18 112.02"/><polygon class="cls-1" points="253.03 174.24 203.6 174.24 192.32 150.71 196.44 148.74 206.48 169.67 253.03 169.67 253.03 174.24"/><g><g><path class="cls-1" d="M292.47,28.03c0,15.18-12.3,27.48-27.48,27.48s-27.48-12.3-27.48-27.48S249.81.54,264.99.54s27.48,12.3,27.48,27.48Z"/><g><path class="cls-4" d="M256.81,47.96c0,2.03-1.88,3.67-4.2,3.67s-4.2-1.64-4.2-3.67,1.88-3.67,4.2-3.67,4.2,1.64,4.2,3.67Z"/><path class="cls-4" d="M249.13,51.9c0,1.36-1.08,2.46-2.41,2.46s-2.41-1.1-2.41-2.46,1.08-2.46,2.41-2.46,2.41,1.1,2.41,2.46Z"/><g><path class="cls-4" d="M287.46,27.1c0-1.67-.96-3.13-2.37-3.87.33-.61.52-1.31.52-2.05,0-2.43-2.02-4.4-4.52-4.4-.48,0-.94.07-1.38.21.02-.16.03-.31.03-.47,0-2.43-2.02-4.4-4.52-4.4-1.36,0-2.57.59-3.4,1.51,0,0-.01,0-.01,0-.89-1.65-2.66-2.79-4.71-2.79-1.56,0-2.96.66-3.93,1.71-1.28-1.04-3.13-1.71-5.18-1.71-3.59,0-6.54,1.99-6.95,4.57-2.69.25-4.79,2.46-4.79,5.15,0,.28.03.56.08.83-2.15.34-3.8,2.15-3.8,4.34,0,1.6.88,2.99,2.19,3.77-.7.78-1.13,1.79-1.13,2.91,0,2.24,1.72,4.09,3.94,4.36-.31.59-.48,1.26-.48,1.97,0,2.43,2.02,4.4,4.52,4.4.86,0,1.67-.24,2.35-.65.73,1.48,2.28,2.51,4.08,2.51,1.08,0,2.07-.37,2.85-.99.93,1.51,2.62,2.53,4.56,2.53,2.31,0,4.27-1.44,5-3.44,1.56,1.53,4.5,1.76,7.11.42,2.33-1.2,3.71-3.3,3.63-5.23.25.03.49.06.75.06,2.93,0,5.31-2.32,5.31-5.17,0-1.12-.37-2.16-1-3.01.78-.79,1.26-1.86,1.26-3.05ZM266.6,38.48c0,1.3-3.22,1.3-3.22,0v-.94h3.22v.94ZM266.71,37.23h-3.45l-.68-.9h4.8l-.68.9ZM267.39,36.03h-4.8v-.9h4.8v.9ZM267.39,34.82h-4.8v-1.58c0,.75,4.8.75,4.8,0v1.58ZM268.78,30.15c-.83,2.64-1.09,3.09-3.79,3.09s-2.96-.45-3.79-3.09c-.45-1.41-2.3-3.39-2.3-6.17,0-3.37,2.73-6.1,6.1-6.1s6.1,2.73,6.1,6.1c0,2.71-1.86,4.76-2.3,6.17Z"/><path class="cls-4" d="M269.68,24.01c-.29,0-.53-.24-.53-.53,0-2.06-1.67-3.73-3.73-3.73-.29,0-.53-.24-.53-.53s.24-.53.53-.53c2.64,0,4.78,2.15,4.78,4.78,0,.29-.24.53-.53.53Z"/></g></g></g><g><path class="cls-1" d="M292.47,100.31c0,15.18-12.3,27.48-27.48,27.48s-27.48-12.3-27.48-27.48,12.3-27.48,27.48-27.48,27.48,12.3,27.48,27.48Z"/><path class="cls-4" d="M264.99,80.15c-11.14,0-20.16,9.03-20.16,20.16s9.03,20.16,20.16,20.16,20.16-9.03,20.16-20.16-9.03-20.16-20.16-20.16ZM271.62,92.71c0-1.67,3.76-1.68,3.76,0v8.22c0,1.65-3.76,1.69-3.76,0v-8.22ZM254.6,92.71c0-1.67,3.76-1.68,3.76,0v8.22c0,1.65-3.76,1.69-3.76,0v-8.22ZM279.09,105.89c-1.19,6.26-6.89,10.47-14.2,10.47-6.58,0-12.33-4.26-13.98-10.37-.2-.75.24-1.52.99-1.73.75-.2,1.52.24,1.73.99,1.32,4.88,5.95,8.28,11.26,8.28,6,0,10.49-3.21,11.43-8.18.15-.76.88-1.27,1.65-1.12.76.14,1.27.88,1.12,1.65Z"/></g><g><circle class="cls-1" cx="264.81" cy="172.6" r="27.48" transform="translate(-2.08 3.24) rotate(-.7)"/><g><path class="cls-4" d="M248.14,159.58v20.29c-3.97-1.97-9.28,1-9.28,4.69,0,5.31,12.05,5.23,12.05-1.58v-16.22l15.6-2.91v12.86c-3.97-1.98-9.28,1-9.28,4.69,0,5.31,12.05,5.24,12.05-1.58v-24.19l-21.13,3.95Z"/><path class="cls-4" d="M284.69,169.6c-1.73-1.55-4.47-.47-8.31-.67l.35,20.29c-4.01-1.91-9.26,1.16-9.2,4.85.09,5.31,12.13,5.03,12.02-1.78-.07-4.04-.22-13.1-.32-18.69.88-.13,2.95-.26,4.98.85,2.29,1.26,5.29.92,8.44-2.06-3.71,1.48-6.16-1.19-7.96-2.79Z"/></g></g></g></g><g><polygon class="cls-1" points="110.72 84.1 94.4 30.32 55.72 30.32 55.72 25.75 97.79 25.75 115.09 82.77 110.72 84.1"/><polygon class="cls-1" points="95.8 112.02 88.86 103.51 49.57 103.51 49.57 98.94 91.03 98.94 99.34 109.14 95.8 112.02"/><polygon class="cls-1" points="91.38 174.24 49.57 174.24 49.57 169.67 88.51 169.67 98.54 148.74 102.67 150.71 91.38 174.24"/><g><g><path class="cls-1" d="M58.42,27.48c0,15.18-12.3,27.48-27.48,27.48S3.45,42.66,3.45,27.48,15.76,0,30.94,0s27.48,12.3,27.48,27.48Z"/><g><g><path class="cls-6" d="M31.17,25.95l4.55-.49v-4.68s-4.55-.49-4.55-.49c-.35-1.66-1.01-3.21-1.9-4.58l2.88-3.57-3.31-3.31-3.57,2.88c-1.38-.9-2.92-1.55-4.58-1.9l-.49-4.55h-4.68l-.49,4.55c-1.66.35-3.21,1.01-4.58,1.9l-3.57-2.88-3.31,3.31,2.88,3.57c-.9,1.38-1.55,2.92-1.9,4.58l-4.55.49v4.68s4.55.49,4.55.49c.35,1.66,1.01,3.2,1.9,4.58l-2.88,3.57,3.31,3.31,3.57-2.88c1.38.9,2.92,1.55,4.58,1.9l.49,4.55h4.68s.49-4.55.49-4.55c1.66-.35,3.2-1.01,4.58-1.9l3.57,2.88,3.31-3.31-2.88-3.57c.9-1.38,1.55-2.92,1.9-4.58ZM17.86,33.97c-5.99,0-10.84-4.86-10.84-10.85s4.85-10.84,10.84-10.84,10.85,4.85,10.85,10.84-4.86,10.85-10.85,10.85Z"/><path class="cls-6" d="M17.86,13.47c-5.33,0-9.66,4.32-9.66,9.66s4.32,9.66,9.66,9.66,9.66-4.32,9.66-9.66-4.32-9.66-9.66-9.66ZM17.86,31.43c-4.58,0-8.3-3.72-8.3-8.3s3.72-8.3,8.3-8.3,8.3,3.72,8.3,8.3-3.72,8.3-8.3,8.3Z"/></g><g><path class="cls-6" d="M58.44,33.12l3.21-1.88-1.56-3.47-3.54,1.15c-.81-1.11-1.81-2.04-2.94-2.76l.94-3.6-3.55-1.35-1.69,3.32c-1.32-.21-2.68-.18-4.03.11l-1.88-3.21-3.47,1.56,1.15,3.54c-1.11.81-2.04,1.81-2.76,2.94l-3.6-.95-1.35,3.55,3.32,1.69c-.21,1.32-.18,2.68.11,4.03l-3.21,1.88,1.56,3.47,3.54-1.15c.81,1.11,1.81,2.04,2.94,2.76l-.94,3.6,3.55,1.35,1.69-3.32c1.32.2,2.68.18,4.03-.11l1.88,3.21,3.47-1.56-1.15-3.54c1.11-.81,2.04-1.81,2.76-2.94l3.6.95,1.35-3.55-3.32-1.69c.21-1.32.18-2.68-.11-4.03ZM51.24,43.5c-4.44,1.99-9.66,0-11.65-4.43-1.99-4.44-.01-9.65,4.43-11.65,4.44-1.99,9.66-.01,11.65,4.43,1.99,4.44.01,9.65-4.43,11.65Z"/><path class="cls-6" d="M44.41,28.3c-3.95,1.78-5.72,6.42-3.94,10.37,1.78,3.95,6.42,5.72,10.37,3.94,3.95-1.78,5.72-6.42,3.94-10.37-1.78-3.95-6.42-5.72-10.37-3.94ZM50.39,41.61c-3.4,1.53-7.39,0-8.91-3.39-1.53-3.4,0-7.39,3.39-8.92,3.4-1.53,7.39,0,8.91,3.39,1.53,3.4,0,7.39-3.39,8.92Z"/></g></g></g><g><path class="cls-1" d="M58.8,99.22c0,15.18-12.3,27.48-27.48,27.48S3.83,114.4,3.83,99.22s12.3-27.48,27.48-27.48,27.48,12.3,27.48,27.48Z"/><path class="cls-6" d="M35.9,110.24c.23,1.2-.55,2.16-.83,3.26-.12.47,0,1.34.2,2.21l11.55-2.19-2.2-11.56c.62-.11,1.19-.15,1.54-.07,1.1.28,2.05,1.06,3.26.83,2.15-.41,3.56-2.49,3.16-4.64-.41-2.15-2.49-3.57-4.64-3.16-1.2.23-1.8,1.3-2.72,1.97-.29.21-.84.38-1.46.5l-2.2-11.56-11.56,2.2c-.12-.65-.17-1.25-.08-1.61.28-1.1,1.06-2.05.83-3.26-.41-2.15-2.49-3.57-4.64-3.16-2.15.41-3.57,2.49-3.16,4.64.23,1.2,1.3,1.8,1.97,2.72.22.31.39.88.52,1.53l-11.56,2.2,2.2,11.55c.81-.14,1.58-.33,1.95-.6.92-.66,1.52-1.74,2.73-1.97,2.15-.41,4.23,1.01,4.64,3.16.41,2.15-1,4.23-3.16,4.64-1.2.23-2.16-.55-3.26-.83-.44-.11-1.23,0-2.04.16l2.19,11.56,11.55-2.2c-.14-.88-.34-1.73-.62-2.13-.66-.92-1.74-1.52-1.97-2.72-.41-2.15,1.01-4.23,3.16-4.64,2.15-.41,4.23,1.01,4.64,3.16Z"/></g><g><path class="cls-1" d="M58.8,171.35c0,15.18-12.3,27.48-27.48,27.48s-27.48-12.31-27.48-27.48,12.3-27.48,27.48-27.48,27.48,12.31,27.48,27.48Z"/><g><g><rect class="cls-3" x="17.51" y="173.68" width="1.17" height=".4"/><rect class="cls-3" x="17.51" y="171.51" width="1.17" height=".4"/><rect class="cls-3" x="17.51" y="164.97" width="1.17" height=".4"/><rect class="cls-3" x="17.51" y="167.15" width="1.17" height=".4"/><rect class="cls-3" x="17.51" y="169.33" width="1.17" height=".4"/><rect class="cls-3" x="17.51" y="175.86" width="1.17" height=".4"/><rect class="cls-3" x="17.51" y="184.58" width="1.17" height=".4"/><polygon class="cls-3" points="39.35 178.99 37.02 181.89 41.77 181.89 39.35 178.99"/><polygon class="cls-3" points="22.83 159.16 22.83 181.89 26.34 181.89 33.91 172.46 22.83 159.16"/><rect class="cls-3" x="17.51" y="180.22" width="1.17" height=".4"/><rect class="cls-3" x="17.51" y="178.04" width="1.17" height=".4"/><rect class="cls-3" x="17.51" y="182.4" width="1.17" height=".4"/><rect class="cls-3" x="17.51" y="162.79" width="1.17" height=".4"/><rect class="cls-3" x="17.51" y="160.62" width="1.17" height=".4"/><rect class="cls-3" x="17.51" y="147.55" width="1.17" height=".4"/><rect class="cls-3" x="17.51" y="149.73" width="1.17" height=".4"/><rect class="cls-3" x="17.51" y="154.08" width="1.17" height=".4"/><rect class="cls-3" x="17.51" y="156.26" width="1.17" height=".4"/><rect class="cls-3" x="17.51" y="158.44" width="1.17" height=".4"/><rect class="cls-3" x="17.51" y="151.9" width="1.17" height=".4"/><path class="cls-6" d="M22.83,181.89v-22.73l11.08,13.3,3.76-4.68-20.59-24.71v44.69h4.54l4.72-5.88h-3.51ZM18.68,184.98h-1.17v-.4h1.17v.4ZM18.68,182.8h-1.17v-.4h1.17v.4ZM18.68,180.62h-1.17v-.4h1.17v.4ZM18.68,178.44h-1.17v-.4h1.17v.4ZM18.68,176.26h-1.17v-.4h1.17v.4ZM18.68,174.08h-1.17v-.4h1.17v.4ZM18.68,171.91h-1.17v-.4h1.17v.4ZM18.68,169.73h-1.17v-.4h1.17v.4ZM18.68,167.55h-1.17v-.4h1.17v.4ZM18.68,165.37h-1.17v-.4h1.17v.4ZM18.68,163.19h-1.17v-.4h1.17v.4ZM18.68,161.01h-1.17v-.4h1.17v.4ZM18.68,158.84h-1.17v-.4h1.17v.4ZM18.68,156.66h-1.17v-.4h1.17v.4ZM18.68,154.48h-1.17v-.4h1.17v.4ZM18.68,152.3h-1.17v-.4h1.17v.4ZM18.68,150.12h-1.17v-.4h1.17v.4ZM18.68,147.95h-1.17v-.4h1.17v.4Z"/><polygon class="cls-6" points="41.77 181.89 37.02 181.89 32.3 187.77 54.33 187.77 43.11 174.31 39.35 178.99 41.77 181.89"/></g><path class="cls-6" d="M19.19,192.72l4.61,3.71,25.86-32.19-4.61-3.71-25.86,32.19ZM22.04,191.97l-.25.31-.91-.73.25-.31.91.73ZM23.41,190.27l-.25.31-.91-.73.25-.31.91.73ZM24.77,188.57l-.25.31-.91-.73.25-.31.91.73ZM26.14,186.87l-.25.31-.91-.73.25-.31.91.73ZM27.5,185.17l-.25.31-.91-.73.25-.31.91.73ZM28.86,183.48l-.25.31-.91-.73.25-.31.91.73ZM30.23,181.78l-.25.31-.91-.73.25-.31.91.73ZM31.59,180.08l-.25.31-.91-.73.25-.31.91.73ZM32.96,178.38l-.25.31-.91-.73.25-.31.91.73ZM34.32,176.68l-.25.31-.91-.73.25-.31.91.73ZM35.69,174.99l-.25.31-.91-.74.25-.31.91.73ZM37.05,173.29l-.25.31-.91-.73.25-.31.91.73ZM38.41,171.59l-.25.31-.91-.73.25-.31.91.73ZM39.78,169.89l-.25.31-.91-.73.25-.31.91.73ZM41.14,168.19l-.25.31-.91-.73.25-.31.91.73ZM42.51,166.5l-.25.31-.91-.73.25-.31.91.73ZM43.87,164.8l-.25.31-.91-.73.25-.31.91.73ZM45.24,163.1l-.25.31-.91-.73.25-.31.91.73Z"/></g></g></g></g></g></g></svg>