<?xml version="1.0" encoding="UTF-8"?><svg id="Capa_2" data-name="Capa 2" xmlns="http://www.w3.org/2000/svg" xmlns:xlink="http://www.w3.org/1999/xlink" viewBox="0 0 669.93 68.43"><defs><style>.cls-1 {
        fill: #ce6470;
      }

      .cls-2 {
        fill: #d16f42;
      }

      .cls-3 {
        fill: #e9b977;
      }

      .cls-4 {
        fill: #d27878;
      }

      .cls-5 {
        fill: #f4ddc7;
      }

      .cls-6 {
        fill: #6c858a;
      }

      .cls-7 {
        clip-path: url(#clippath);
      }

      .cls-8 {
        fill: #261e35;
      }</style><clipPath id="clippath"><rect class="cls-8" width="669.93" height="68.43"/></clipPath></defs><g id="OBJECTS"><g><rect class="cls-8" width="669.93" height="68.43"/><g class="cls-7"><g><path class="cls-5" d="M5.48,76.98c-.32.03-.65.05-.98.06-2.37.05-3.97-.65-4.75-2.08-1.26-2.31-.15-6.38,3.05-11.2-6.55-3.86-10.57-8.7-10.28-12.39.17-2.17,1.73-3.83,4.64-4.94,2.69-1.03,5.97-1.56,9.65-1.56-.77-3.82-.21-6.66,1.68-8.45.58-.55,1.32-.88,2.19-.96,1.78-.17,4.14.68,6.65,2.42,3.06-2.19,6.09-3.52,8.56-3.76,2.64-.26,4.53.77,5.33,2.9.62,1.64.65,4.1.09,7.14,1.15-.1,2.29-.09,3.37.02,3.95.39,5.05,1.72,5.28,2.76.41,1.86-1.55,4.25-5.4,6.59,2.76,2.12,4.36,4.32,4.64,6.41.19,1.39-.2,2.71-1.16,3.92-.36.46-.74.9-1.12,1.33,1.13,1.3,1.67,2.54,1.59,3.68-.07.97-.58,1.86-1.52,2.64-.23.32-1.68,2.13-4.54,2.41-2.02.2-4.26-.42-6.65-1.84-3.36.85-6.85.85-10.09-.01-3.41,2.94-6.85,4.6-10.23,4.93ZM3.41,64.11c-3.02,4.55-4.15,8.47-3.04,10.51.64,1.18,2.03,1.75,4.11,1.71,3.44-.07,6.92-1.6,10.41-4.52-3.65-1.15-6.65-3.32-8.5-6.17h0c-1.01-.46-2.01-.98-2.99-1.53ZM26.75,71.79c2.04,1.1,3.93,1.57,5.63,1.41,2.74-.27,4.05-2.13,4.06-2.15l.07-.07c.81-.66,1.24-1.39,1.3-2.17.07-.93-.39-1.98-1.36-3.11-2.76,2.9-6.09,4.99-9.69,6.09ZM16.35,71.48c2.77.66,5.73.68,8.61.05-1.34-.89-2.74-2.02-4.17-3.39h0c-.46.1-.94.18-1.43.24h0c-.98,1.13-1.99,2.17-3.01,3.1ZM21.59,67.93c1.49,1.39,2.94,2.53,4.32,3.37,3.74-1.01,7.21-3.12,10.06-6.13-1.53-1.57-3.99-3.27-7.16-4.94-.66,2.58-2.23,4.75-4.66,6.46-.75.52-1.6.94-2.55,1.23ZM7.66,66.19c1.86,2.36,4.6,4.14,7.87,5.08.95-.84,1.89-1.78,2.82-2.81-3.12.12-6.84-.67-10.69-2.26ZM6.88,65.08c4.42,2,8.71,2.92,12.12,2.62.21-.24.41-.49.61-.73-1.84-1.9-3.76-4.21-5.72-6.86h0c-.98.11-1.98.21-2.99.27-1.49.1-3.01.03-4.52-.21-.34.41-.68.82-1,1.23.28,1.3.79,2.54,1.5,3.68ZM20.56,66.93c.15.15.29.29.44.44,1.03-.27,1.95-.69,2.74-1.24,2.34-1.64,3.83-3.74,4.42-6.22-.73-.37-1.49-.74-2.28-1.11-1.61,2.99-3.39,5.72-5.32,8.14ZM14.7,60.01c1.84,2.47,3.64,4.62,5.36,6.41,1.87-2.36,3.6-5.02,5.17-7.92-.36-.16-.73-.33-1.11-.49-3.05.91-6.22,1.59-9.43,2ZM28.96,59.52c3.3,1.73,5.87,3.49,7.48,5.13.36-.4.71-.82,1.05-1.24.83-1.05,1.17-2.2,1.01-3.39-.26-1.95-1.85-4.06-4.59-6.11-1.43.83-3.04,1.61-4.79,2.33h0c.09,1.14.04,2.24-.16,3.27h0ZM3.81,63.52c.64.36,1.3.71,1.96,1.04-.4-.78-.72-1.6-.95-2.44-.35.47-.69.94-1.02,1.41ZM3.48,45.73c-2.26.22-4.3.68-6.07,1.35-2.63,1.01-4.04,2.47-4.19,4.34-.27,3.37,3.73,8.07,9.97,11.75.44-.64.92-1.3,1.43-1.95h0s0,0,0,0c-.09-.47-.15-.95-.19-1.44h0c-4.51-1.13-8.3-3.67-8.19-5.5.07-1.06.81-2.39,3.96-2.69,1.53-.15,3.47-.05,5.77.28h0s0,0,0,0c.49-1.2,1.09-2.4,1.79-3.58h0s0,0,0,0c-.33-.95-.6-1.86-.81-2.72-1.2,0-2.38.05-3.48.16ZM26.21,58.16c.72.33,1.42.67,2.09,1.01.14-.85.18-1.74.13-2.66-.56.22-1.13.43-1.71.64-.17.34-.34.67-.51,1ZM5.16,59.95c.02.18.03.35.06.52.12-.15.24-.29.36-.44-.14-.03-.28-.06-.42-.08ZM6.92,59.54c1.32.18,2.64.22,3.93.14.87-.06,1.74-.13,2.59-.23-.48-.73-1.42-2.22-2.45-4.1-1.44,1.33-2.81,2.74-4.07,4.19ZM11.52,54.86c1.23,2.26,2.35,3.97,2.7,4.5,3.01-.37,5.99-.97,8.87-1.79-3.41-1.42-7.05-2.65-10.57-3.59-.34.29-.67.58-1,.88ZM25.17,57.69c.13.06.26.12.4.18.07-.13.13-.25.2-.38-.2.07-.4.13-.6.2h.01s0,0,0,0ZM5.11,59.21c.33.07.65.14.98.19,1.39-1.63,2.92-3.21,4.55-4.7h0s0,0,0,0c-.23-.44-.47-.9-.71-1.37-1.22-.28-2.4-.51-3.5-.68-.49,1.28-.86,2.57-1.09,3.83-.17.92-.25,1.84-.22,2.74ZM13.19,53.43c3.68,1.01,7.46,2.33,10.98,3.83.69-.21,1.38-.44,2.05-.67.57-1.15,1.11-2.33,1.59-3.49-.31-1.08-.74-2.19-1.28-3.3-1.62-.69-3.34-1.32-5.11-1.87-2.78,1.42-5.54,3.27-8.24,5.5ZM.28,52.29c-2.13.21-3.25.89-3.32,2.04-.07,1.13,2.85,3.52,7.45,4.72-.01-.88.07-1.79.24-2.69.23-1.25.6-2.53,1.07-3.8-2.18-.31-4.01-.4-5.44-.26ZM28.1,54.22c-.3.68-.61,1.35-.93,2.03.4-.15.8-.3,1.19-.46-.06-.51-.15-1.04-.26-1.57ZM28.56,53.14c.22.8.38,1.6.48,2.37,1.54-.64,2.96-1.33,4.24-2.06-1.16-.81-2.48-1.6-3.93-2.34-.25.67-.51,1.35-.79,2.03ZM29.59,50.44c1.63.83,3.09,1.71,4.36,2.62,3.62-2.17,5.66-4.45,5.32-5.99-.25-1.15-1.91-1.93-4.66-2.21-1.1-.11-2.26-.11-3.44,0-.36,1.74-.89,3.62-1.58,5.57h0s0,0,0,0ZM10.83,53.55c.12.23.23.45.35.67.17-.15.34-.31.52-.46-.29-.07-.58-.15-.87-.22ZM27.51,50.22c.27.62.51,1.24.72,1.85.17-.43.33-.86.49-1.28-.39-.19-.8-.38-1.21-.57ZM10.42,52.72c.64.15,1.28.31,1.94.48h0c2.64-2.23,5.36-4.1,8.1-5.56-3.38-.98-6.85-1.63-10.12-1.91-.65.86-1.25,1.75-1.79,2.64.49,1.37,1.12,2.83,1.87,4.35ZM6.7,51.98c.9.15,1.85.33,2.83.54-.56-1.16-1.04-2.29-1.45-3.37-.53.94-.99,1.88-1.38,2.82ZM27.05,49.25c.65.28,1.29.57,1.9.87.64-1.81,1.13-3.55,1.48-5.17-1.65.22-3.36.64-5.11,1.27.65,1,1.24,2.01,1.73,3.02ZM22.34,47.48c1.27.41,2.51.86,3.71,1.35-.42-.79-.89-1.57-1.4-2.35-.76.29-1.53.63-2.3,1ZM10.84,45.06c3.41.32,7.03,1.05,10.52,2.11.96-.48,1.93-.92,2.88-1.29-1.95-2.8-4.38-5.32-6.89-7.14-2.38,1.76-4.61,3.93-6.5,6.32ZM7.69,45.58c.15.62.34,1.26.56,1.92.39-.62.81-1.24,1.25-1.84-.61-.04-1.22-.07-1.81-.08ZM24.91,45.62h0c1.94-.71,3.84-1.18,5.67-1.4.57-3.01.57-5.41-.02-6.96-.87-2.31-2.98-2.6-4.6-2.45-2.3.22-5.13,1.46-8.02,3.5,2.55,1.89,5.01,4.46,6.97,7.31h0ZM7.53,44.87c.81.01,1.64.05,2.47.12h0c1.93-2.51,4.25-4.81,6.73-6.67-3.34-2.25-6.26-2.81-7.76-1.39-1.73,1.64-2.21,4.31-1.45,7.94Z"/><path class="cls-5" d="M144.89-27.66c.33-.02.65-.03.98-.03,2.37.02,3.95.77,4.68,2.22,1.19,2.34-.05,6.38-3.38,11.11,6.43,4.06,10.31,9.02,9.9,12.69-.24,2.16-1.85,3.78-4.79,4.8-2.71.95-6.01,1.38-9.69,1.27.66,3.84,0,6.66-1.93,8.4-.6.53-1.35.84-2.22.9-1.79.12-4.12-.81-6.58-2.62-3.12,2.09-6.19,3.34-8.67,3.51-2.64.18-4.51-.91-5.24-3.06-.57-1.65-.52-4.11.12-7.14-1.16.06-2.29.02-3.37-.12-3.93-.51-5-1.87-5.19-2.92-.35-1.87,1.68-4.2,5.59-6.43-2.69-2.2-4.22-4.45-4.44-6.54-.15-1.4.28-2.7,1.28-3.88.37-.45.76-.88,1.16-1.29-1.09-1.33-1.59-2.59-1.47-3.72.1-.97.63-1.84,1.59-2.59.24-.31,1.74-2.08,4.61-2.27,2.02-.14,4.24.55,6.6,2.04,3.38-.75,6.88-.64,10.09.31,3.49-2.84,6.98-4.39,10.37-4.62ZM146.57-14.73c3.15-4.46,4.41-8.34,3.35-10.42-.61-1.2-1.97-1.81-4.06-1.83-3.44-.03-6.96,1.39-10.54,4.21,3.62,1.26,6.55,3.52,8.31,6.42h0c1,.49,1.98,1.04,2.94,1.62ZM123.46-23.11c-2-1.16-3.88-1.69-5.58-1.58-2.75.19-4.11,2.01-4.12,2.03l-.07.07c-.82.63-1.28,1.35-1.36,2.13-.09.93.33,1.99,1.27,3.15,2.85-2.82,6.24-4.81,9.86-5.8ZM133.86-22.49c-2.75-.74-5.7-.85-8.61-.31,1.32.93,2.68,2.11,4.06,3.51h0c.46-.09.94-.15,1.44-.19h0c1.02-1.1,2.06-2.11,3.1-3.01ZM128.51-19.09c-1.45-1.44-2.86-2.61-4.21-3.5-3.77.9-7.3,2.91-10.24,5.82,1.48,1.61,3.89,3.39,7.01,5.15.74-2.56,2.37-4.68,4.85-6.32.76-.5,1.63-.89,2.59-1.15ZM142.38-16.94c-1.78-2.41-4.48-4.27-7.72-5.31-.97.81-1.94,1.72-2.9,2.73,3.12-.03,6.82.87,10.62,2.58ZM143.13-15.81c-4.35-2.13-8.62-3.18-12.04-2.98-.21.23-.42.47-.63.71,1.78,1.95,3.64,4.32,5.51,7.03h0c.99-.09,1.99-.15,3-.18,1.49-.05,3.01.06,4.51.34.36-.4.7-.8,1.04-1.2-.24-1.31-.71-2.56-1.39-3.73ZM129.51-18.06c-.14-.15-.29-.3-.43-.45-1.04.24-1.97.63-2.77,1.16-2.39,1.57-3.94,3.62-4.6,6.08.72.39,1.47.79,2.25,1.18,1.7-2.94,3.56-5.62,5.56-7.97ZM135.16-10.97c-1.76-2.52-3.5-4.73-5.17-6.56-1.93,2.3-3.75,4.91-5.4,7.76.36.17.72.35,1.09.52,3.08-.82,6.26-1.4,9.48-1.72ZM120.89-10.91c-3.24-1.82-5.76-3.67-7.32-5.36-.37.39-.73.8-1.08,1.21-.87,1.03-1.24,2.16-1.11,3.36.21,1.95,1.73,4.11,4.41,6.25,1.46-.79,3.09-1.52,4.86-2.19h0c-.05-1.14.03-2.24.26-3.27h0ZM146.15-14.16c-.63-.38-1.28-.75-1.93-1.09.38.79.67,1.62.87,2.47.37-.46.72-.92,1.06-1.38ZM145.95,3.64c2.26-.15,4.32-.55,6.11-1.17,2.66-.93,4.11-2.34,4.32-4.21.37-3.36-3.48-8.18-9.62-12.04-.46.63-.96,1.27-1.48,1.91h0s0,0,0,0c.07.47.12.96.14,1.44h0c4.47,1.26,8.19,3.91,8.02,5.74-.1,1.06-.88,2.36-4.04,2.57-1.53.1-3.47-.05-5.76-.46h0s0,0,0,0c-.53,1.18-1.16,2.36-1.89,3.52h0s0,0,0,0c.3.96.55,1.88.72,2.74,1.2.04,2.38.02,3.49-.05ZM123.6-9.47c-.71-.35-1.4-.72-2.06-1.08-.17.84-.23,1.73-.21,2.65.56-.2,1.14-.4,1.72-.59.18-.33.36-.66.54-.99ZM144.7-10.62c-.01-.18-.02-.35-.04-.53-.12.14-.25.29-.37.43.14.03.28.06.41.1ZM142.92-10.27c-1.32-.22-2.63-.3-3.93-.26-.87.03-1.74.08-2.59.15.46.74,1.35,2.26,2.33,4.17,1.48-1.29,2.89-2.65,4.19-4.06ZM138.18-5.73c-1.16-2.3-2.23-4.04-2.57-4.58-3.02.28-6.02.79-8.92,1.52,3.37,1.52,6.96,2.86,10.46,3.91.35-.28.69-.56,1.03-.85ZM124.63-8.97c-.13-.06-.26-.13-.39-.19-.07.12-.14.25-.21.37.2-.06.4-.12.6-.18h-.01s0,0,0,0ZM144.72-9.89c-.32-.08-.65-.16-.97-.22-1.44,1.59-3.01,3.12-4.68,4.56h0s0,0,0,0c.22.45.44.91.67,1.39,1.22.31,2.38.58,3.48.79.53-1.27.94-2.54,1.21-3.79.2-.92.3-1.83.31-2.73ZM136.48-4.35c-3.65-1.12-7.39-2.55-10.86-4.16-.7.19-1.39.39-2.07.61-.61,1.14-1.18,2.29-1.7,3.44.28,1.09.68,2.21,1.18,3.34,1.6.74,3.3,1.42,5.05,2.02,2.82-1.34,5.64-3.1,8.4-5.25ZM149.35-2.82c2.14-.14,3.28-.8,3.38-1.94.11-1.12-2.74-3.61-7.31-4.94-.02.88-.12,1.79-.32,2.69-.27,1.25-.67,2.51-1.19,3.77,2.17.38,3.99.52,5.43.42ZM121.59-5.59c.32-.67.65-1.34.99-2-.41.14-.81.28-1.21.42.04.51.12,1.04.22,1.58ZM121.1-4.52c-.2-.81-.34-1.61-.41-2.39-1.56.6-3,1.24-4.3,1.93,1.13.85,2.43,1.67,3.86,2.46.27-.66.55-1.34.85-2.01ZM119.99-1.85c-1.6-.88-3.04-1.8-4.28-2.75-3.69,2.06-5.79,4.28-5.5,5.83.22,1.16,1.85,1.99,4.59,2.35,1.1.14,2.26.18,3.44.1.41-1.73,1-3.59,1.75-5.52h0s0,0,0,0ZM138.83-4.4c-.11-.23-.22-.46-.33-.68-.18.15-.35.3-.53.44.29.08.58.16.86.24ZM122.07-1.57c-.25-.63-.48-1.25-.66-1.87-.18.42-.36.84-.52,1.26.39.2.78.41,1.19.6ZM139.22-3.56c-.63-.17-1.27-.35-1.92-.54h0c-2.71,2.15-5.48,3.94-8.26,5.32,3.35,1.08,6.8,1.84,10.06,2.21.67-.84,1.3-1.71,1.86-2.59-.45-1.38-1.04-2.87-1.74-4.41ZM142.91-2.71c-.9-.17-1.84-.38-2.82-.63.52,1.18.97,2.32,1.35,3.41.55-.92,1.05-1.85,1.47-2.78ZM122.49-.59c-.64-.3-1.27-.61-1.87-.93-.69,1.79-1.24,3.51-1.63,5.12,1.65-.17,3.38-.54,5.15-1.12-.62-1.02-1.18-2.05-1.64-3.07ZM127.15,1.33c-1.26-.45-2.48-.94-3.66-1.46.39.8.84,1.6,1.33,2.39.77-.27,1.55-.58,2.33-.93ZM138.57,4.08c-3.4-.43-7-1.26-10.45-2.42-.98.45-1.95.86-2.91,1.2,1.87,2.86,4.22,5.44,6.68,7.34,2.43-1.69,4.73-3.79,6.68-6.12ZM141.73,3.66c-.13-.62-.3-1.27-.5-1.94-.41.61-.85,1.21-1.31,1.8.61.06,1.21.1,1.81.14ZM124.52,3.1h0c-1.96.65-3.88,1.06-5.71,1.23-.66,2.99-.73,5.39-.19,6.96.8,2.33,2.9,2.69,4.53,2.58,2.3-.16,5.17-1.31,8.12-3.25-2.49-1.96-4.87-4.61-6.75-7.52h0ZM141.87,4.37c-.81-.04-1.63-.1-2.47-.19h0c-2.01,2.45-4.39,4.68-6.92,6.47,3.27,2.35,6.17,2.99,7.71,1.62,1.77-1.58,2.34-4.24,1.68-7.9Z"/><path class="cls-5" d="M326.52-4.05c-.32-.07-.63-.16-.94-.26-2.26-.71-3.56-1.88-3.84-3.48-.46-2.59,1.9-6.09,6.46-9.65-4.97-5.75-7.25-11.62-5.79-15.02.85-2,2.87-3.08,5.97-3.21,2.87-.12,6.15.43,9.64,1.6.48-3.86,1.93-6.38,4.29-7.47.73-.34,1.53-.41,2.38-.21,1.75.4,3.71,1.97,5.53,4.41,3.6-1.1,6.89-1.4,9.31-.84,2.58.6,4.05,2.18,4.13,4.45.06,1.75-.69,4.09-2.19,6.79,1.12.28,2.2.64,3.19,1.09,3.62,1.63,4.24,3.24,4.12,4.3-.21,1.89-2.83,3.53-7.22,4.53,1.94,2.89,2.75,5.49,2.35,7.55-.27,1.38-1.06,2.5-2.35,3.35-.49.32-.99.62-1.49.9.66,1.59.77,2.94.33,3.99-.37.9-1.14,1.58-2.28,2.02-.32.23-2.27,1.48-5.07.84-1.98-.46-3.9-1.76-5.72-3.87-3.45-.26-6.77-1.38-9.56-3.23-4.17,1.7-7.96,2.18-11.27,1.41ZM328.67-16.9c-4.31,3.35-6.64,6.7-6.23,8.99.23,1.32,1.36,2.31,3.35,2.93,3.29,1.03,7.07.69,11.31-.96-3.1-2.25-5.24-5.27-6.09-8.56h0c-.81-.76-1.6-1.57-2.34-2.4ZM348.34-2.18c1.58,1.69,3.22,2.74,4.89,3.13,2.69.62,4.51-.73,4.53-.74l.09-.05c.97-.37,1.62-.92,1.92-1.64.36-.86.26-2-.3-3.38-3.54,1.87-7.37,2.79-11.12,2.69ZM338.58-5.79c2.42,1.51,5.21,2.47,8.15,2.79-.99-1.27-1.95-2.79-2.87-4.54h0c-.47-.05-.95-.13-1.44-.23h0c-1.29.76-2.58,1.43-3.84,1.98ZM344.68-7.49c.97,1.79,1.98,3.33,3.02,4.57,3.86.23,7.83-.66,11.49-2.6-.95-1.97-2.74-4.37-5.21-6.97-1.45,2.24-3.63,3.8-6.48,4.64-.88.26-1.82.38-2.81.35ZM332.03-13.58c1.01,2.83,3.04,5.39,5.84,7.32,1.17-.49,2.36-1.09,3.57-1.77-2.99-.88-6.27-2.81-9.41-5.55ZM331.64-14.88c3.55,3.3,7.32,5.55,10.65,6.35.27-.16.54-.33.81-.5-1.14-2.39-2.23-5.19-3.24-8.33h0c-.97-.21-1.95-.44-2.92-.7-1.44-.38-2.86-.93-4.22-1.64-.46.28-.9.56-1.34.85-.15,1.32-.06,2.66.25,3.97ZM344.02-8.77c.09.19.19.37.28.55,1.07.07,2.07-.03,2.99-.31,2.74-.81,4.82-2.32,6.17-4.49-.57-.59-1.18-1.18-1.81-1.78-2.48,2.32-5.04,4.34-7.63,6.02ZM340.67-17.19c.95,2.92,1.98,5.54,3.04,7.78,2.52-1.64,5.01-3.61,7.43-5.86-.29-.27-.59-.54-.89-.81-3.18-.11-6.4-.48-9.57-1.11ZM354.35-13.11c2.58,2.69,4.45,5.18,5.45,7.25.47-.26.93-.55,1.39-.85,1.13-.73,1.81-1.71,2.04-2.89.37-1.93-.46-4.44-2.4-7.26-1.62.33-3.4.56-5.29.68h0c-.28,1.11-.68,2.13-1.19,3.05h0ZM329.23-17.33c.49.55,1.01,1.09,1.53,1.61-.13-.87-.17-1.75-.12-2.62-.49.33-.96.67-1.41,1.01ZM334.59-34.3c-2.21-.51-4.29-.73-6.18-.65-2.81.11-4.62,1.05-5.35,2.78-1.33,3.11.96,8.84,5.7,14.31.63-.47,1.29-.94,1.97-1.39h0s0,0,0,0c.07-.48.16-.95.28-1.42h0c-3.91-2.51-6.7-6.12-6-7.83.4-.98,1.53-2,4.61-1.29,1.5.35,3.31,1.06,5.38,2.11h0s0,0,0,0c.85-.98,1.8-1.92,2.83-2.82h0s0,0,0,0c-.01-1,.02-1.95.1-2.83-1.14-.39-2.27-.71-3.35-.96ZM352.17-15.27c.58.55,1.13,1.09,1.66,1.63.4-.76.73-1.59.97-2.48-.6.03-1.21.05-1.82.06-.27.26-.54.53-.81.79ZM331.65-20.3c-.04.17-.08.34-.11.52.16-.1.32-.2.48-.3-.12-.07-.25-.14-.37-.21ZM333.45-20.12c1.2.59,2.43,1.05,3.68,1.39.85.22,1.69.43,2.53.61-.22-.84-.64-2.55-1.02-4.67-1.79.8-3.54,1.7-5.19,2.67ZM339.31-23.09c.45,2.54.96,4.51,1.13,5.13,2.97.61,5.99.99,8.98,1.14-2.78-2.43-5.83-4.76-8.87-6.78-.41.17-.83.34-1.23.51ZM351.33-16.05c.11.1.21.2.32.29.1-.1.21-.2.31-.3-.21,0-.42,0-.63,0h0s0,0,0,0ZM331.84-21c.28.17.58.34.87.5,1.84-1.1,3.79-2.11,5.81-3.01h0s0,0,0,0c-.08-.49-.16-1-.23-1.53-1.07-.65-2.11-1.25-3.1-1.76-.87,1.06-1.63,2.16-2.26,3.28-.46.82-.82,1.67-1.08,2.52ZM341.34-23.91c3.17,2.13,6.33,4.58,9.19,7.13.72.02,1.45.03,2.15.02.91-.91,1.79-1.85,2.62-2.8.05-1.12,0-2.31-.16-3.54-1.32-1.18-2.75-2.32-4.25-3.4-3.09.46-6.3,1.33-9.56,2.58ZM329.47-29.11c-2.09-.48-3.37-.19-3.8.87-.43,1.04,1.58,4.25,5.56,6.85.27-.84.64-1.67,1.09-2.48.62-1.11,1.37-2.21,2.23-3.26-1.96-.99-3.67-1.65-5.08-1.98ZM355.22-18.41c-.5.55-1.01,1.09-1.53,1.63.43-.01.86-.03,1.28-.05.11-.5.19-1.03.25-1.57ZM356-19.28c-.05.83-.15,1.64-.3,2.4,1.66-.12,3.23-.32,4.68-.6-.84-1.14-1.84-2.31-2.98-3.48-.45.56-.92,1.12-1.4,1.67ZM357.84-21.51c1.28,1.31,2.39,2.61,3.3,3.88,4.13-.9,6.78-2.42,6.95-3.98.13-1.17-1.19-2.44-3.71-3.58-1.01-.46-2.11-.83-3.26-1.1-.9,1.54-2,3.14-3.28,4.77h0s0,0,0,0ZM339.07-24.55c.04.25.08.5.12.75.21-.09.42-.18.64-.27-.25-.16-.5-.32-.75-.48ZM355.93-22.38c.06.67.09,1.34.09,1.98.3-.35.59-.7.87-1.06-.31-.31-.63-.62-.96-.92ZM338.94-25.46c.56.34,1.12.7,1.68,1.07h0c3.22-1.27,6.39-2.17,9.45-2.69-2.89-2-5.98-3.73-8.99-5.04-.89.61-1.74,1.26-2.53,1.93.03,1.46.16,3.04.38,4.72ZM335.65-27.35c.81.43,1.65.9,2.51,1.42-.16-1.28-.26-2.5-.3-3.65-.8.72-1.54,1.47-2.21,2.23ZM355.81-23.45c.53.47,1.04.95,1.52,1.43,1.18-1.51,2.2-3,3.05-4.43-1.63-.32-3.39-.46-5.25-.43.3,1.16.53,2.3.68,3.42ZM351.91-26.64c1.07.79,2.1,1.62,3.08,2.46-.15-.88-.34-1.77-.58-2.67-.81.04-1.65.11-2.5.21ZM341.78-32.59c3.13,1.39,6.33,3.23,9.3,5.35,1.07-.15,2.12-.25,3.14-.3-.96-3.28-2.46-6.44-4.26-8.96-2.82.91-5.63,2.26-8.17,3.92ZM338.63-33.1c-.05.63-.08,1.3-.09,2,.57-.46,1.16-.91,1.77-1.35-.57-.23-1.13-.45-1.69-.65ZM354.94-27.57h0c2.07-.05,4.02.11,5.82.48,1.5-2.67,2.26-4.95,2.2-6.61-.09-2.47-2-3.42-3.58-3.79-2.25-.52-5.33-.25-8.72.76,1.82,2.6,3.32,5.82,4.28,9.15h0ZM338.7-33.82c.76.27,1.53.57,2.31.9h0c2.63-1.77,5.56-3.2,8.5-4.18-2.44-3.2-5.04-4.66-6.91-3.79-2.16,1-3.47,3.38-3.9,7.07Z"/><g><path class="cls-1" d="M-6.86,2.89c20.42,6.07,14.48,39.07-2.19,39.24-6.31.06-26.77-1.24-24.98-21.67C-33.06,9.5-22.08-1.63-6.86,2.89Z"/><path class="cls-8" d="M-10.18,16.94S-3.44,11.26-2.13,11.46s-.5,3.86-.5,3.86c0,0,4.06-.67,3.81.87-.09.53-14.02,5.22-11.36.74Z"/></g><path class="cls-3" d="M173.61,58.46c20.31,6.44,13.76,39.33-2.9,39.19-6.31-.05-26.75-1.73-24.58-22.12,1.16-10.94,12.34-21.87,27.48-17.07Z"/><g><path class="cls-5" d="M72.38,8.79s33.59.65,35.06,0,.55-8.98-4.77-9.2-3.59,1.3-4.33,1.08.66-10.76-8.15-10.74c-6.98.02-7.89,5.63-8.26,8.24-.37,2.6-1.28-5.21-7.53-2.6s-3.3,7.37-3.3,7.37c0,0-4.72-5.08-7.84,2.73-1.9,4.75,9.12,3.13,9.12,3.13Z"/><path class="cls-3" d="M92.95,12.53s3.35-1.78,3.6-1.51.16,5.93.16,5.93c0,0,3.38-1.71,4.11-1.27s.5,9.17.19,8.66-1.95-5.62-2.48-5.37-3.23,1.38-3.23,1.38l-2.35-7.82Z"/><path class="cls-3" d="M84.65,12.18s4.35.33,4.43.75-3.5,5.86-3.5,5.86c0,0,4.34.42,4.77,1.3s-5.17,9.21-5.15,8.53,1.57-6.66.89-6.75-3.99-.65-3.99-.65l2.54-9.05Z"/><path class="cls-3" d="M75.89,11.13s3.27,1.91,3.17,2.28-4.96,3.25-4.96,3.25c0,0,3.23,1.98,3.23,2.83s-7.54,5.23-7.27,4.7,3.76-4.61,3.26-4.93-2.87-2.03-2.87-2.03l5.43-6.1Z"/></g><g><path class="cls-5" d="M75.45,52.96s33.59.65,35.06,0,.55-8.98-4.77-9.2c-5.32-.22-3.59,1.3-4.33,1.08s.66-10.76-8.15-10.74c-6.98.02-7.89,5.63-8.26,8.24-.37,2.6-1.28-5.21-7.53-2.6-6.24,2.6-3.3,7.37-3.3,7.37,0,0-4.72-5.08-7.84,2.73-1.9,4.75,9.12,3.13,9.12,3.13Z"/><path class="cls-6" d="M91.27,54.97c-.92.19-4.54,4.51-1.38,4.62,1.83.06,1.72-4.37,1.38-4.62Z"/><path class="cls-6" d="M83.93,55.89c-.92.19-4.54,4.51-1.38,4.62,1.83.06,1.72-4.37,1.38-4.62Z"/><path class="cls-6" d="M78.01,55.89c-.92.19-4.54,4.51-1.38,4.62,1.83.06,1.72-4.37,1.38-4.62Z"/><path class="cls-6" d="M79.43,63.58c-.92.19-4.54,4.51-1.38,4.62,1.83.06,1.72-4.37,1.38-4.62Z"/><path class="cls-6" d="M86.78,61.26c-.92.19-4.54,4.51-1.38,4.62,1.83.06,1.72-4.37,1.38-4.62Z"/><path class="cls-6" d="M92.7,64.56c-.92.19-4.54,4.51-1.38,4.62,1.83.06,1.72-4.37,1.38-4.62Z"/><path class="cls-6" d="M96.09,57.28c-.92.19-4.54,4.51-1.38,4.62,1.83.06,1.72-4.37,1.38-4.62Z"/><path class="cls-6" d="M99.46,62.69c-.92.19-4.54,4.51-1.38,4.62,1.83.06,1.72-4.37,1.38-4.62Z"/><path class="cls-6" d="M101.79,55.89c-.92.19-4.54,4.51-1.38,4.62,1.83.06,1.72-4.37,1.38-4.62Z"/></g><g><path class="cls-5" d="M287.16,7.65s33.59.65,35.06,0c1.47-.65.55-8.98-4.77-9.2s-3.59,1.3-4.33,1.08.66-10.76-8.15-10.74c-6.98.02-7.89,5.63-8.26,8.24s-1.28-5.21-7.53-2.6c-6.24,2.6-3.3,7.37-3.3,7.37,0,0-4.72-5.08-7.84,2.73-1.9,4.75,9.12,3.13,9.12,3.13Z"/><path class="cls-6" d="M302.99,9.65c-.92.19-4.54,4.51-1.38,4.62,1.83.06,1.72-4.37,1.38-4.62Z"/><path class="cls-6" d="M295.64,10.57c-.92.19-4.54,4.51-1.38,4.62,1.83.06,1.72-4.37,1.38-4.62Z"/><path class="cls-6" d="M289.72,10.57c-.92.19-4.54,4.51-1.38,4.62,1.83.06,1.72-4.37,1.38-4.62Z"/><path class="cls-6" d="M291.15,18.26c-.92.19-4.54,4.51-1.38,4.62,1.83.06,1.72-4.37,1.38-4.62Z"/><path class="cls-6" d="M298.49,15.95c-.92.19-4.54,4.51-1.38,4.62,1.83.06,1.72-4.37,1.38-4.62Z"/><path class="cls-6" d="M296.57,23.26c-.92.19-4.54,4.51-1.38,4.62,1.83.06,1.72-4.37,1.38-4.62Z"/><path class="cls-6" d="M304.41,19.25c-.92.19-4.54,4.51-1.38,4.62,1.83.06,1.72-4.37,1.38-4.62Z"/><path class="cls-6" d="M307.81,11.96c-.92.19-4.54,4.51-1.38,4.62,1.83.06,1.72-4.37,1.38-4.62Z"/><path class="cls-6" d="M311.18,17.37c-.92.19-4.54,4.51-1.38,4.62,1.83.06,1.72-4.37,1.38-4.62Z"/><path class="cls-6" d="M313.5,10.57c-.92.19-4.54,4.51-1.38,4.62,1.83.06,1.72-4.37,1.38-4.62Z"/></g><path class="cls-5" d="M220.01,32.23s-.79,15.69-1.2,16.05-15.47-6.44-16.56-5.73-2.73,19.25-2.73,19.25c0,0-4.35-1.27-5.29-.93s4.82,11.7,4.82,11.7c0,0,11.32-8.89,10.12-9.34s-5.59-.74-5.59-.74c0,0,2.14-13.96,2.82-13.52s16.27,6.32,16.48,5c.22-1.32,5.35-17.26,5.35-17.26l-8.22-4.47Z"/><path class="cls-5" d="M319.72,35.68s6.48-14.31,6.99-14.5,12.04,11.66,13.31,11.39,9.58-16.92,9.58-16.92c0,0,3.58,2.77,4.58,2.81s-.21-12.66-.21-12.66c0,0-13.79,4.13-12.84,4.99s4.94,2.74,4.94,2.74c0,0-7.1,12.2-7.57,11.55s-12.83-11.83-13.51-10.68-11.29,14.1-11.29,14.1l6.02,7.17Z"/><g><path class="cls-4" d="M120.4,30.73s4.67-4.42,11.71-3.21c6.19,1.06,6.72,9.04,7.21,10.04,1.58,3.25,2.98,4.79,2.45,5.17s-2.86.48-2.61.86.81,1.24.58,1.56c-.62.88-5.15-.72-6,2.29-1.33,4.71,2.83,4.38,5.42,2.96,0,0,.83,2.67.33,3.29s-5.21-.12-5.83,1.62.33,5.09.33,5.59h-13s-.02-2.51-.08-6.26-8.31-15.16-.5-23.91Z"/><path class="cls-5" d="M143.87,42.67s4.44-2.22,4.6-2.17,1.03,2.98.87,3.03-4.71,1.3-4.88,1.3-.6-2.17-.6-2.17Z"/><path class="cls-5" d="M145.07,46.95s4.96-.24,5.09-.12-.26,3.14-.43,3.12-4.84-.71-4.98-.78.33-2.22.33-2.22Z"/><path class="cls-5" d="M144.07,50.98s4.36,2.38,4.41,2.54-1.86,2.55-2,2.44-3.76-3.13-3.85-3.26,1.44-1.73,1.44-1.73Z"/></g><path class="cls-2" d="M53.68-28.17s-12.28-.82-17.94,6.5c-5.67,7.32-.03,14.8,3.14,16.89s7.33,1.26,8,1.6-1.67,5.17-.33,5.17,6-5.16,9.67-5.33,9,.84,12.67-5.25c3.02-5.02,2.31-19.31-15.19-19.57Z"/><path class="cls-4" d="M173.27-28.17s12.28-.82,17.94,6.5c5.67,7.32.03,14.8-3.14,16.89-3.17,2.1-7.33,1.26-8,1.6s1.67,5.17.33,5.17-6-5.16-9.67-5.33-9,.84-12.67-5.25c-3.02-5.02-2.31-19.31,15.19-19.57Z"/><g><path class="cls-6" d="M243.91,46.25s-12.28-.82-17.94,6.5-.03,14.8,3.14,16.89c3.17,2.1,7.33,1.26,8,1.6s-1.67,5.17-.33,5.17,6-5.16,9.67-5.33,9,.84,12.67-5.25c3.02-5.02,2.31-19.31-15.19-19.57Z"/><circle class="cls-8" cx="233.46" cy="58.76" r="2.56"/><circle class="cls-8" cx="242.01" cy="58.76" r="2.56"/><circle class="cls-8" cx="250.55" cy="58.76" r="2.56"/></g><path class="cls-5" d="M283.45,24.62c-.93-.37-2.49-.66-3.95-.7-.25-.76-.58-1.48-.98-2.16,1.5-1.57,3.12-3.75,2.84-4.71-.48-1.67-2.15-3.58-4.24-2.69-1.05.45-2.61,1.56-3.73,2.73-.57-.26-1.16-.47-1.77-.63-.07-2.12-.47-4.64-1.32-5.12-1.52-.84-4.05-1.01-4.9,1.1-.41,1.02-.72,2.82-.71,4.4-.3.11-.58.24-.87.38-1.57-1.58-4.03-3.49-5.07-3.19-1.67.48-3.58,2.15-2.69,4.24.45,1.05,1.57,2.62,2.75,3.74-.33.61-.61,1.25-.83,1.91-2.19.03-5.02.42-5.52,1.33-.84,1.52-1.01,4.05,1.1,4.9,1,.4,2.72.7,4.27.71.13.46.28.91.46,1.35-1.44,1.55-2.91,3.58-2.65,4.51.48,1.67,2.15,3.58,4.24,2.69.8-.34,1.91-1.08,2.89-1.93.61.39,1.26.71,1.94.98.08,2.09.48,4.52,1.31,4.98,1.52.84,4.05,1.01,4.9-1.1.33-.83.6-2.18.68-3.51,1.02-.27,1.99-.68,2.88-1.21,1.44,1.25,3.12,2.36,3.93,2.13,1.67-.48,3.58-2.15,2.69-4.24-.36-.84-1.15-2.01-2.05-3.02.24-.53.44-1.07.6-1.64,2.07-.09,4.43-.49,4.89-1.31.84-1.52,1.01-4.05-1.1-4.9ZM268.77,33.53c-3.29.01-5.97-2.62-5.98-5.88s2.64-5.92,5.93-5.93c3.29-.01,5.97,2.62,5.98,5.88.01,3.26-2.64,5.92-5.93,5.93Z"/><path class="cls-5" d="M49.11,54.63s4.71-9.55,10.91-2.16-3.47,9.51-3.92,11.07c-.45,1.57,2.25,4.62,1.22,5.29s-3.83.64-3.83.64c0,0-1.51-4.47-.69-6.61.82-2.14,7.02-3.35,5.08-8.03-2.31-5.57-4.61-.56-4.24.79.36,1.35-5.19,3.51-4.53-1Z"/><g><path class="cls-5" d="M232.84,13.78s7.64-7.41,11.01,1.63c3.51,9.42-6.46,7.79-7.41,9.11s.56,5.11-.63,5.39-3.82-.68-3.82-.68c0,0,.08-4.72,1.57-6.46s7.74-.79,7.48-5.85c-.31-6.02-4.15-2.07-4.26-.68-.11,1.39-6.07,1.56-3.93-2.47Z"/><circle class="cls-5" cx="233.92" cy="33.96" r="2.44"/></g><path class="cls-4" d="M122.54,68.39c-19.89-2.98-27.13,21.16-24.11,26.65,0,0,1.47.02,3.42.04.45-6.87,3.62-22.7,17.01-22.7,15.17,0,17.05,18.49,17.28,22.1,1.31-.11,2.46-.21,3.22-.31,2.83-.35-.82-23.39-16.81-25.78Z"/><g><path class="cls-4" d="M247.09-19.76c-19.89-2.98-27.13,21.16-24.11,26.65,0,0,1.47.02,3.42.04.45-6.87,3.62-22.7,17.01-22.7,15.17,0,17.05,18.49,17.28,22.1,1.31-.11,2.46-.21,3.22-.31,2.83-.35-.82-23.39-16.81-25.78Z"/><path class="cls-6" d="M242.49-10.36c-9.24.71-11.3,12.29-11.76,17.3,2.42-.01,4.62-.07,5.19-.21,1.42-.35-.18-11.52,6.9-12.93,7.09-1.42,7.09,13.07,8.5,13.09.57,0,2.28-.07,4.28-.2-.88-5.44-3.91-17.75-13.12-17.05Z"/><path class="cls-3" d="M243.41-15.77c-13.39,0-16.57,15.83-17.01,22.7,1.32.01,2.87.02,4.34,0,.46-5,2.52-16.59,11.76-17.3,9.21-.71,12.23,11.6,13.12,17.05,1.64-.1,3.47-.23,5.08-.36-.22-3.61-2.11-22.1-17.28-22.1Z"/></g><g><path class="cls-4" d="M14.67-25.54C-4.05-32.88-16.49-10.97-14.77-4.94c0,0,1.42.35,3.32.8,1.97-6.59,8.59-21.32,21.65-18.33C24.98-19.09,22.7-.65,22.11,2.92c1.3.19,2.45.34,3.21.42,2.84.29,4.41-22.98-10.64-28.88Z"/><path class="cls-6" d="M8.09-17.4C-1.07-18.77-5.67-7.94-7.23-3.16c2.37.53,4.52.96,5.1.95,1.46-.03,2.39-11.27,9.61-11.07,7.22.2,3.99,14.32,5.37,14.66.56.14,2.23.43,4.22.76.35-5.5.15-18.18-8.99-19.54Z"/><path class="cls-3" d="M10.19-22.47C-2.86-25.46-9.49-10.73-11.45-4.14c1.29.31,2.79.66,4.22.98,1.56-4.77,6.16-15.61,15.32-14.24,9.14,1.37,9.34,14.04,8.99,19.54,1.62.27,3.43.55,5.03.78.59-3.57,2.87-22.01-11.92-25.4Z"/></g><path class="cls-2" d="M173.45,20.11c-.64.19-1.11.12-1.48-.04-.1-3.69-.25-6.74-.51-6.84-.26-.1-3.31-.13-6.9-.11-.14-.35-.16-.82.15-1.39.83-1.55,1.76-5.58-2.58-5.48-4.34.1-3.41,3.1-2.78,5.27.21.73.1,1.25-.12,1.63-3.79.03-6.99.08-6.99.08,0,0-.02,3.54.01,7.64-.37.31-.96.55-1.8.11-1.55-.83-5.58-1.76-5.48,2.58.1,4.34,3.1,3.41,5.27,2.78,1.11-.32,1.74.06,2.11.52.09,3.37.26,6.11.55,6.32.29.22,3.04.27,6.37.26.13.35.15.8-.15,1.37-.83,1.55-1.76,5.58,2.58,5.48,4.34-.1,3.41-3.1,2.78-5.27-.22-.74-.1-1.26.13-1.64,4.02-.08,7.52-.19,7.52-.19,0,0,0-3.69-.05-7.89.32-.07.71-.05,1.18.2,1.55.83,5.58,1.76,5.48-2.58-.1-4.34-3.1-3.41-5.27-2.78Z"/><path class="cls-3" d="M51.57,13.66c-.32.59-.7.87-1.08,1.01-2.67-2.54-4.94-4.59-5.2-4.48-.26.11-2.43,2.25-4.96,4.8-.35-.15-.69-.46-.88-1.09-.51-1.68-2.7-5.19-5.7-2.05-3,3.14-.22,4.6,1.76,5.69.67.37.96.81,1.07,1.24-2.66,2.7-4.89,5-4.89,5,0,0,2.49,2.52,5.41,5.39-.04.49-.29,1.07-1.2,1.35-1.68.51-5.19,2.7-2.05,5.7,3.14,3,4.6.22,5.69-1.76.55-1.01,1.28-1.19,1.85-1.12,2.45,2.32,4.5,4.13,4.86,4.08.36-.05,2.34-1.96,4.69-4.32.34.15.67.46.86,1.07.51,1.68,2.7,5.19,5.7,2.05,3-3.14.22-4.6-1.76-5.69-.68-.37-.97-.82-1.07-1.25,2.79-2.89,5.18-5.45,5.18-5.45,0,0-2.61-2.61-5.62-5.54.18-.28.46-.54.97-.69,1.68-.51,5.19-2.7,2.05-5.7-3.14-3-4.6-.22-5.69,1.76Z"/><path class="cls-6" d="M189.4,6.39c.59.32.87.7,1.01,1.08-2.54,2.67-4.59,4.94-4.48,5.2.11.26,2.25,2.43,4.8,4.96-.15.35-.46.69-1.09.88-1.68.51-5.19,2.7-2.05,5.7,3.14,3,4.6.22,5.69-1.76.37-.67.81-.96,1.24-1.07,2.7,2.66,5,4.89,5,4.89,0,0,2.52-2.49,5.39-5.41.49.04,1.07.29,1.35,1.2.51,1.68,2.7,5.19,5.7,2.05,3-3.14.22-4.6-1.76-5.69-1.01-.55-1.19-1.28-1.12-1.85,2.32-2.45,4.13-4.5,4.08-4.86-.05-.36-1.96-2.34-4.32-4.69.15-.34.46-.67,1.07-.86,1.68-.51,5.19-2.7,2.05-5.7-3.14-3-4.6-.22-5.69,1.76-.37.68-.82.97-1.25,1.07-2.89-2.79-5.45-5.18-5.45-5.18,0,0-2.61,2.61-5.54,5.62-.28-.18-.54-.46-.69-.97-.51-1.68-2.7-5.19-5.7-2.05-3,3.14-.22,4.6,1.76,5.69Z"/><path class="cls-3" d="M186.07,28.79s7.64,2.53,7.61,4.12-6.71,7.57-6.71,7.57c0,0,6.64,3.34,5.94,4.63s-11.17,11.01-11.91,10.33,3.25-11.34,3.25-11.34l-5.44-2.01,7.26-13.29Z"/><path class="cls-6" d="M16.79,12.38s-1.94,16.61,4.76,15.4c10.34-1.86-2.69-22.1-4.76-15.4Z"/><path class="cls-5" d="M293.15,100.22c-.32.03-.65.05-.98.06-2.37.05-3.97-.65-4.75-2.08-1.26-2.31-.15-6.38,3.05-11.2-6.55-3.86-10.57-8.7-10.28-12.39.17-2.17,1.73-3.83,4.64-4.94,2.69-1.03,5.97-1.56,9.65-1.56-.77-3.82-.21-6.66,1.68-8.45.58-.55,1.32-.88,2.19-.96,1.78-.17,4.14.68,6.65,2.42,3.06-2.19,6.09-3.52,8.56-3.76,2.64-.26,4.53.77,5.33,2.9.62,1.64.65,4.1.09,7.14,1.15-.1,2.29-.09,3.37.02,3.95.39,5.05,1.72,5.28,2.76.41,1.86-1.55,4.25-5.4,6.59,2.76,2.12,4.36,4.32,4.64,6.41.19,1.39-.2,2.71-1.16,3.92-.36.46-.74.9-1.12,1.33,1.13,1.3,1.67,2.54,1.59,3.68-.07.97-.58,1.86-1.52,2.64-.23.32-1.68,2.13-4.54,2.41-2.02.2-4.26-.42-6.65-1.84-3.36.85-6.85.85-10.09-.01-3.41,2.94-6.85,4.6-10.23,4.93ZM291.08,87.35c-3.02,4.55-4.15,8.47-3.04,10.51.64,1.18,2.03,1.75,4.11,1.71,3.44-.07,6.92-1.6,10.41-4.52-3.65-1.15-6.65-3.32-8.5-6.17h0c-1.01-.46-2.01-.98-2.99-1.53ZM314.42,95.03c2.04,1.1,3.93,1.57,5.63,1.41,2.74-.27,4.05-2.13,4.06-2.15l.07-.07c.81-.66,1.24-1.39,1.3-2.17.07-.93-.39-1.98-1.36-3.11-2.76,2.9-6.09,4.99-9.69,6.09ZM304.02,94.72c2.77.66,5.73.68,8.61.05-1.34-.89-2.74-2.02-4.17-3.39h0c-.46.1-.94.18-1.43.24h0c-.98,1.13-1.99,2.17-3.01,3.1ZM309.26,91.17c1.49,1.39,2.94,2.53,4.32,3.37,3.74-1.01,7.21-3.12,10.06-6.13-1.53-1.57-3.99-3.27-7.16-4.94-.66,2.58-2.23,4.75-4.66,6.46-.75.52-1.6.94-2.55,1.23ZM295.33,89.43c1.86,2.36,4.6,4.14,7.87,5.08.95-.84,1.89-1.78,2.82-2.81-3.12.12-6.84-.67-10.69-2.26ZM294.55,88.32c4.42,2,8.71,2.92,12.12,2.62.21-.24.41-.49.61-.73-1.84-1.9-3.76-4.21-5.72-6.86h0c-.98.11-1.98.21-2.99.27-1.49.1-3.01.03-4.52-.21-.34.41-.68.82-1,1.23.28,1.3.79,2.54,1.5,3.68ZM308.23,90.17c.15.15.29.29.44.44,1.03-.27,1.95-.69,2.74-1.24,2.34-1.64,3.83-3.74,4.42-6.22-.73-.37-1.49-.74-2.28-1.11-1.61,2.99-3.39,5.72-5.32,8.14ZM302.37,83.25c1.84,2.47,3.64,4.62,5.36,6.41,1.87-2.36,3.6-5.02,5.17-7.92-.36-.16-.73-.33-1.11-.49-3.05.91-6.22,1.59-9.43,2ZM316.63,82.76c3.3,1.73,5.87,3.49,7.48,5.13.36-.4.71-.82,1.05-1.24.83-1.05,1.17-2.2,1.01-3.39-.26-1.95-1.85-4.06-4.59-6.11-1.43.83-3.04,1.61-4.79,2.33h0c.09,1.14.04,2.24-.16,3.27h0ZM291.48,86.77c.64.36,1.3.71,1.96,1.04-.4-.78-.72-1.6-.95-2.44-.35.47-.69.94-1.02,1.41ZM291.15,68.97c-2.26.22-4.3.68-6.07,1.35-2.63,1.01-4.04,2.47-4.19,4.34-.27,3.37,3.73,8.07,9.97,11.75.44-.64.92-1.3,1.43-1.95h0s0,0,0,0c-.09-.47-.15-.95-.19-1.44h0c-4.51-1.13-8.3-3.67-8.19-5.5.07-1.06.81-2.39,3.96-2.69,1.53-.15,3.47-.05,5.77.28h0s0,0,0,0c.49-1.2,1.09-2.4,1.79-3.58h0s0,0,0,0c-.33-.95-.6-1.86-.81-2.72-1.2,0-2.38.05-3.48.16ZM313.88,81.41c.72.33,1.42.67,2.09,1.01.14-.85.18-1.74.13-2.66-.56.22-1.13.43-1.71.64-.17.34-.34.67-.51,1ZM292.83,83.19c.02.18.03.35.06.52.12-.15.24-.29.36-.44-.14-.03-.28-.06-.42-.08ZM294.59,82.78c1.32.18,2.64.22,3.93.14.87-.06,1.74-.13,2.59-.23-.48-.73-1.42-2.22-2.45-4.1-1.44,1.33-2.81,2.74-4.07,4.19ZM299.19,78.1c1.23,2.26,2.35,3.97,2.7,4.5,3.01-.37,5.99-.97,8.87-1.79-3.41-1.42-7.05-2.65-10.57-3.59-.34.29-.67.58-1,.88ZM312.84,80.93c.13.06.26.12.4.18.07-.13.13-.25.2-.38-.2.07-.4.13-.6.2h.01s0,0,0,0ZM292.78,82.46c.33.07.65.14.98.19,1.39-1.63,2.92-3.21,4.55-4.7h0s0,0,0,0c-.23-.44-.47-.9-.71-1.37-1.22-.28-2.4-.51-3.5-.68-.49,1.28-.86,2.57-1.09,3.83-.17.92-.25,1.84-.22,2.74ZM300.86,76.67c3.68,1.01,7.46,2.33,10.98,3.83.69-.21,1.38-.44,2.05-.67.57-1.15,1.11-2.33,1.59-3.49-.31-1.08-.74-2.19-1.28-3.3-1.62-.69-3.34-1.32-5.11-1.87-2.78,1.42-5.54,3.27-8.24,5.5ZM287.95,75.53c-2.13.21-3.25.89-3.32,2.04-.07,1.13,2.85,3.52,7.45,4.72-.01-.88.07-1.79.24-2.69.23-1.25.6-2.53,1.07-3.8-2.18-.31-4.01-.4-5.44-.26ZM315.77,77.46c-.3.68-.61,1.35-.93,2.03.4-.15.8-.3,1.19-.46-.06-.51-.15-1.04-.26-1.57ZM316.23,76.38c.22.8.38,1.6.48,2.37,1.54-.64,2.96-1.33,4.24-2.06-1.16-.81-2.48-1.6-3.93-2.34-.25.67-.51,1.35-.79,2.03ZM317.26,73.68c1.63.83,3.09,1.71,4.36,2.62,3.62-2.17,5.66-4.45,5.32-5.99-.25-1.15-1.91-1.93-4.66-2.21-1.1-.11-2.26-.11-3.44,0-.36,1.74-.89,3.62-1.58,5.57h0s0,0,0,0ZM298.5,76.79c.12.23.23.45.35.67.17-.15.34-.31.52-.46-.29-.07-.58-.15-.87-.22ZM315.18,73.46c.27.62.51,1.24.72,1.85.17-.43.33-.86.49-1.28-.39-.19-.8-.38-1.21-.57ZM298.09,75.96c.64.15,1.28.31,1.94.48h0c2.64-2.23,5.36-4.1,8.1-5.56-3.38-.98-6.85-1.63-10.12-1.91-.65.86-1.25,1.75-1.79,2.64.49,1.37,1.12,2.83,1.87,4.35ZM294.37,75.22c.9.15,1.85.33,2.83.54-.56-1.16-1.04-2.29-1.45-3.37-.53.94-.99,1.88-1.38,2.82ZM314.72,72.49c.65.28,1.29.57,1.9.87.64-1.81,1.13-3.55,1.48-5.17-1.65.22-3.36.64-5.11,1.27.65,1,1.24,2.01,1.73,3.02ZM310.01,70.72c1.27.41,2.51.86,3.71,1.35-.42-.79-.89-1.57-1.4-2.35-.76.29-1.53.63-2.3,1ZM298.51,68.3c3.41.32,7.03,1.05,10.52,2.11.96-.48,1.93-.92,2.88-1.29-1.95-2.8-4.38-5.32-6.89-7.14-2.38,1.76-4.61,3.93-6.5,6.32ZM295.36,68.82c.15.62.34,1.26.56,1.92.39-.62.81-1.24,1.25-1.84-.61-.04-1.22-.07-1.81-.08ZM312.58,68.86h0c1.94-.71,3.84-1.18,5.67-1.4.57-3.01.57-5.41-.02-6.96-.87-2.31-2.98-2.6-4.6-2.45-2.3.22-5.13,1.46-8.02,3.5,2.55,1.89,5.01,4.46,6.97,7.31h0ZM295.2,68.11c.81.01,1.64.05,2.47.12h0c1.93-2.51,4.25-4.81,6.73-6.67-3.34-2.25-6.26-2.81-7.76-1.39-1.73,1.64-2.21,4.31-1.45,7.94Z"/><g><path class="cls-6" d="M408.69-1.93c-.92.19-4.54,4.51-1.38,4.62,1.83.06,1.72-4.37,1.38-4.62Z"/><path class="cls-6" d="M416.03-4.24c-.92.19-4.54,4.51-1.38,4.62,1.83.06,1.72-4.37,1.38-4.62Z"/><path class="cls-6" d="M414.12,3.07c-.92.19-4.54,4.51-1.38,4.62,1.83.06,1.72-4.37,1.38-4.62Z"/><path class="cls-6" d="M421.95-.94c-.92.19-4.54,4.51-1.38,4.62,1.83.06,1.72-4.37,1.38-4.62Z"/><path class="cls-6" d="M428.72-2.82c-.92.19-4.54,4.51-1.38,4.62,1.83.06,1.72-4.37,1.38-4.62Z"/></g><path class="cls-5" d="M507.68,55.47s-.79,15.69-1.2,16.05-15.47-6.44-16.56-5.73-2.73,19.25-2.73,19.25c0,0-4.35-1.27-5.29-.93s4.82,11.7,4.82,11.7c0,0,11.32-8.89,10.12-9.34s-5.59-.74-5.59-.74c0,0,2.14-13.96,2.82-13.52s16.27,6.32,16.48,5c.22-1.32,5.35-17.26,5.35-17.26l-8.22-4.47Z"/><path class="cls-6" d="M111.83,16.16s-8.42,14.45-1.79,16.02c10.22,2.42,6.36-21.34,1.79-16.02Z"/><path class="cls-5" d="M349.59,44.77c-.3.14-.6.26-.9.38-2.22.83-3.96.69-5.17-.4-1.94-1.77-2.23-5.98-.8-11.58-7.45-1.5-12.84-4.75-13.78-8.33-.55-2.1.38-4.19,2.76-6.19,2.2-1.85,5.12-3.43,8.6-4.64-1.98-3.35-2.38-6.22-1.18-8.53.37-.71.96-1.26,1.76-1.63,1.63-.75,4.14-.71,7.08.1,2.17-3.07,4.6-5.32,6.85-6.36,2.41-1.11,4.53-.76,5.99.99,1.12,1.34,1.95,3.66,2.43,6.71,1.06-.47,2.13-.84,3.19-1.09,3.86-.92,5.33-.03,5.89.87.99,1.62-.08,4.52-2.93,8,3.3,1.1,5.53,2.66,6.48,4.53.63,1.25.7,2.63.19,4.08-.19.55-.4,1.09-.62,1.62,1.5.86,2.41,1.85,2.7,2.95.25.94.06,1.95-.57,2.99-.12.37-.89,2.56-3.5,3.77-1.84.85-4.16,1-6.89.44-2.89,1.91-6.2,3.05-9.54,3.3-2.25,3.9-4.96,6.59-8.05,8.01ZM343.41,33.3c-1.36,5.29-1.15,9.36.58,10.93.99.9,2.49.99,4.45.26,3.23-1.2,6.01-3.78,8.35-7.68-3.83.11-7.37-.96-10.05-3.04h0c-1.11-.11-2.22-.26-3.32-.46ZM367.99,32.89c2.28.37,4.23.2,5.78-.52,2.5-1.15,3.12-3.34,3.13-3.36l.04-.09c.54-.89.72-1.72.51-2.48-.24-.9-1.02-1.74-2.31-2.49-1.66,3.65-4.12,6.71-7.15,8.94ZM358.05,36.01c2.83-.28,5.63-1.24,8.15-2.78-1.56-.4-3.25-1.01-5.05-1.83h0c-.4.25-.83.48-1.28.7h0c-.56,1.39-1.17,2.71-1.82,3.92ZM361.84,30.94c1.86.83,3.6,1.42,5.18,1.77,3.2-2.18,5.78-5.32,7.49-9.09-1.96-.98-4.84-1.78-8.39-2.32.22,2.65-.54,5.22-2.28,7.63-.53.74-1.21,1.41-2.01,2ZM348.11,33.87c2.53,1.62,5.7,2.4,9.1,2.21.62-1.1,1.2-2.3,1.74-3.58-2.9,1.14-6.68,1.62-10.84,1.37ZM347.01,33.08c4.83.44,9.19-.09,12.31-1.5.12-.29.23-.59.34-.89-2.36-1.19-4.94-2.74-7.66-4.61h0c-.89.43-1.81.84-2.74,1.24-1.37.58-2.83,1.01-4.34,1.29-.19.5-.37,1-.54,1.49.69,1.14,1.58,2.14,2.63,2.99ZM360.54,30.33c.19.09.37.18.56.27.88-.6,1.62-1.3,2.18-2.07,1.67-2.32,2.39-4.78,2.13-7.33-.81-.11-1.66-.21-2.52-.3-.54,3.35-1.33,6.52-2.35,9.43ZM352.73,25.72c2.54,1.73,4.95,3.17,7.17,4.29.99-2.84,1.76-5.92,2.28-9.18-.4-.04-.8-.07-1.2-.1-2.58,1.87-5.35,3.54-8.25,4.99ZM366.05,20.58c3.68.55,6.69,1.37,8.75,2.4.21-.5.4-1,.58-1.52.44-1.27.39-2.46-.15-3.53-.89-1.75-3.08-3.23-6.34-4.27-1.08,1.25-2.35,2.52-3.76,3.78h0c.46,1.05.77,2.1.92,3.14h0ZM343.6,32.61c.73.13,1.46.24,2.19.33-.64-.61-1.21-1.28-1.7-2-.18.56-.35,1.12-.5,1.66ZM337.45,15.91c-2.06.95-3.84,2.05-5.29,3.27-2.16,1.81-3.01,3.66-2.53,5.47.85,3.27,6.17,6.4,13.27,7.83.21-.75.44-1.53.71-2.31h0s0,0,0,0c-.24-.42-.46-.85-.65-1.3h0c-4.63.41-9.05-.74-9.54-2.51-.28-1.02-.02-2.52,2.86-3.84,1.39-.64,3.26-1.19,5.55-1.63h0s0,0,0,0c.07-1.29.24-2.62.51-3.96h0s0,0,0,0c-.62-.79-1.18-1.56-1.65-2.3-1.14.39-2.23.82-3.24,1.29ZM363,20.2c.79.08,1.56.17,2.31.27-.15-.84-.4-1.7-.75-2.55-.45.39-.92.78-1.4,1.16-.05.37-.1.74-.16,1.12ZM343.7,28.79c.07.16.15.32.23.48.06-.18.13-.35.19-.53-.14.02-.28.04-.42.06ZM345.23,27.82c1.31-.27,2.57-.66,3.76-1.16.81-.34,1.6-.69,2.37-1.06-.69-.53-2.07-1.63-3.66-3.07-.93,1.73-1.76,3.51-2.47,5.29ZM348.04,21.9c1.91,1.73,3.52,2.98,4.03,3.36,2.72-1.34,5.34-2.88,7.79-4.6-3.69-.22-7.53-.19-11.16.07-.22.38-.45.77-.66,1.16ZM361.86,20.1c.14.01.29.02.43.04.02-.14.04-.28.06-.42-.17.13-.33.25-.5.38h.01s0,0,0,0ZM343.42,28.11c.33-.04.66-.08.99-.14.78-2,1.71-3.99,2.75-5.93h0s0,0,0,0c-.37-.34-.74-.69-1.12-1.06-1.25.14-2.43.31-3.53.5-.04,1.37.03,2.71.22,3.97.14.93.37,1.82.69,2.66ZM349.14,20c3.81-.26,7.81-.25,11.63.02.58-.43,1.16-.86,1.72-1.3.16-1.28.28-2.56.36-3.82-.65-.92-1.42-1.82-2.29-2.7-1.76-.12-3.59-.15-5.44-.09-2.16,2.25-4.17,4.91-5.98,7.9ZM336.58,23.16c-1.95.9-2.78,1.91-2.47,3.01.3,1.09,3.85,2.4,8.59,2.01-.3-.83-.52-1.71-.66-2.62-.19-1.26-.27-2.59-.23-3.95-2.16.42-3.91.94-5.22,1.54ZM363.49,15.85c-.06.74-.13,1.48-.21,2.22.33-.27.66-.55.98-.82-.22-.47-.48-.93-.76-1.39ZM363.57,14.68c.47.69.89,1.38,1.23,2.08,1.24-1.11,2.36-2.23,3.33-3.34-1.36-.39-2.87-.7-4.49-.92-.01.72-.04,1.45-.08,2.18ZM363.66,11.79c1.81.25,3.48.6,4.98,1.05,2.71-3.24,3.88-6.06,3.06-7.4-.62-1-2.44-1.2-5.13-.56-1.08.26-2.17.64-3.25,1.13.23,1.77.34,3.71.33,5.78h0s0,0,0,0ZM346.96,20.88c.19.18.37.35.55.52.11-.2.23-.4.34-.6-.3.03-.6.05-.89.08ZM361.62,12.27c.46.5.89,1,1.29,1.51.02-.46.03-.92.04-1.37-.43-.05-.88-.1-1.33-.14ZM346.3,20.24c.65-.07,1.31-.13,1.99-.18h0c1.77-2.97,3.72-5.63,5.83-7.91-3.51.19-7.01.71-10.19,1.52-.33,1.03-.6,2.06-.82,3.08.92,1.13,1.99,2.31,3.2,3.5ZM342.54,20.76c.9-.16,1.86-.3,2.86-.42-.91-.92-1.74-1.82-2.48-2.7-.19,1.06-.32,2.1-.38,3.12ZM360.87,11.5c.71.05,1.4.12,2.08.2,0-1.92-.09-3.72-.3-5.37-1.49.74-2.97,1.71-4.41,2.88.95.73,1.83,1.5,2.63,2.29ZM355.84,11.37c1.33-.03,2.65,0,3.94.06-.65-.6-1.35-1.19-2.09-1.76-.62.53-1.24,1.1-1.85,1.7ZM344.19,12.87c3.33-.81,6.98-1.32,10.62-1.46.75-.77,1.52-1.5,2.29-2.16-2.76-2.01-5.88-3.58-8.85-4.48-1.67,2.45-3.07,5.23-4.07,8.1ZM341.38,14.39c.35.53.73,1.08,1.16,1.63.17-.71.36-1.43.58-2.15-.59.16-1.17.34-1.73.52ZM357.66,8.77h0c1.6-1.31,3.24-2.37,4.89-3.18-.45-3.03-1.24-5.3-2.3-6.57-1.58-1.9-3.67-1.48-5.15-.8-2.09.97-4.37,3.06-6.43,5.93,3.03.94,6.19,2.57,8.98,4.62h0ZM340.99,13.77c.77-.25,1.56-.49,2.38-.7h0c1-3.01,2.43-5.94,4.17-8.51-3.89-1.03-6.83-.6-7.78,1.23-1.09,2.11-.68,4.8,1.24,7.98Z"/><path class="cls-5" d="M522.02,34.98c.33-.02.65-.03.98-.03,2.37.02,3.95.77,4.68,2.22,1.19,2.34-.05,6.38-3.38,11.11,6.43,4.06,10.31,9.02,9.9,12.69-.24,2.16-1.85,3.78-4.79,4.8-2.71.95-6.01,1.38-9.69,1.27.66,3.84,0,6.66-1.93,8.4-.6.53-1.35.84-2.22.9-1.79.12-4.12-.81-6.58-2.62-3.12,2.09-6.19,3.34-8.67,3.51-2.64.18-4.51-.91-5.24-3.06-.57-1.65-.52-4.11.12-7.14-1.16.06-2.29.02-3.37-.12-3.93-.51-5-1.87-5.19-2.92-.35-1.87,1.68-4.2,5.59-6.43-2.69-2.2-4.22-4.45-4.44-6.54-.15-1.4.28-2.7,1.28-3.88.37-.45.76-.88,1.16-1.29-1.09-1.33-1.59-2.59-1.47-3.72.1-.97.63-1.84,1.59-2.59.24-.31,1.74-2.08,4.61-2.27,2.02-.14,4.24.55,6.6,2.04,3.38-.75,6.88-.64,10.09.31,3.49-2.84,6.98-4.39,10.37-4.62ZM523.7,47.9c3.15-4.46,4.41-8.34,3.35-10.42-.61-1.2-1.97-1.81-4.06-1.83-3.44-.03-6.96,1.39-10.54,4.21,3.62,1.26,6.55,3.52,8.31,6.42h0c1,.49,1.98,1.04,2.94,1.62ZM500.59,39.53c-2-1.16-3.88-1.69-5.58-1.58-2.75.19-4.11,2.01-4.12,2.03l-.07.07c-.82.63-1.28,1.35-1.36,2.13-.09.93.33,1.99,1.27,3.15,2.85-2.82,6.24-4.81,9.86-5.8ZM510.99,40.15c-2.75-.74-5.7-.85-8.61-.31,1.32.93,2.68,2.11,4.06,3.51h0c.46-.09.94-.15,1.44-.19h0c1.02-1.1,2.06-2.11,3.1-3.01ZM505.64,43.55c-1.45-1.44-2.86-2.61-4.21-3.5-3.77.9-7.3,2.91-10.24,5.82,1.48,1.61,3.89,3.39,7.01,5.15.74-2.56,2.37-4.68,4.85-6.32.76-.5,1.63-.89,2.59-1.15ZM519.51,45.7c-1.78-2.41-4.48-4.27-7.72-5.31-.97.81-1.94,1.72-2.9,2.73,3.12-.03,6.82.87,10.62,2.58ZM520.26,46.83c-4.35-2.13-8.62-3.18-12.04-2.98-.21.23-.42.47-.63.71,1.78,1.95,3.64,4.32,5.51,7.03h0c.99-.09,1.99-.15,3-.18,1.49-.05,3.01.06,4.51.34.36-.4.7-.8,1.04-1.2-.24-1.31-.71-2.56-1.39-3.73ZM506.64,44.58c-.14-.15-.29-.3-.43-.45-1.04.24-1.97.63-2.77,1.16-2.39,1.57-3.94,3.62-4.6,6.08.72.39,1.47.79,2.25,1.18,1.7-2.94,3.56-5.62,5.56-7.97ZM512.29,51.66c-1.76-2.52-3.5-4.73-5.17-6.56-1.93,2.3-3.75,4.91-5.4,7.76.36.17.72.35,1.09.52,3.08-.82,6.26-1.4,9.48-1.72ZM498.02,51.73c-3.24-1.82-5.76-3.67-7.32-5.36-.37.39-.73.8-1.08,1.21-.87,1.03-1.24,2.16-1.11,3.36.21,1.95,1.73,4.11,4.41,6.25,1.46-.79,3.09-1.52,4.86-2.19h0c-.05-1.14.03-2.24.26-3.27h0ZM523.28,48.48c-.63-.38-1.28-.75-1.93-1.09.38.79.67,1.62.87,2.47.37-.46.72-.92,1.06-1.38ZM523.08,66.27c2.26-.15,4.32-.55,6.11-1.17,2.66-.93,4.11-2.34,4.32-4.21.37-3.36-3.48-8.18-9.62-12.04-.46.63-.96,1.27-1.48,1.91h0s0,0,0,0c.07.47.12.96.14,1.44h0c4.47,1.26,8.19,3.91,8.02,5.74-.1,1.06-.88,2.36-4.04,2.57-1.53.1-3.47-.05-5.76-.46h0s0,0,0,0c-.53,1.18-1.16,2.36-1.89,3.52h0s0,0,0,0c.3.96.55,1.88.72,2.74,1.2.04,2.38.02,3.49-.05ZM500.73,53.16c-.71-.35-1.4-.72-2.06-1.08-.17.84-.23,1.73-.21,2.65.56-.2,1.14-.4,1.72-.59.18-.33.36-.66.54-.99ZM521.83,52.01c-.01-.18-.02-.35-.04-.53-.12.14-.25.29-.37.43.14.03.28.06.41.1ZM520.05,52.37c-1.32-.22-2.63-.3-3.93-.26-.87.03-1.74.08-2.59.15.46.74,1.35,2.26,2.33,4.17,1.48-1.29,2.89-2.65,4.19-4.06ZM515.31,56.91c-1.16-2.3-2.23-4.04-2.57-4.58-3.02.28-6.02.79-8.92,1.52,3.37,1.52,6.96,2.86,10.46,3.91.35-.28.69-.56,1.03-.85ZM501.76,53.67c-.13-.06-.26-.13-.39-.19-.07.12-.14.25-.21.37.2-.06.4-.12.6-.18h-.01s0,0,0,0ZM521.85,52.75c-.32-.08-.65-.16-.97-.22-1.44,1.59-3.01,3.12-4.68,4.56h0s0,0,0,0c.22.45.44.91.67,1.39,1.22.31,2.38.58,3.48.79.53-1.27.94-2.54,1.21-3.79.2-.92.3-1.83.31-2.73ZM513.6,58.29c-3.65-1.12-7.39-2.55-10.86-4.16-.7.19-1.39.39-2.07.61-.61,1.14-1.18,2.29-1.7,3.44.28,1.09.68,2.21,1.18,3.34,1.6.74,3.3,1.42,5.05,2.02,2.82-1.34,5.64-3.1,8.4-5.25ZM526.47,59.82c2.14-.14,3.28-.8,3.38-1.94.11-1.12-2.74-3.61-7.31-4.94-.02.88-.12,1.79-.32,2.69-.27,1.25-.67,2.51-1.19,3.77,2.17.38,3.99.52,5.43.42ZM498.72,57.05c.32-.67.65-1.34.99-2-.41.14-.81.28-1.21.42.04.51.12,1.04.22,1.58ZM498.23,58.12c-.2-.81-.34-1.61-.41-2.39-1.56.6-3,1.24-4.3,1.93,1.13.85,2.43,1.67,3.86,2.46.27-.66.55-1.34.85-2.01ZM497.12,60.78c-1.6-.88-3.04-1.8-4.28-2.75-3.69,2.06-5.79,4.28-5.5,5.83.22,1.16,1.85,1.99,4.59,2.35,1.1.14,2.26.18,3.44.1.41-1.73,1-3.59,1.75-5.52h0s0,0,0,0ZM515.96,58.24c-.11-.23-.22-.46-.33-.68-.18.15-.35.3-.53.44.29.08.58.16.86.24ZM499.19,61.06c-.25-.63-.48-1.25-.66-1.87-.18.42-.36.84-.52,1.26.39.2.78.41,1.19.6ZM516.35,59.08c-.63-.17-1.27-.35-1.92-.54h0c-2.71,2.15-5.48,3.94-8.26,5.32,3.35,1.08,6.8,1.84,10.06,2.21.67-.84,1.3-1.71,1.86-2.59-.45-1.38-1.04-2.87-1.74-4.41ZM520.04,59.93c-.9-.17-1.84-.38-2.82-.63.52,1.18.97,2.32,1.35,3.41.55-.92,1.05-1.85,1.47-2.78ZM499.62,62.05c-.64-.3-1.27-.61-1.87-.93-.69,1.79-1.24,3.51-1.63,5.12,1.65-.17,3.38-.54,5.15-1.12-.62-1.02-1.18-2.05-1.64-3.07ZM504.28,63.96c-1.26-.45-2.48-.94-3.66-1.46.39.8.84,1.6,1.33,2.39.77-.27,1.55-.58,2.33-.93ZM515.7,66.72c-3.4-.43-7-1.26-10.45-2.42-.98.45-1.95.86-2.91,1.2,1.87,2.86,4.22,5.44,6.68,7.34,2.43-1.69,4.73-3.79,6.68-6.12ZM518.86,66.29c-.13-.62-.3-1.27-.5-1.94-.41.61-.85,1.21-1.31,1.8.61.06,1.21.1,1.81.14ZM501.65,65.74h0c-1.96.65-3.88,1.06-5.71,1.23-.66,2.99-.73,5.39-.19,6.96.8,2.33,2.9,2.69,4.53,2.58,2.3-.16,5.17-1.31,8.12-3.25-2.49-1.96-4.87-4.61-6.75-7.52h0ZM519,67.01c-.81-.04-1.63-.1-2.47-.19h0c-2.01,2.45-4.39,4.68-6.92,6.47,3.27,2.35,6.17,2.99,7.71,1.62,1.77-1.58,2.34-4.24,1.68-7.9Z"/><g><path class="cls-6" d="M463.78.61c21.27-1.24,26.9,31.82,11.29,37.64-5.91,2.2-25.6,7.94-30.86-11.88-2.82-10.63,3.72-24.84,19.57-25.76Z"/><path class="cls-8" d="M467.1,14.26s.32,5.18,3.85,5.31,4.56-5.87,3.62-6.93-2.67,4.55-3.59,3.77-4.09-3.52-3.87-2.15Z"/><path class="cls-8" d="M451.02,18.16s.32,5.18,3.85,5.31,4.56-5.87,3.62-6.93c-.94-1.06-2.67,4.55-3.59,3.77s-4.09-3.52-3.87-2.15Z"/><path class="cls-8" d="M470.03,27.4s-.78-5.93-4.85-5.79-4.77,7.12-3.6,8.27c1.17,1.14,2.7-5.45,3.83-4.63s4.99,3.72,4.62,2.16Z"/></g><g><path class="cls-1" d="M656.68,9.62c20.61-5.38,32.61,25.94,18.44,34.7-5.37,3.32-23.55,12.79-32.58-5.61-4.85-9.88-1.21-25.09,14.15-29.09Z"/><path class="cls-8" d="M668.07,34.67s-1.93-5.66-5.89-4.73-3.28,7.92-1.91,8.81,1.58-5.87,2.85-5.29,5.62,2.67,4.96,1.21Z"/><path class="cls-8" d="M655.4,24.96s-7.89-3.92-9.12-3.42,1.4,3.64,1.4,3.64c0,0-4.1.31-3.49,1.75.21.49,14.86,1.75,11.21-1.97Z"/><path class="cls-8" d="M661.12,23.36s2.82-8.35,4.05-8.85,1.57,3.56,1.57,3.56c0,0,3.13-2.67,3.71-1.22.2.5-9.29,11.72-9.34,6.51Z"/><ellipse class="cls-8" cx="651.66" cy="31.82" rx="3.23" ry="3.18" transform="translate(37.18 251.12) rotate(-22.44)"/><ellipse class="cls-8" cx="669.22" cy="25.33" rx="3.23" ry="3.18" transform="translate(40.99 257.33) rotate(-22.44)"/></g><g><path class="cls-1" d="M496.56,35.78s-4.17-7.33-6.89-16.43c-2.73-9.11-.79-19.61,9.51-18.68,12.2,1.1,6.74,12.01,7.74,12.52s6.28-9.6,14.01-2.34c7.89,7.42,2.96,16.76-24.36,24.94Z"/><path class="cls-8" d="M500.79,27.16c-.08-.24-.18-.53-.3-.85-.73-2.03-1.25-3.66-.78-4.61.33-.66,1.39-.79,3.93-.93.4-.02.89-.05,1.28-.09-1.7-2.38-2.52-3.74-2.34-4.55.06-.25.21-.46.43-.59.87-.49,3.09-3.11,4.28-4.64l1.01.79c-.32.41-3,3.82-4.44,4.83.14.5.85,1.66,2.12,3.45.26.37.46.64.52.76l.17.31-.17.38c-.26.47-.79.52-2.79.64-.87.05-2.43.14-2.89.32-.15.66.56,2.64.87,3.51.12.34.23.64.31.89l-1.22.39Z"/></g><path class="cls-5" d="M449.51,71.43s33.59.65,35.06,0,.55-8.98-4.77-9.2-3.59,1.3-4.33,1.08.66-10.76-8.15-10.74c-6.98.02-7.89,5.63-8.26,8.24-.37,2.6-1.28-5.21-7.53-2.6s-3.3,7.37-3.3,7.37c0,0-4.72-5.08-7.84,2.73-1.9,4.75,9.12,3.13,9.12,3.13Z"/><g><path class="cls-5" d="M563.57,17.3s33.59.65,35.06,0,.55-8.98-4.77-9.2-3.59,1.3-4.33,1.08.66-10.76-8.15-10.74c-6.98.02-7.89,5.63-8.26,8.24s-1.28-5.21-7.53-2.6c-6.24,2.6-3.3,7.37-3.3,7.37,0,0-4.72-5.08-7.84,2.73-1.9,4.75,9.12,3.13,9.12,3.13Z"/><path class="cls-3" d="M584.14,21.03s3.35-1.78,3.6-1.51.16,5.93.16,5.93c0,0,3.38-1.71,4.11-1.27s.5,9.17.19,8.66-1.95-5.62-2.48-5.37-3.23,1.38-3.23,1.38l-2.35-7.82Z"/><path class="cls-3" d="M575.84,20.68s4.35.33,4.43.75-3.5,5.86-3.5,5.86c0,0,4.34.42,4.77,1.3s-5.17,9.21-5.15,8.53,1.57-6.66.89-6.75-3.99-.65-3.99-.65l2.54-9.05Z"/><path class="cls-3" d="M567.08,19.63s3.27,1.91,3.17,2.28-4.96,3.25-4.96,3.25c0,0,3.23,1.98,3.23,2.83s-7.54,5.23-7.27,4.7,3.76-4.61,3.26-4.93-2.87-2.03-2.87-2.03l5.43-6.1Z"/></g><path class="cls-5" d="M664.29,70.29s33.59.65,35.06,0c1.47-.65.55-8.98-4.77-9.2s-3.59,1.3-4.33,1.08.66-10.76-8.15-10.74c-6.98.02-7.89,5.63-8.26,8.24s-1.28-5.21-7.53-2.6c-6.24,2.6-3.3,7.37-3.3,7.37,0,0-4.72-5.08-7.84,2.73-1.9,4.75,9.12,3.13,9.12,3.13Z"/><g><path class="cls-4" d="M632.35,4.81s-4.67-4.42-11.71-3.21c-6.19,1.06-6.72,9.04-7.21,10.04-1.58,3.25-2.98,4.79-2.45,5.17s2.86.48,2.61.86-.81,1.24-.58,1.56c.62.88,5.15-.72,6,2.29,1.33,4.71-2.83,4.37-5.42,2.96,0,0-.83,2.67-.33,3.29s5.21-.12,5.83,1.63-.33,5.09-.33,5.59h13s.02-2.51.08-6.26c.06-3.75,8.31-15.16.5-23.91Z"/><path class="cls-5" d="M608.89,16.76s-4.44-2.22-4.6-2.17-1.03,2.98-.87,3.03,4.71,1.3,4.88,1.3.6-2.17.6-2.17Z"/><path class="cls-5" d="M607.68,21.04s-4.96-.24-5.09-.12.26,3.14.43,3.12,4.84-.71,4.98-.78-.33-2.22-.33-2.22Z"/><path class="cls-5" d="M608.68,25.07s-4.36,2.38-4.41,2.54,1.86,2.55,2,2.44,3.76-3.13,3.85-3.26-1.44-1.73-1.44-1.73Z"/></g><g><path class="cls-2" d="M430.81,34.47s-12.28-.82-17.94,6.5c-5.67,7.32-.03,14.8,3.14,16.89s7.33,1.26,8,1.6-1.67,5.17-.33,5.17,6-5.16,9.67-5.33,9,.84,12.67-5.25c3.02-5.02,2.31-19.31-15.19-19.57Z"/><circle class="cls-8" cx="420.36" cy="46.98" r="2.56"/><circle class="cls-8" cx="428.91" cy="46.98" r="2.56"/><circle class="cls-8" cx="437.45" cy="46.98" r="2.56"/></g><g><path class="cls-4" d="M550.4,34.47s12.28-.82,17.94,6.5c5.67,7.32.03,14.8-3.14,16.89-3.17,2.1-7.33,1.26-8,1.6s1.67,5.17.33,5.17-6-5.16-9.67-5.33-9,.84-12.67-5.25c-3.02-5.02-2.31-19.31,15.19-19.57Z"/><circle class="cls-8" cx="560.86" cy="46.98" r="2.56"/><circle class="cls-8" cx="552.3" cy="46.98" r="2.56"/><circle class="cls-8" cx="543.76" cy="46.98" r="2.56"/></g><path class="cls-5" d="M416.12,14.83c-.93-.37-2.49-.66-3.95-.7-.25-.76-.58-1.48-.98-2.16,1.5-1.57,3.12-3.75,2.84-4.71-.48-1.67-2.15-3.58-4.24-2.69-1.05.45-2.61,1.56-3.73,2.73-.57-.26-1.16-.47-1.77-.63-.07-2.12-.47-4.64-1.32-5.12-1.52-.84-4.05-1.01-4.9,1.1-.41,1.02-.72,2.82-.71,4.4-.3.11-.58.24-.87.38-1.57-1.58-4.03-3.49-5.07-3.19-1.67.48-3.58,2.15-2.69,4.24.45,1.05,1.57,2.62,2.75,3.74-.33.61-.61,1.25-.83,1.91-2.19.03-5.02.42-5.52,1.33-.84,1.52-1.01,4.05,1.1,4.9,1,.4,2.72.7,4.27.71.13.46.28.91.46,1.35-1.44,1.55-2.91,3.58-2.65,4.51.48,1.67,2.15,3.58,4.24,2.69.8-.34,1.91-1.08,2.89-1.93.61.39,1.26.71,1.94.98.08,2.09.48,4.52,1.31,4.98,1.52.84,4.05,1.01,4.9-1.1.33-.83.6-2.18.68-3.51,1.02-.27,1.99-.68,2.88-1.21,1.44,1.25,3.12,2.36,3.93,2.13,1.67-.48,3.58-2.15,2.69-4.24-.36-.84-1.15-2.01-2.05-3.02.24-.53.44-1.07.6-1.64,2.07-.09,4.43-.49,4.89-1.31.84-1.52,1.01-4.05-1.1-4.9ZM401.44,23.75c-3.29.01-5.97-2.62-5.98-5.88s2.64-5.92,5.93-5.93c3.29-.01,5.97,2.62,5.98,5.88.01,3.26-2.64,5.92-5.93,5.93Z"/><g><path class="cls-5" d="M528.99,6.09s2.03-10.45,9.96-4.95c8.26,5.73-.85,10.08-.87,11.71-.02,1.63,3.38,3.87,2.56,4.79s-3.53,1.62-3.53,1.62c0,0-2.63-3.92-2.41-6.19s5.9-5.08,2.79-9.08c-3.69-4.76-4.59.67-3.89,1.88s-4.09,4.75-4.63.22Z"/><circle class="cls-5" cx="541.41" cy="22.03" r="2.44"/></g><g><path class="cls-4" d="M624.22,42.87c-19.89-2.98-27.13,21.16-24.11,26.65,0,0,1.47.02,3.42.04.45-6.87,3.62-22.7,17.01-22.7,15.17,0,17.05,18.49,17.28,22.1,1.31-.11,2.46-.21,3.22-.31,2.83-.35-.82-23.39-16.81-25.78Z"/><path class="cls-6" d="M619.62,52.28c-9.24.71-11.3,12.29-11.76,17.3,2.42-.01,4.62-.07,5.19-.21,1.42-.35-.18-11.52,6.9-12.93,7.09-1.42,7.09,13.07,8.5,13.09.57,0,2.28-.07,4.28-.2-.88-5.44-3.91-17.75-13.12-17.05Z"/><path class="cls-3" d="M620.54,46.87c-13.39,0-16.57,15.83-17.01,22.7,1.32.01,2.87.02,4.34,0,.46-5,2.52-16.59,11.76-17.3,9.21-.71,12.23,11.6,13.12,17.05,1.64-.1,3.47-.23,5.08-.36-.22-3.61-2.11-22.1-17.28-22.1Z"/></g><g><path class="cls-4" d="M391.8,37.09c-18.72-7.34-31.16,14.58-29.45,20.6,0,0,1.42.35,3.32.8,1.97-6.59,8.59-21.32,21.65-18.33,14.79,3.38,12.5,21.83,11.92,25.4,1.3.19,2.45.34,3.21.42,2.84.29,4.41-22.98-10.64-28.88Z"/><path class="cls-6" d="M385.22,45.24c-9.16-1.37-13.76,9.46-15.32,14.24,2.37.53,4.52.96,5.1.95,1.46-.03,2.39-11.27,9.61-11.07,7.22.2,3.99,14.32,5.37,14.66.56.14,2.23.43,4.22.76.35-5.5.15-18.18-8.99-19.54Z"/><path class="cls-3" d="M387.32,40.17c-13.06-2.99-19.68,11.74-21.65,18.33,1.29.31,2.79.66,4.22.98,1.56-4.77,6.16-15.61,15.32-14.24,9.14,1.37,9.34,14.04,8.99,19.54,1.62.27,3.43.55,5.03.78.59-3.57,2.87-22.01-11.92-25.4Z"/></g><path class="cls-6" d="M566.53,69.03c.59.32.87.7,1.01,1.08-2.54,2.67-4.59,4.94-4.48,5.2.11.26,2.25,2.43,4.8,4.96-.15.35-.46.69-1.09.88-1.68.51-5.19,2.7-2.05,5.7,3.14,3,4.6.22,5.69-1.76.37-.67.81-.96,1.24-1.07,2.7,2.66,5,4.89,5,4.89,0,0,2.52-2.49,5.39-5.41.49.04,1.07.29,1.35,1.2.51,1.68,2.7,5.19,5.7,2.05,3-3.14.22-4.6-1.76-5.69-1.01-.55-1.19-1.28-1.12-1.85,2.32-2.45,4.13-4.5,4.08-4.86-.05-.36-1.96-2.34-4.32-4.69.15-.34.46-.67,1.07-.86,1.68-.51,5.19-2.7,2.05-5.7-3.14-3-4.6-.22-5.69,1.76-.37.68-.82.97-1.25,1.07-2.89-2.79-5.45-5.18-5.45-5.18,0,0-2.61,2.61-5.54,5.62-.28-.18-.54-.46-.69-.97-.51-1.68-2.7-5.19-5.7-2.05-3,3.14-.22,4.6,1.76,5.69Z"/><g><path class="cls-5" d="M579.71,48.6s12.25-10.2,13.25-10.88,3.97,3.5,3.97,3.5c0,0-14.21,11.49-14.46,11.17s-2.76-3.79-2.76-3.79Z"/><path class="cls-5" d="M584.85,37.1s9.85,11.32,10.58,12.28c.73.96-3.47,4.23-3.47,4.23,0,0-9.65-11.07-10.86-12.67-.25-.32,3.74-3.85,3.74-3.85Z"/></g><path class="cls-3" d="M425.12,3.05s8.05-.04,8.53,1.47c.48,1.51-3.93,9.31-3.93,9.31,0,0,7.36,1.05,7.11,2.48s-7.06,14-7.98,13.6-.55-11.79-.55-11.79l-5.8-.17,2.63-14.91Z"/></g></g></g></g></svg>